%FSLAX45Y45*%
G04 Gerber Fmt 4.5, Leading zero omitted, Abs format (unit mm)*
G04 Created by KiCad (PCBNEW (6.0.2)) date 2022-06-27 11:40:45*
%MOMM*%
%LPD*%
G01*
G04 APERTURE LIST*
%TA.AperFunction,Profile*%
%ADD10C,0.100000*%
%TD*%
%ADD11C,0.200000*%
G04 APERTURE END LIST*
D10*
X9860200Y-5083100D02*
X19570600Y-5084500D01*
X19572500Y-5083600D02*
X19571300Y-12568000D01*
X9862400Y-12541200D02*
X9862400Y-5080800D01*
X19571300Y-12569100D02*
X9862600Y-12540800D01*
D11*
X10112819Y-12884576D02*
X10112819Y-12684576D01*
X10160438Y-12684576D01*
X10189010Y-12694100D01*
X10208057Y-12713148D01*
X10217581Y-12732195D01*
X10227105Y-12770290D01*
X10227105Y-12798862D01*
X10217581Y-12836957D01*
X10208057Y-12856005D01*
X10189010Y-12875052D01*
X10160438Y-12884576D01*
X10112819Y-12884576D01*
X10312819Y-12884576D02*
X10312819Y-12751243D01*
X10312819Y-12789338D02*
X10322343Y-12770290D01*
X10331867Y-12760767D01*
X10350914Y-12751243D01*
X10369962Y-12751243D01*
X10436629Y-12884576D02*
X10436629Y-12751243D01*
X10436629Y-12684576D02*
X10427105Y-12694100D01*
X10436629Y-12703624D01*
X10446152Y-12694100D01*
X10436629Y-12684576D01*
X10436629Y-12703624D01*
X10560438Y-12884576D02*
X10541390Y-12875052D01*
X10531867Y-12856005D01*
X10531867Y-12684576D01*
X10665200Y-12884576D02*
X10646152Y-12875052D01*
X10636629Y-12856005D01*
X10636629Y-12684576D01*
X10893771Y-12884576D02*
X10893771Y-12684576D01*
X10960438Y-12827433D01*
X11027105Y-12684576D01*
X11027105Y-12884576D01*
X11208057Y-12884576D02*
X11208057Y-12779814D01*
X11198533Y-12760767D01*
X11179486Y-12751243D01*
X11141390Y-12751243D01*
X11122343Y-12760767D01*
X11208057Y-12875052D02*
X11189009Y-12884576D01*
X11141390Y-12884576D01*
X11122343Y-12875052D01*
X11112819Y-12856005D01*
X11112819Y-12836957D01*
X11122343Y-12817909D01*
X11141390Y-12808386D01*
X11189009Y-12808386D01*
X11208057Y-12798862D01*
X11303295Y-12751243D02*
X11303295Y-12951243D01*
X11303295Y-12760767D02*
X11322343Y-12751243D01*
X11360438Y-12751243D01*
X11379486Y-12760767D01*
X11389009Y-12770290D01*
X11398533Y-12789338D01*
X11398533Y-12846481D01*
X11389009Y-12865528D01*
X11379486Y-12875052D01*
X11360438Y-12884576D01*
X11322343Y-12884576D01*
X11303295Y-12875052D01*
X11484248Y-12865528D02*
X11493771Y-12875052D01*
X11484248Y-12884576D01*
X11474724Y-12875052D01*
X11484248Y-12865528D01*
X11484248Y-12884576D01*
X11484248Y-12760767D02*
X11493771Y-12770290D01*
X11484248Y-12779814D01*
X11474724Y-12770290D01*
X11484248Y-12760767D01*
X11484248Y-12779814D01*
M02*
