%FSLAX45Y45*%
G04 Gerber Fmt 4.5, Leading zero omitted, Abs format (unit mm)*
G04 Created by KiCad (PCBNEW (6.0.2)) date 2022-06-27 11:40:45*
%MOMM*%
%LPD*%
G01*
G04 APERTURE LIST*
%TA.AperFunction,Profile*%
%ADD10C,0.100000*%
%TD*%
%ADD11C,0.200000*%
%ADD12C,0.040000*%
%ADD13C,0.070000*%
%ADD14C,0.075000*%
%ADD15C,0.080000*%
%ADD16C,0.090000*%
%ADD17C,0.100000*%
%ADD18C,0.110000*%
%ADD19C,0.320000*%
G04 APERTURE END LIST*
D10*
X9860200Y-5083100D02*
X19570600Y-5084500D01*
X19572500Y-5083600D02*
X19571300Y-12568000D01*
X9862400Y-12541200D02*
X9862400Y-5080800D01*
X19571300Y-12569100D02*
X9862600Y-12540800D01*
D11*
D12*
X15190900Y-11501450D02*
X15230900Y-11541450D01*
X15230900Y-11501450D02*
X15190900Y-11541450D01*
D13*
X11379800Y-5601150D02*
G75*
G03*
X11379800Y-5601150I-35000J0D01*
G01*
X11379800Y-6363150D02*
G75*
G03*
X11379800Y-6363150I-35000J0D01*
G01*
X12166500Y-5592250D02*
G75*
G03*
X12166500Y-5592250I-35000J0D01*
G01*
X12166500Y-6354250D02*
G75*
G03*
X12166500Y-6354250I-35000J0D01*
G01*
X12461900Y-9481150D02*
G75*
G03*
X12461900Y-9481150I-35000J0D01*
G01*
X12461900Y-10243150D02*
G75*
G03*
X12461900Y-10243150I-35000J0D01*
G01*
X12470900Y-8486550D02*
G75*
G03*
X12470900Y-8486550I-35000J0D01*
G01*
X12470900Y-9248550D02*
G75*
G03*
X12470900Y-9248550I-35000J0D01*
G01*
X12999500Y-5599450D02*
G75*
G03*
X12999500Y-5599450I-35000J0D01*
G01*
X12999500Y-6361450D02*
G75*
G03*
X12999500Y-6361450I-35000J0D01*
G01*
X13353400Y-9385450D02*
G75*
G03*
X13353400Y-9385450I-35000J0D01*
G01*
X13354400Y-9615350D02*
G75*
G03*
X13354400Y-9615350I-35000J0D01*
G01*
X13766300Y-5595150D02*
G75*
G03*
X13766300Y-5595150I-35000J0D01*
G01*
X13766300Y-6357150D02*
G75*
G03*
X13766300Y-6357150I-35000J0D01*
G01*
X14115400Y-9385450D02*
G75*
G03*
X14115400Y-9385450I-35000J0D01*
G01*
X14116400Y-9615350D02*
G75*
G03*
X14116400Y-9615350I-35000J0D01*
G01*
X16356400Y-11372000D02*
G75*
G03*
X16356400Y-11372000I-35000J0D01*
G01*
X16356400Y-12134000D02*
G75*
G03*
X16356400Y-12134000I-35000J0D01*
G01*
X17072800Y-9064117D02*
G75*
G03*
X17072800Y-9064117I-35000J0D01*
G01*
X17072800Y-9498517D02*
G75*
G03*
X17072800Y-9498517I-35000J0D01*
G01*
X17080700Y-8605817D02*
G75*
G03*
X17080700Y-8605817I-35000J0D01*
G01*
X17084700Y-7238917D02*
G75*
G03*
X17084700Y-7238917I-35000J0D01*
G01*
X17084700Y-8151517D02*
G75*
G03*
X17084700Y-8151517I-35000J0D01*
G01*
X17084700Y-10470917D02*
G75*
G03*
X17084700Y-10470917I-35000J0D01*
G01*
X17088700Y-9992717D02*
G75*
G03*
X17088700Y-9992717I-35000J0D01*
G01*
X17092700Y-7697217D02*
G75*
G03*
X17092700Y-7697217I-35000J0D01*
G01*
X17834800Y-9064117D02*
G75*
G03*
X17834800Y-9064117I-35000J0D01*
G01*
X17834800Y-9498517D02*
G75*
G03*
X17834800Y-9498517I-35000J0D01*
G01*
X17842700Y-8605817D02*
G75*
G03*
X17842700Y-8605817I-35000J0D01*
G01*
X17846700Y-7238917D02*
G75*
G03*
X17846700Y-7238917I-35000J0D01*
G01*
X17846700Y-8151517D02*
G75*
G03*
X17846700Y-8151517I-35000J0D01*
G01*
X17846700Y-10470917D02*
G75*
G03*
X17846700Y-10470917I-35000J0D01*
G01*
X17850700Y-9992717D02*
G75*
G03*
X17850700Y-9992717I-35000J0D01*
G01*
X17854700Y-7697217D02*
G75*
G03*
X17854700Y-7697217I-35000J0D01*
G01*
D14*
X12762700Y-8788400D02*
X12762700Y-8863400D01*
X12725200Y-8825900D02*
X12800200Y-8825900D01*
X12889700Y-8788400D02*
X12889700Y-8863400D01*
X12852200Y-8825900D02*
X12927200Y-8825900D01*
X13016700Y-8788400D02*
X13016700Y-8863400D01*
X12979200Y-8825900D02*
X13054200Y-8825900D01*
X13197900Y-10059450D02*
X13197900Y-10134450D01*
X13160400Y-10096950D02*
X13235400Y-10096950D01*
X13324900Y-10059450D02*
X13324900Y-10134450D01*
X13287400Y-10096950D02*
X13362400Y-10096950D01*
X13451900Y-10059450D02*
X13451900Y-10134450D01*
X13414400Y-10096950D02*
X13489400Y-10096950D01*
D15*
X12033684Y-7550284D02*
X12033684Y-7493715D01*
X11977115Y-7493715D01*
X11977115Y-7550284D01*
X12033684Y-7550284D01*
X12383684Y-7550284D02*
X12383684Y-7493715D01*
X12327115Y-7493715D01*
X12327115Y-7550284D01*
X12383684Y-7550284D01*
X13471284Y-7507184D02*
X13471284Y-7450615D01*
X13414715Y-7450615D01*
X13414715Y-7507184D01*
X13471284Y-7507184D01*
X13471284Y-7761184D02*
X13471284Y-7704615D01*
X13414715Y-7704615D01*
X13414715Y-7761184D01*
X13471284Y-7761184D01*
X13471284Y-8015184D02*
X13471284Y-7958615D01*
X13414715Y-7958615D01*
X13414715Y-8015184D01*
X13471284Y-8015184D01*
X13471284Y-8269184D02*
X13471284Y-8212615D01*
X13414715Y-8212615D01*
X13414715Y-8269184D01*
X13471284Y-8269184D01*
X13471284Y-8523185D02*
X13471284Y-8466616D01*
X13414715Y-8466616D01*
X13414715Y-8523185D01*
X13471284Y-8523185D01*
X13471284Y-8777185D02*
X13471284Y-8720616D01*
X13414715Y-8720616D01*
X13414715Y-8777185D01*
X13471284Y-8777185D01*
X14233284Y-7507184D02*
X14233284Y-7450615D01*
X14176715Y-7450615D01*
X14176715Y-7507184D01*
X14233284Y-7507184D01*
X14233284Y-7761184D02*
X14233284Y-7704615D01*
X14176715Y-7704615D01*
X14176715Y-7761184D01*
X14233284Y-7761184D01*
X14233284Y-8015184D02*
X14233284Y-7958615D01*
X14176715Y-7958615D01*
X14176715Y-8015184D01*
X14233284Y-8015184D01*
X14233284Y-8269184D02*
X14233284Y-8212615D01*
X14176715Y-8212615D01*
X14176715Y-8269184D01*
X14233284Y-8269184D01*
X14233284Y-8523185D02*
X14233284Y-8466616D01*
X14176715Y-8466616D01*
X14176715Y-8523185D01*
X14233284Y-8523185D01*
X14233284Y-8777185D02*
X14233284Y-8720616D01*
X14176715Y-8720616D01*
X14176715Y-8777185D01*
X14233284Y-8777185D01*
X14683584Y-6749284D02*
X14683584Y-6692715D01*
X14627015Y-6692715D01*
X14627015Y-6749284D01*
X14683584Y-6749284D01*
X14683584Y-7003284D02*
X14683584Y-6946715D01*
X14627015Y-6946715D01*
X14627015Y-7003284D01*
X14683584Y-7003284D01*
X14683584Y-7257284D02*
X14683584Y-7200715D01*
X14627015Y-7200715D01*
X14627015Y-7257284D01*
X14683584Y-7257284D01*
X14683584Y-7511284D02*
X14683584Y-7454715D01*
X14627015Y-7454715D01*
X14627015Y-7511284D01*
X14683584Y-7511284D01*
X14683584Y-7765284D02*
X14683584Y-7708715D01*
X14627015Y-7708715D01*
X14627015Y-7765284D01*
X14683584Y-7765284D01*
X14683584Y-8019284D02*
X14683584Y-7962715D01*
X14627015Y-7962715D01*
X14627015Y-8019284D01*
X14683584Y-8019284D01*
X14683584Y-8273284D02*
X14683584Y-8216715D01*
X14627015Y-8216715D01*
X14627015Y-8273284D01*
X14683584Y-8273284D01*
X14683584Y-8527285D02*
X14683584Y-8470716D01*
X14627015Y-8470716D01*
X14627015Y-8527285D01*
X14683584Y-8527285D01*
X14683584Y-8781285D02*
X14683584Y-8724716D01*
X14627015Y-8724716D01*
X14627015Y-8781285D01*
X14683584Y-8781285D01*
D16*
X11338000Y-6727350D02*
X11383000Y-6682350D01*
X11338000Y-6637350D01*
X11293000Y-6682350D01*
X11338000Y-6727350D01*
X11338000Y-6981350D02*
X11383000Y-6936350D01*
X11338000Y-6891350D01*
X11293000Y-6936350D01*
X11338000Y-6981350D01*
X12128400Y-6727350D02*
X12173400Y-6682350D01*
X12128400Y-6637350D01*
X12083400Y-6682350D01*
X12128400Y-6727350D01*
X12128400Y-6981350D02*
X12173400Y-6936350D01*
X12128400Y-6891350D01*
X12083400Y-6936350D01*
X12128400Y-6981350D01*
X12961600Y-6753150D02*
X13006600Y-6708150D01*
X12961600Y-6663150D01*
X12916600Y-6708150D01*
X12961600Y-6753150D01*
X12961600Y-7007150D02*
X13006600Y-6962150D01*
X12961600Y-6917150D01*
X12916600Y-6962150D01*
X12961600Y-7007150D01*
X13732600Y-6758650D02*
X13777600Y-6713650D01*
X13732600Y-6668650D01*
X13687600Y-6713650D01*
X13732600Y-6758650D01*
X13732600Y-7012650D02*
X13777600Y-6967650D01*
X13732600Y-6922650D01*
X13687600Y-6967650D01*
X13732600Y-7012650D01*
X15346100Y-5588300D02*
X15391100Y-5543300D01*
X15346100Y-5498300D01*
X15301100Y-5543300D01*
X15346100Y-5588300D01*
X16616100Y-5588300D02*
X16661100Y-5543300D01*
X16616100Y-5498300D01*
X16571100Y-5543300D01*
X16616100Y-5588300D01*
X18158400Y-7279917D02*
X18203400Y-7234917D01*
X18158400Y-7189917D01*
X18113400Y-7234917D01*
X18158400Y-7279917D01*
X18159500Y-7734217D02*
X18204500Y-7689217D01*
X18159500Y-7644217D01*
X18114500Y-7689217D01*
X18159500Y-7734217D01*
X18163500Y-8192517D02*
X18208500Y-8147517D01*
X18163500Y-8102517D01*
X18118500Y-8147517D01*
X18163500Y-8192517D01*
X18163500Y-9101217D02*
X18208500Y-9056217D01*
X18163500Y-9011217D01*
X18118500Y-9056217D01*
X18163500Y-9101217D01*
X18163500Y-9567517D02*
X18208500Y-9522517D01*
X18163500Y-9477517D01*
X18118500Y-9522517D01*
X18163500Y-9567517D01*
X18163500Y-10025817D02*
X18208500Y-9980817D01*
X18163500Y-9935817D01*
X18118500Y-9980817D01*
X18163500Y-10025817D01*
X18163500Y-10484117D02*
X18208500Y-10439117D01*
X18163500Y-10394117D01*
X18118500Y-10439117D01*
X18163500Y-10484117D01*
X18167500Y-8650817D02*
X18212500Y-8605817D01*
X18167500Y-8560817D01*
X18122500Y-8605817D01*
X18167500Y-8650817D01*
X18412400Y-7279917D02*
X18457400Y-7234917D01*
X18412400Y-7189917D01*
X18367400Y-7234917D01*
X18412400Y-7279917D01*
X18413500Y-7734217D02*
X18458500Y-7689217D01*
X18413500Y-7644217D01*
X18368500Y-7689217D01*
X18413500Y-7734217D01*
X18417500Y-8192517D02*
X18462500Y-8147517D01*
X18417500Y-8102517D01*
X18372500Y-8147517D01*
X18417500Y-8192517D01*
X18417500Y-9101217D02*
X18462500Y-9056217D01*
X18417500Y-9011217D01*
X18372500Y-9056217D01*
X18417500Y-9101217D01*
X18417500Y-9567517D02*
X18462500Y-9522517D01*
X18417500Y-9477517D01*
X18372500Y-9522517D01*
X18417500Y-9567517D01*
X18417500Y-10025817D02*
X18462500Y-9980817D01*
X18417500Y-9935817D01*
X18372500Y-9980817D01*
X18417500Y-10025817D01*
X18417500Y-10484117D02*
X18462500Y-10439117D01*
X18417500Y-10394117D01*
X18372500Y-10439117D01*
X18417500Y-10484117D01*
X18421500Y-8650817D02*
X18466500Y-8605817D01*
X18421500Y-8560817D01*
X18376500Y-8605817D01*
X18421500Y-8650817D01*
D17*
X10092533Y-6194500D02*
X10192533Y-6294500D01*
X10192533Y-6194500D02*
X10092533Y-6294500D01*
X10192533Y-6244500D02*
G75*
G03*
X10192533Y-6244500I-50000J0D01*
G01*
X10092533Y-6471500D02*
X10192533Y-6571500D01*
X10192533Y-6471500D02*
X10092533Y-6571500D01*
X10192533Y-6521500D02*
G75*
G03*
X10192533Y-6521500I-50000J0D01*
G01*
X10092533Y-6748500D02*
X10192533Y-6848500D01*
X10192533Y-6748500D02*
X10092533Y-6848500D01*
X10192533Y-6798500D02*
G75*
G03*
X10192533Y-6798500I-50000J0D01*
G01*
X10092533Y-7025500D02*
X10192533Y-7125500D01*
X10192533Y-7025500D02*
X10092533Y-7125500D01*
X10192533Y-7075500D02*
G75*
G03*
X10192533Y-7075500I-50000J0D01*
G01*
X10092533Y-7302500D02*
X10192533Y-7402500D01*
X10192533Y-7302500D02*
X10092533Y-7402500D01*
X10192533Y-7352500D02*
G75*
G03*
X10192533Y-7352500I-50000J0D01*
G01*
X10092533Y-7579500D02*
X10192533Y-7679500D01*
X10192533Y-7579500D02*
X10092533Y-7679500D01*
X10192533Y-7629500D02*
G75*
G03*
X10192533Y-7629500I-50000J0D01*
G01*
X10092533Y-7856500D02*
X10192533Y-7956500D01*
X10192533Y-7856500D02*
X10092533Y-7956500D01*
X10192533Y-7906500D02*
G75*
G03*
X10192533Y-7906500I-50000J0D01*
G01*
X10092533Y-8133500D02*
X10192533Y-8233500D01*
X10192533Y-8133500D02*
X10092533Y-8233500D01*
X10192533Y-8183500D02*
G75*
G03*
X10192533Y-8183500I-50000J0D01*
G01*
X10092533Y-8410500D02*
X10192533Y-8510500D01*
X10192533Y-8410500D02*
X10092533Y-8510500D01*
X10192533Y-8460500D02*
G75*
G03*
X10192533Y-8460500I-50000J0D01*
G01*
X10092533Y-8687500D02*
X10192533Y-8787500D01*
X10192533Y-8687500D02*
X10092533Y-8787500D01*
X10192533Y-8737500D02*
G75*
G03*
X10192533Y-8737500I-50000J0D01*
G01*
X10092533Y-8964500D02*
X10192533Y-9064500D01*
X10192533Y-8964500D02*
X10092533Y-9064500D01*
X10192533Y-9014500D02*
G75*
G03*
X10192533Y-9014500I-50000J0D01*
G01*
X10092533Y-9241500D02*
X10192533Y-9341500D01*
X10192533Y-9241500D02*
X10092533Y-9341500D01*
X10192533Y-9291500D02*
G75*
G03*
X10192533Y-9291500I-50000J0D01*
G01*
X10092533Y-9518500D02*
X10192533Y-9618500D01*
X10192533Y-9518500D02*
X10092533Y-9618500D01*
X10192533Y-9568500D02*
G75*
G03*
X10192533Y-9568500I-50000J0D01*
G01*
X10092533Y-9795500D02*
X10192533Y-9895500D01*
X10192533Y-9795500D02*
X10092533Y-9895500D01*
X10192533Y-9845500D02*
G75*
G03*
X10192533Y-9845500I-50000J0D01*
G01*
X10092533Y-10072500D02*
X10192533Y-10172500D01*
X10192533Y-10072500D02*
X10092533Y-10172500D01*
X10192533Y-10122500D02*
G75*
G03*
X10192533Y-10122500I-50000J0D01*
G01*
X10092533Y-10349500D02*
X10192533Y-10449500D01*
X10192533Y-10349500D02*
X10092533Y-10449500D01*
X10192533Y-10399500D02*
G75*
G03*
X10192533Y-10399500I-50000J0D01*
G01*
X10092533Y-10626500D02*
X10192533Y-10726500D01*
X10192533Y-10626500D02*
X10092533Y-10726500D01*
X10192533Y-10676500D02*
G75*
G03*
X10192533Y-10676500I-50000J0D01*
G01*
X10092533Y-10903500D02*
X10192533Y-11003500D01*
X10192533Y-10903500D02*
X10092533Y-11003500D01*
X10192533Y-10953500D02*
G75*
G03*
X10192533Y-10953500I-50000J0D01*
G01*
X10376533Y-6056000D02*
X10476533Y-6156000D01*
X10476533Y-6056000D02*
X10376533Y-6156000D01*
X10476533Y-6106000D02*
G75*
G03*
X10476533Y-6106000I-50000J0D01*
G01*
X10376533Y-6333000D02*
X10476533Y-6433000D01*
X10476533Y-6333000D02*
X10376533Y-6433000D01*
X10476533Y-6383000D02*
G75*
G03*
X10476533Y-6383000I-50000J0D01*
G01*
X10376533Y-6610000D02*
X10476533Y-6710000D01*
X10476533Y-6610000D02*
X10376533Y-6710000D01*
X10476533Y-6660000D02*
G75*
G03*
X10476533Y-6660000I-50000J0D01*
G01*
X10376533Y-6887000D02*
X10476533Y-6987000D01*
X10476533Y-6887000D02*
X10376533Y-6987000D01*
X10476533Y-6937000D02*
G75*
G03*
X10476533Y-6937000I-50000J0D01*
G01*
X10376533Y-7164000D02*
X10476533Y-7264000D01*
X10476533Y-7164000D02*
X10376533Y-7264000D01*
X10476533Y-7214000D02*
G75*
G03*
X10476533Y-7214000I-50000J0D01*
G01*
X10376533Y-7441000D02*
X10476533Y-7541000D01*
X10476533Y-7441000D02*
X10376533Y-7541000D01*
X10476533Y-7491000D02*
G75*
G03*
X10476533Y-7491000I-50000J0D01*
G01*
X10376533Y-7718000D02*
X10476533Y-7818000D01*
X10476533Y-7718000D02*
X10376533Y-7818000D01*
X10476533Y-7768000D02*
G75*
G03*
X10476533Y-7768000I-50000J0D01*
G01*
X10376533Y-7995000D02*
X10476533Y-8095000D01*
X10476533Y-7995000D02*
X10376533Y-8095000D01*
X10476533Y-8045000D02*
G75*
G03*
X10476533Y-8045000I-50000J0D01*
G01*
X10376533Y-8272000D02*
X10476533Y-8372000D01*
X10476533Y-8272000D02*
X10376533Y-8372000D01*
X10476533Y-8322000D02*
G75*
G03*
X10476533Y-8322000I-50000J0D01*
G01*
X10376533Y-8549000D02*
X10476533Y-8649000D01*
X10476533Y-8549000D02*
X10376533Y-8649000D01*
X10476533Y-8599000D02*
G75*
G03*
X10476533Y-8599000I-50000J0D01*
G01*
X10376533Y-8826000D02*
X10476533Y-8926000D01*
X10476533Y-8826000D02*
X10376533Y-8926000D01*
X10476533Y-8876000D02*
G75*
G03*
X10476533Y-8876000I-50000J0D01*
G01*
X10376533Y-9103000D02*
X10476533Y-9203000D01*
X10476533Y-9103000D02*
X10376533Y-9203000D01*
X10476533Y-9153000D02*
G75*
G03*
X10476533Y-9153000I-50000J0D01*
G01*
X10376533Y-9380000D02*
X10476533Y-9480000D01*
X10476533Y-9380000D02*
X10376533Y-9480000D01*
X10476533Y-9430000D02*
G75*
G03*
X10476533Y-9430000I-50000J0D01*
G01*
X10376533Y-9657000D02*
X10476533Y-9757000D01*
X10476533Y-9657000D02*
X10376533Y-9757000D01*
X10476533Y-9707000D02*
G75*
G03*
X10476533Y-9707000I-50000J0D01*
G01*
X10376533Y-9934000D02*
X10476533Y-10034000D01*
X10476533Y-9934000D02*
X10376533Y-10034000D01*
X10476533Y-9984000D02*
G75*
G03*
X10476533Y-9984000I-50000J0D01*
G01*
X10376533Y-10211000D02*
X10476533Y-10311000D01*
X10476533Y-10211000D02*
X10376533Y-10311000D01*
X10476533Y-10261000D02*
G75*
G03*
X10476533Y-10261000I-50000J0D01*
G01*
X10376533Y-10488000D02*
X10476533Y-10588000D01*
X10476533Y-10488000D02*
X10376533Y-10588000D01*
X10476533Y-10538000D02*
G75*
G03*
X10476533Y-10538000I-50000J0D01*
G01*
X10376533Y-10765000D02*
X10476533Y-10865000D01*
X10476533Y-10765000D02*
X10376533Y-10865000D01*
X10476533Y-10815000D02*
G75*
G03*
X10476533Y-10815000I-50000J0D01*
G01*
X10376533Y-11042000D02*
X10476533Y-11142000D01*
X10476533Y-11042000D02*
X10376533Y-11142000D01*
X10476533Y-11092000D02*
G75*
G03*
X10476533Y-11092000I-50000J0D01*
G01*
X10919500Y-6366800D02*
X11019500Y-6466800D01*
X11019500Y-6366800D02*
X10919500Y-6466800D01*
X11019500Y-6416800D02*
G75*
G03*
X11019500Y-6416800I-50000J0D01*
G01*
X10919500Y-6620800D02*
X11019500Y-6720800D01*
X11019500Y-6620800D02*
X10919500Y-6720800D01*
X11019500Y-6670800D02*
G75*
G03*
X11019500Y-6670800I-50000J0D01*
G01*
X10919500Y-6874800D02*
X11019500Y-6974800D01*
X11019500Y-6874800D02*
X10919500Y-6974800D01*
X11019500Y-6924800D02*
G75*
G03*
X11019500Y-6924800I-50000J0D01*
G01*
X10919500Y-7128800D02*
X11019500Y-7228800D01*
X11019500Y-7128800D02*
X10919500Y-7228800D01*
X11019500Y-7178800D02*
G75*
G03*
X11019500Y-7178800I-50000J0D01*
G01*
X10919500Y-7382800D02*
X11019500Y-7482800D01*
X11019500Y-7382800D02*
X10919500Y-7482800D01*
X11019500Y-7432800D02*
G75*
G03*
X11019500Y-7432800I-50000J0D01*
G01*
X10919500Y-7636800D02*
X11019500Y-7736800D01*
X11019500Y-7636800D02*
X10919500Y-7736800D01*
X11019500Y-7686800D02*
G75*
G03*
X11019500Y-7686800I-50000J0D01*
G01*
X10919500Y-7890800D02*
X11019500Y-7990800D01*
X11019500Y-7890800D02*
X10919500Y-7990800D01*
X11019500Y-7940800D02*
G75*
G03*
X11019500Y-7940800I-50000J0D01*
G01*
X10919500Y-8144800D02*
X11019500Y-8244800D01*
X11019500Y-8144800D02*
X10919500Y-8244800D01*
X11019500Y-8194800D02*
G75*
G03*
X11019500Y-8194800I-50000J0D01*
G01*
X10919500Y-8398800D02*
X11019500Y-8498800D01*
X11019500Y-8398800D02*
X10919500Y-8498800D01*
X11019500Y-8448800D02*
G75*
G03*
X11019500Y-8448800I-50000J0D01*
G01*
X10919500Y-8652800D02*
X11019500Y-8752800D01*
X11019500Y-8652800D02*
X10919500Y-8752800D01*
X11019500Y-8702800D02*
G75*
G03*
X11019500Y-8702800I-50000J0D01*
G01*
X10919500Y-8906800D02*
X11019500Y-9006800D01*
X11019500Y-8906800D02*
X10919500Y-9006800D01*
X11019500Y-8956800D02*
G75*
G03*
X11019500Y-8956800I-50000J0D01*
G01*
X10919500Y-9160800D02*
X11019500Y-9260800D01*
X11019500Y-9160800D02*
X10919500Y-9260800D01*
X11019500Y-9210800D02*
G75*
G03*
X11019500Y-9210800I-50000J0D01*
G01*
X10919500Y-9414800D02*
X11019500Y-9514800D01*
X11019500Y-9414800D02*
X10919500Y-9514800D01*
X11019500Y-9464800D02*
G75*
G03*
X11019500Y-9464800I-50000J0D01*
G01*
X10919500Y-9668800D02*
X11019500Y-9768800D01*
X11019500Y-9668800D02*
X10919500Y-9768800D01*
X11019500Y-9718800D02*
G75*
G03*
X11019500Y-9718800I-50000J0D01*
G01*
X10919500Y-9922800D02*
X11019500Y-10022800D01*
X11019500Y-9922800D02*
X10919500Y-10022800D01*
X11019500Y-9972800D02*
G75*
G03*
X11019500Y-9972800I-50000J0D01*
G01*
X10919500Y-10176800D02*
X11019500Y-10276800D01*
X11019500Y-10176800D02*
X10919500Y-10276800D01*
X11019500Y-10226800D02*
G75*
G03*
X11019500Y-10226800I-50000J0D01*
G01*
X10919500Y-10430800D02*
X11019500Y-10530800D01*
X11019500Y-10430800D02*
X10919500Y-10530800D01*
X11019500Y-10480800D02*
G75*
G03*
X11019500Y-10480800I-50000J0D01*
G01*
X10919500Y-10684800D02*
X11019500Y-10784800D01*
X11019500Y-10684800D02*
X10919500Y-10784800D01*
X11019500Y-10734800D02*
G75*
G03*
X11019500Y-10734800I-50000J0D01*
G01*
X10919500Y-10938800D02*
X11019500Y-11038800D01*
X11019500Y-10938800D02*
X10919500Y-11038800D01*
X11019500Y-10988800D02*
G75*
G03*
X11019500Y-10988800I-50000J0D01*
G01*
X11133300Y-12055000D02*
X11233300Y-12155000D01*
X11233300Y-12055000D02*
X11133300Y-12155000D01*
X11233300Y-12105000D02*
G75*
G03*
X11233300Y-12105000I-50000J0D01*
G01*
X11387300Y-12055000D02*
X11487300Y-12155000D01*
X11487300Y-12055000D02*
X11387300Y-12155000D01*
X11487300Y-12105000D02*
G75*
G03*
X11487300Y-12105000I-50000J0D01*
G01*
X11607000Y-8609100D02*
X11707000Y-8709100D01*
X11707000Y-8609100D02*
X11607000Y-8709100D01*
X11707000Y-8659100D02*
G75*
G03*
X11707000Y-8659100I-50000J0D01*
G01*
X11610700Y-9125750D02*
X11710700Y-9225750D01*
X11710700Y-9125750D02*
X11610700Y-9225750D01*
X11710700Y-9175750D02*
G75*
G03*
X11710700Y-9175750I-50000J0D01*
G01*
X11610700Y-9379750D02*
X11710700Y-9479750D01*
X11710700Y-9379750D02*
X11610700Y-9479750D01*
X11710700Y-9429750D02*
G75*
G03*
X11710700Y-9429750I-50000J0D01*
G01*
X11610700Y-9633750D02*
X11710700Y-9733750D01*
X11710700Y-9633750D02*
X11610700Y-9733750D01*
X11710700Y-9683750D02*
G75*
G03*
X11710700Y-9683750I-50000J0D01*
G01*
X11641300Y-12055000D02*
X11741300Y-12155000D01*
X11741300Y-12055000D02*
X11641300Y-12155000D01*
X11741300Y-12105000D02*
G75*
G03*
X11741300Y-12105000I-50000J0D01*
G01*
X11824800Y-8157400D02*
X11924800Y-8257400D01*
X11924800Y-8157400D02*
X11824800Y-8257400D01*
X11924800Y-8207400D02*
G75*
G03*
X11924800Y-8207400I-50000J0D01*
G01*
X11864700Y-9125750D02*
X11964700Y-9225750D01*
X11964700Y-9125750D02*
X11864700Y-9225750D01*
X11964700Y-9175750D02*
G75*
G03*
X11964700Y-9175750I-50000J0D01*
G01*
X11864700Y-9379750D02*
X11964700Y-9479750D01*
X11964700Y-9379750D02*
X11864700Y-9479750D01*
X11964700Y-9429750D02*
G75*
G03*
X11964700Y-9429750I-50000J0D01*
G01*
X11864700Y-9633750D02*
X11964700Y-9733750D01*
X11964700Y-9633750D02*
X11864700Y-9733750D01*
X11964700Y-9683750D02*
G75*
G03*
X11964700Y-9683750I-50000J0D01*
G01*
X12078800Y-8157400D02*
X12178800Y-8257400D01*
X12178800Y-8157400D02*
X12078800Y-8257400D01*
X12178800Y-8207400D02*
G75*
G03*
X12178800Y-8207400I-50000J0D01*
G01*
X12332800Y-8157400D02*
X12432800Y-8257400D01*
X12432800Y-8157400D02*
X12332800Y-8257400D01*
X12432800Y-8207400D02*
G75*
G03*
X12432800Y-8207400I-50000J0D01*
G01*
X12874500Y-12028750D02*
X12974500Y-12128750D01*
X12974500Y-12028750D02*
X12874500Y-12128750D01*
X12974500Y-12078750D02*
G75*
G03*
X12974500Y-12078750I-50000J0D01*
G01*
X13128500Y-12028750D02*
X13228500Y-12128750D01*
X13228500Y-12028750D02*
X13128500Y-12128750D01*
X13228500Y-12078750D02*
G75*
G03*
X13228500Y-12078750I-50000J0D01*
G01*
X13198600Y-10710900D02*
X13298600Y-10810900D01*
X13298600Y-10710900D02*
X13198600Y-10810900D01*
X13298600Y-10760900D02*
G75*
G03*
X13298600Y-10760900I-50000J0D01*
G01*
X13382500Y-12028750D02*
X13482500Y-12128750D01*
X13482500Y-12028750D02*
X13382500Y-12128750D01*
X13482500Y-12078750D02*
G75*
G03*
X13482500Y-12078750I-50000J0D01*
G01*
X14525600Y-11970950D02*
X14625600Y-12070950D01*
X14625600Y-11970950D02*
X14525600Y-12070950D01*
X14625600Y-12020950D02*
G75*
G03*
X14625600Y-12020950I-50000J0D01*
G01*
X14779600Y-11970950D02*
X14879600Y-12070950D01*
X14879600Y-11970950D02*
X14779600Y-12070950D01*
X14879600Y-12020950D02*
G75*
G03*
X14879600Y-12020950I-50000J0D01*
G01*
X14894500Y-5357050D02*
X14994500Y-5457050D01*
X14994500Y-5357050D02*
X14894500Y-5457050D01*
X14994500Y-5407050D02*
G75*
G03*
X14994500Y-5407050I-50000J0D01*
G01*
X15021200Y-6416300D02*
X15121200Y-6516300D01*
X15121200Y-6416300D02*
X15021200Y-6516300D01*
X15121200Y-6466300D02*
G75*
G03*
X15121200Y-6466300I-50000J0D01*
G01*
X15021200Y-6670300D02*
X15121200Y-6770300D01*
X15121200Y-6670300D02*
X15021200Y-6770300D01*
X15121200Y-6720300D02*
G75*
G03*
X15121200Y-6720300I-50000J0D01*
G01*
X15021200Y-6924300D02*
X15121200Y-7024300D01*
X15121200Y-6924300D02*
X15021200Y-7024300D01*
X15121200Y-6974300D02*
G75*
G03*
X15121200Y-6974300I-50000J0D01*
G01*
X15021200Y-7178300D02*
X15121200Y-7278300D01*
X15121200Y-7178300D02*
X15021200Y-7278300D01*
X15121200Y-7228300D02*
G75*
G03*
X15121200Y-7228300I-50000J0D01*
G01*
X15021200Y-7432300D02*
X15121200Y-7532300D01*
X15121200Y-7432300D02*
X15021200Y-7532300D01*
X15121200Y-7482300D02*
G75*
G03*
X15121200Y-7482300I-50000J0D01*
G01*
X15021200Y-7686300D02*
X15121200Y-7786300D01*
X15121200Y-7686300D02*
X15021200Y-7786300D01*
X15121200Y-7736300D02*
G75*
G03*
X15121200Y-7736300I-50000J0D01*
G01*
X15021200Y-7940300D02*
X15121200Y-8040300D01*
X15121200Y-7940300D02*
X15021200Y-8040300D01*
X15121200Y-7990300D02*
G75*
G03*
X15121200Y-7990300I-50000J0D01*
G01*
X15021200Y-8194300D02*
X15121200Y-8294300D01*
X15121200Y-8194300D02*
X15021200Y-8294300D01*
X15121200Y-8244300D02*
G75*
G03*
X15121200Y-8244300I-50000J0D01*
G01*
X15021200Y-8448300D02*
X15121200Y-8548300D01*
X15121200Y-8448300D02*
X15021200Y-8548300D01*
X15121200Y-8498300D02*
G75*
G03*
X15121200Y-8498300I-50000J0D01*
G01*
X15021200Y-8702300D02*
X15121200Y-8802300D01*
X15121200Y-8702300D02*
X15021200Y-8802300D01*
X15121200Y-8752300D02*
G75*
G03*
X15121200Y-8752300I-50000J0D01*
G01*
X15021200Y-8956300D02*
X15121200Y-9056300D01*
X15121200Y-8956300D02*
X15021200Y-9056300D01*
X15121200Y-9006300D02*
G75*
G03*
X15121200Y-9006300I-50000J0D01*
G01*
X15021200Y-9210300D02*
X15121200Y-9310300D01*
X15121200Y-9210300D02*
X15021200Y-9310300D01*
X15121200Y-9260300D02*
G75*
G03*
X15121200Y-9260300I-50000J0D01*
G01*
X15021200Y-9464300D02*
X15121200Y-9564300D01*
X15121200Y-9464300D02*
X15021200Y-9564300D01*
X15121200Y-9514300D02*
G75*
G03*
X15121200Y-9514300I-50000J0D01*
G01*
X15021200Y-9718300D02*
X15121200Y-9818300D01*
X15121200Y-9718300D02*
X15021200Y-9818300D01*
X15121200Y-9768300D02*
G75*
G03*
X15121200Y-9768300I-50000J0D01*
G01*
X15021200Y-9972300D02*
X15121200Y-10072300D01*
X15121200Y-9972300D02*
X15021200Y-10072300D01*
X15121200Y-10022300D02*
G75*
G03*
X15121200Y-10022300I-50000J0D01*
G01*
X15033600Y-11970950D02*
X15133600Y-12070950D01*
X15133600Y-11970950D02*
X15033600Y-12070950D01*
X15133600Y-12020950D02*
G75*
G03*
X15133600Y-12020950I-50000J0D01*
G01*
X15973800Y-11402700D02*
X16073800Y-11502700D01*
X16073800Y-11402700D02*
X15973800Y-11502700D01*
X16073800Y-11452700D02*
G75*
G03*
X16073800Y-11452700I-50000J0D01*
G01*
X15973800Y-11656700D02*
X16073800Y-11756700D01*
X16073800Y-11656700D02*
X15973800Y-11756700D01*
X16073800Y-11706700D02*
G75*
G03*
X16073800Y-11706700I-50000J0D01*
G01*
X16545200Y-6416300D02*
X16645200Y-6516300D01*
X16645200Y-6416300D02*
X16545200Y-6516300D01*
X16645200Y-6466300D02*
G75*
G03*
X16645200Y-6466300I-50000J0D01*
G01*
X16545200Y-6670300D02*
X16645200Y-6770300D01*
X16645200Y-6670300D02*
X16545200Y-6770300D01*
X16645200Y-6720300D02*
G75*
G03*
X16645200Y-6720300I-50000J0D01*
G01*
X16545200Y-6924300D02*
X16645200Y-7024300D01*
X16645200Y-6924300D02*
X16545200Y-7024300D01*
X16645200Y-6974300D02*
G75*
G03*
X16645200Y-6974300I-50000J0D01*
G01*
X16545200Y-7178300D02*
X16645200Y-7278300D01*
X16645200Y-7178300D02*
X16545200Y-7278300D01*
X16645200Y-7228300D02*
G75*
G03*
X16645200Y-7228300I-50000J0D01*
G01*
X16545200Y-7432300D02*
X16645200Y-7532300D01*
X16645200Y-7432300D02*
X16545200Y-7532300D01*
X16645200Y-7482300D02*
G75*
G03*
X16645200Y-7482300I-50000J0D01*
G01*
X16545200Y-7686300D02*
X16645200Y-7786300D01*
X16645200Y-7686300D02*
X16545200Y-7786300D01*
X16645200Y-7736300D02*
G75*
G03*
X16645200Y-7736300I-50000J0D01*
G01*
X16545200Y-7940300D02*
X16645200Y-8040300D01*
X16645200Y-7940300D02*
X16545200Y-8040300D01*
X16645200Y-7990300D02*
G75*
G03*
X16645200Y-7990300I-50000J0D01*
G01*
X16545200Y-8194300D02*
X16645200Y-8294300D01*
X16645200Y-8194300D02*
X16545200Y-8294300D01*
X16645200Y-8244300D02*
G75*
G03*
X16645200Y-8244300I-50000J0D01*
G01*
X16545200Y-8448300D02*
X16645200Y-8548300D01*
X16645200Y-8448300D02*
X16545200Y-8548300D01*
X16645200Y-8498300D02*
G75*
G03*
X16645200Y-8498300I-50000J0D01*
G01*
X16545200Y-8702300D02*
X16645200Y-8802300D01*
X16645200Y-8702300D02*
X16545200Y-8802300D01*
X16645200Y-8752300D02*
G75*
G03*
X16645200Y-8752300I-50000J0D01*
G01*
X16545200Y-8956300D02*
X16645200Y-9056300D01*
X16645200Y-8956300D02*
X16545200Y-9056300D01*
X16645200Y-9006300D02*
G75*
G03*
X16645200Y-9006300I-50000J0D01*
G01*
X16545200Y-9210300D02*
X16645200Y-9310300D01*
X16645200Y-9210300D02*
X16545200Y-9310300D01*
X16645200Y-9260300D02*
G75*
G03*
X16645200Y-9260300I-50000J0D01*
G01*
X16545200Y-9464300D02*
X16645200Y-9564300D01*
X16645200Y-9464300D02*
X16545200Y-9564300D01*
X16645200Y-9514300D02*
G75*
G03*
X16645200Y-9514300I-50000J0D01*
G01*
X16545200Y-9718300D02*
X16645200Y-9818300D01*
X16645200Y-9718300D02*
X16545200Y-9818300D01*
X16645200Y-9768300D02*
G75*
G03*
X16645200Y-9768300I-50000J0D01*
G01*
X16545200Y-9972300D02*
X16645200Y-10072300D01*
X16645200Y-9972300D02*
X16545200Y-10072300D01*
X16645200Y-10022300D02*
G75*
G03*
X16645200Y-10022300I-50000J0D01*
G01*
X17097600Y-11970500D02*
X17197600Y-12070500D01*
X17197600Y-11970500D02*
X17097600Y-12070500D01*
X17197600Y-12020500D02*
G75*
G03*
X17197600Y-12020500I-50000J0D01*
G01*
X17351600Y-11970500D02*
X17451600Y-12070500D01*
X17451600Y-11970500D02*
X17351600Y-12070500D01*
X17451600Y-12020500D02*
G75*
G03*
X17451600Y-12020500I-50000J0D01*
G01*
X17605600Y-11970500D02*
X17705600Y-12070500D01*
X17705600Y-11970500D02*
X17605600Y-12070500D01*
X17705600Y-12020500D02*
G75*
G03*
X17705600Y-12020500I-50000J0D01*
G01*
X17908900Y-6007400D02*
X18008900Y-6107400D01*
X18008900Y-6007400D02*
X17908900Y-6107400D01*
X18008900Y-6057400D02*
G75*
G03*
X18008900Y-6057400I-50000J0D01*
G01*
D11*
X17998900Y-6157400D02*
X17998900Y-5957400D01*
X17918900Y-6157400D02*
X17918900Y-5957400D01*
X17998900Y-5957400D02*
G75*
G03*
X17918900Y-5957400I-40000J0D01*
G01*
X17918900Y-6157400D02*
G75*
G03*
X17998900Y-6157400I40000J0D01*
G01*
D17*
X18208900Y-5537400D02*
X18308900Y-5637400D01*
X18308900Y-5537400D02*
X18208900Y-5637400D01*
X18308900Y-5587400D02*
G75*
G03*
X18308900Y-5587400I-50000J0D01*
G01*
D11*
X18358900Y-5547400D02*
X18158900Y-5547400D01*
X18358900Y-5627400D02*
X18158900Y-5627400D01*
X18158900Y-5547400D02*
G75*
G03*
X18158900Y-5627400I0J-40000D01*
G01*
X18358900Y-5627400D02*
G75*
G03*
X18358900Y-5547400I0J40000D01*
G01*
D17*
X18508900Y-6007400D02*
X18608900Y-6107400D01*
X18608900Y-6007400D02*
X18508900Y-6107400D01*
X18608900Y-6057400D02*
G75*
G03*
X18608900Y-6057400I-50000J0D01*
G01*
D11*
X18598900Y-6157400D02*
X18598900Y-5957400D01*
X18518900Y-6157400D02*
X18518900Y-5957400D01*
X18598900Y-5957400D02*
G75*
G03*
X18518900Y-5957400I-40000J0D01*
G01*
X18518900Y-6157400D02*
G75*
G03*
X18598900Y-6157400I40000J0D01*
G01*
D17*
X18532800Y-11979300D02*
X18632800Y-12079300D01*
X18632800Y-11979300D02*
X18532800Y-12079300D01*
X18632800Y-12029300D02*
G75*
G03*
X18632800Y-12029300I-50000J0D01*
G01*
X18786800Y-11979300D02*
X18886800Y-12079300D01*
X18886800Y-11979300D02*
X18786800Y-12079300D01*
X18886800Y-12029300D02*
G75*
G03*
X18886800Y-12029300I-50000J0D01*
G01*
X19040800Y-11979300D02*
X19140800Y-12079300D01*
X19140800Y-11979300D02*
X19040800Y-12079300D01*
X19140800Y-12029300D02*
G75*
G03*
X19140800Y-12029300I-50000J0D01*
G01*
X19046300Y-7609517D02*
X19146300Y-7709517D01*
X19146300Y-7609517D02*
X19046300Y-7709517D01*
X19146300Y-7659517D02*
G75*
G03*
X19146300Y-7659517I-50000J0D01*
G01*
X19046300Y-7863517D02*
X19146300Y-7963517D01*
X19146300Y-7863517D02*
X19046300Y-7963517D01*
X19146300Y-7913517D02*
G75*
G03*
X19146300Y-7913517I-50000J0D01*
G01*
X19046300Y-8117517D02*
X19146300Y-8217517D01*
X19146300Y-8117517D02*
X19046300Y-8217517D01*
X19146300Y-8167517D02*
G75*
G03*
X19146300Y-8167517I-50000J0D01*
G01*
X19046300Y-8371517D02*
X19146300Y-8471517D01*
X19146300Y-8371517D02*
X19046300Y-8471517D01*
X19146300Y-8421517D02*
G75*
G03*
X19146300Y-8421517I-50000J0D01*
G01*
X19046300Y-8625517D02*
X19146300Y-8725517D01*
X19146300Y-8625517D02*
X19046300Y-8725517D01*
X19146300Y-8675517D02*
G75*
G03*
X19146300Y-8675517I-50000J0D01*
G01*
X19046300Y-8879517D02*
X19146300Y-8979517D01*
X19146300Y-8879517D02*
X19046300Y-8979517D01*
X19146300Y-8929517D02*
G75*
G03*
X19146300Y-8929517I-50000J0D01*
G01*
X19046300Y-9133517D02*
X19146300Y-9233517D01*
X19146300Y-9133517D02*
X19046300Y-9233517D01*
X19146300Y-9183517D02*
G75*
G03*
X19146300Y-9183517I-50000J0D01*
G01*
X19046300Y-9387517D02*
X19146300Y-9487517D01*
X19146300Y-9387517D02*
X19046300Y-9487517D01*
X19146300Y-9437517D02*
G75*
G03*
X19146300Y-9437517I-50000J0D01*
G01*
X19046300Y-9641517D02*
X19146300Y-9741517D01*
X19146300Y-9641517D02*
X19046300Y-9741517D01*
X19146300Y-9691517D02*
G75*
G03*
X19146300Y-9691517I-50000J0D01*
G01*
X19046300Y-9895517D02*
X19146300Y-9995517D01*
X19146300Y-9895517D02*
X19046300Y-9995517D01*
X19146300Y-9945517D02*
G75*
G03*
X19146300Y-9945517I-50000J0D01*
G01*
D18*
X17178800Y-5498600D02*
X17288800Y-5608600D01*
X17288800Y-5498600D02*
X17178800Y-5608600D01*
X17233800Y-5498600D02*
X17233800Y-5608600D01*
X17178800Y-5553600D02*
X17288800Y-5553600D01*
D11*
X17328800Y-5508600D02*
X17138800Y-5508600D01*
X17328800Y-5598600D02*
X17138800Y-5598600D01*
X17138800Y-5508600D02*
G75*
G03*
X17138800Y-5598600I0J-45000D01*
G01*
X17328800Y-5598600D02*
G75*
G03*
X17328800Y-5508600I0J45000D01*
G01*
D18*
X17182800Y-5960600D02*
X17292800Y-6070600D01*
X17292800Y-5960600D02*
X17182800Y-6070600D01*
X17237800Y-5960600D02*
X17237800Y-6070600D01*
X17182800Y-6015600D02*
X17292800Y-6015600D01*
D11*
X17332800Y-5970600D02*
X17142800Y-5970600D01*
X17332800Y-6060600D02*
X17142800Y-6060600D01*
X17142800Y-5970600D02*
G75*
G03*
X17142800Y-6060600I0J-45000D01*
G01*
X17332800Y-6060600D02*
G75*
G03*
X17332800Y-5970600I0J45000D01*
G01*
D19*
X10236533Y-5264000D02*
X10556533Y-5584000D01*
X10556533Y-5264000D02*
X10236533Y-5584000D01*
X10509671Y-5537138D02*
X10509671Y-5310862D01*
X10283395Y-5310862D01*
X10283395Y-5537138D01*
X10509671Y-5537138D01*
X10236533Y-11614000D02*
X10556533Y-11934000D01*
X10556533Y-11614000D02*
X10236533Y-11934000D01*
X10509671Y-11887138D02*
X10509671Y-11660862D01*
X10283395Y-11660862D01*
X10283395Y-11887138D01*
X10509671Y-11887138D01*
D11*
X10112819Y-12884576D02*
X10112819Y-12684576D01*
X10160438Y-12684576D01*
X10189010Y-12694100D01*
X10208057Y-12713148D01*
X10217581Y-12732195D01*
X10227105Y-12770290D01*
X10227105Y-12798862D01*
X10217581Y-12836957D01*
X10208057Y-12856005D01*
X10189010Y-12875052D01*
X10160438Y-12884576D01*
X10112819Y-12884576D01*
X10312819Y-12884576D02*
X10312819Y-12751243D01*
X10312819Y-12789338D02*
X10322343Y-12770290D01*
X10331867Y-12760767D01*
X10350914Y-12751243D01*
X10369962Y-12751243D01*
X10436629Y-12884576D02*
X10436629Y-12751243D01*
X10436629Y-12684576D02*
X10427105Y-12694100D01*
X10436629Y-12703624D01*
X10446152Y-12694100D01*
X10436629Y-12684576D01*
X10436629Y-12703624D01*
X10560438Y-12884576D02*
X10541390Y-12875052D01*
X10531867Y-12856005D01*
X10531867Y-12684576D01*
X10665200Y-12884576D02*
X10646152Y-12875052D01*
X10636629Y-12856005D01*
X10636629Y-12684576D01*
X10893771Y-12884576D02*
X10893771Y-12684576D01*
X10960438Y-12827433D01*
X11027105Y-12684576D01*
X11027105Y-12884576D01*
X11208057Y-12884576D02*
X11208057Y-12779814D01*
X11198533Y-12760767D01*
X11179486Y-12751243D01*
X11141390Y-12751243D01*
X11122343Y-12760767D01*
X11208057Y-12875052D02*
X11189009Y-12884576D01*
X11141390Y-12884576D01*
X11122343Y-12875052D01*
X11112819Y-12856005D01*
X11112819Y-12836957D01*
X11122343Y-12817909D01*
X11141390Y-12808386D01*
X11189009Y-12808386D01*
X11208057Y-12798862D01*
X11303295Y-12751243D02*
X11303295Y-12951243D01*
X11303295Y-12760767D02*
X11322343Y-12751243D01*
X11360438Y-12751243D01*
X11379486Y-12760767D01*
X11389009Y-12770290D01*
X11398533Y-12789338D01*
X11398533Y-12846481D01*
X11389009Y-12865528D01*
X11379486Y-12875052D01*
X11360438Y-12884576D01*
X11322343Y-12884576D01*
X11303295Y-12875052D01*
X11484248Y-12865528D02*
X11493771Y-12875052D01*
X11484248Y-12884576D01*
X11474724Y-12875052D01*
X11484248Y-12865528D01*
X11484248Y-12884576D01*
X11484248Y-12760767D02*
X11493771Y-12770290D01*
X11484248Y-12779814D01*
X11474724Y-12770290D01*
X11484248Y-12760767D01*
X11484248Y-12779814D01*
D12*
X9815200Y-13194100D02*
X9855200Y-13234100D01*
X9855200Y-13194100D02*
X9815200Y-13234100D01*
D11*
X10150914Y-13104576D02*
X10169962Y-13104576D01*
X10189010Y-13114100D01*
X10198533Y-13123624D01*
X10208057Y-13142671D01*
X10217581Y-13180767D01*
X10217581Y-13228386D01*
X10208057Y-13266481D01*
X10198533Y-13285528D01*
X10189010Y-13295052D01*
X10169962Y-13304576D01*
X10150914Y-13304576D01*
X10131867Y-13295052D01*
X10122343Y-13285528D01*
X10112819Y-13266481D01*
X10103295Y-13228386D01*
X10103295Y-13180767D01*
X10112819Y-13142671D01*
X10122343Y-13123624D01*
X10131867Y-13114100D01*
X10150914Y-13104576D01*
X10303295Y-13285528D02*
X10312819Y-13295052D01*
X10303295Y-13304576D01*
X10293771Y-13295052D01*
X10303295Y-13285528D01*
X10303295Y-13304576D01*
X10484248Y-13171243D02*
X10484248Y-13304576D01*
X10436629Y-13095052D02*
X10389010Y-13237909D01*
X10512819Y-13237909D01*
X10627105Y-13104576D02*
X10646152Y-13104576D01*
X10665200Y-13114100D01*
X10674724Y-13123624D01*
X10684248Y-13142671D01*
X10693771Y-13180767D01*
X10693771Y-13228386D01*
X10684248Y-13266481D01*
X10674724Y-13285528D01*
X10665200Y-13295052D01*
X10646152Y-13304576D01*
X10627105Y-13304576D01*
X10608057Y-13295052D01*
X10598533Y-13285528D01*
X10589010Y-13266481D01*
X10579486Y-13228386D01*
X10579486Y-13180767D01*
X10589010Y-13142671D01*
X10598533Y-13123624D01*
X10608057Y-13114100D01*
X10627105Y-13104576D01*
X10817581Y-13104576D02*
X10836629Y-13104576D01*
X10855676Y-13114100D01*
X10865200Y-13123624D01*
X10874724Y-13142671D01*
X10884248Y-13180767D01*
X10884248Y-13228386D01*
X10874724Y-13266481D01*
X10865200Y-13285528D01*
X10855676Y-13295052D01*
X10836629Y-13304576D01*
X10817581Y-13304576D01*
X10798533Y-13295052D01*
X10789010Y-13285528D01*
X10779486Y-13266481D01*
X10769962Y-13228386D01*
X10769962Y-13180767D01*
X10779486Y-13142671D01*
X10789010Y-13123624D01*
X10798533Y-13114100D01*
X10817581Y-13104576D01*
X10969962Y-13304576D02*
X10969962Y-13171243D01*
X10969962Y-13190290D02*
X10979486Y-13180767D01*
X10998533Y-13171243D01*
X11027105Y-13171243D01*
X11046152Y-13180767D01*
X11055676Y-13199814D01*
X11055676Y-13304576D01*
X11055676Y-13199814D02*
X11065200Y-13180767D01*
X11084248Y-13171243D01*
X11112819Y-13171243D01*
X11131867Y-13180767D01*
X11141390Y-13199814D01*
X11141390Y-13304576D01*
X11236628Y-13304576D02*
X11236628Y-13171243D01*
X11236628Y-13190290D02*
X11246152Y-13180767D01*
X11265200Y-13171243D01*
X11293771Y-13171243D01*
X11312819Y-13180767D01*
X11322343Y-13199814D01*
X11322343Y-13304576D01*
X11322343Y-13199814D02*
X11331867Y-13180767D01*
X11350914Y-13171243D01*
X11379486Y-13171243D01*
X11398533Y-13180767D01*
X11408057Y-13199814D01*
X11408057Y-13304576D01*
X11798533Y-13095052D02*
X11627105Y-13352195D01*
X12055676Y-13104576D02*
X12074724Y-13104576D01*
X12093771Y-13114100D01*
X12103295Y-13123624D01*
X12112819Y-13142671D01*
X12122343Y-13180767D01*
X12122343Y-13228386D01*
X12112819Y-13266481D01*
X12103295Y-13285528D01*
X12093771Y-13295052D01*
X12074724Y-13304576D01*
X12055676Y-13304576D01*
X12036628Y-13295052D01*
X12027105Y-13285528D01*
X12017581Y-13266481D01*
X12008057Y-13228386D01*
X12008057Y-13180767D01*
X12017581Y-13142671D01*
X12027105Y-13123624D01*
X12036628Y-13114100D01*
X12055676Y-13104576D01*
X12208057Y-13285528D02*
X12217581Y-13295052D01*
X12208057Y-13304576D01*
X12198533Y-13295052D01*
X12208057Y-13285528D01*
X12208057Y-13304576D01*
X12341390Y-13104576D02*
X12360438Y-13104576D01*
X12379486Y-13114100D01*
X12389009Y-13123624D01*
X12398533Y-13142671D01*
X12408057Y-13180767D01*
X12408057Y-13228386D01*
X12398533Y-13266481D01*
X12389009Y-13285528D01*
X12379486Y-13295052D01*
X12360438Y-13304576D01*
X12341390Y-13304576D01*
X12322343Y-13295052D01*
X12312819Y-13285528D01*
X12303295Y-13266481D01*
X12293771Y-13228386D01*
X12293771Y-13180767D01*
X12303295Y-13142671D01*
X12312819Y-13123624D01*
X12322343Y-13114100D01*
X12341390Y-13104576D01*
X12598533Y-13304576D02*
X12484248Y-13304576D01*
X12541390Y-13304576D02*
X12541390Y-13104576D01*
X12522343Y-13133148D01*
X12503295Y-13152195D01*
X12484248Y-13161719D01*
X12779486Y-13104576D02*
X12684248Y-13104576D01*
X12674724Y-13199814D01*
X12684248Y-13190290D01*
X12703295Y-13180767D01*
X12750914Y-13180767D01*
X12769962Y-13190290D01*
X12779486Y-13199814D01*
X12789009Y-13218862D01*
X12789009Y-13266481D01*
X12779486Y-13285528D01*
X12769962Y-13295052D01*
X12750914Y-13304576D01*
X12703295Y-13304576D01*
X12684248Y-13295052D01*
X12674724Y-13285528D01*
X12855676Y-13104576D02*
X12989009Y-13104576D01*
X12903295Y-13304576D01*
X13055676Y-13104576D02*
X13055676Y-13142671D01*
X13131867Y-13104576D02*
X13131867Y-13142671D01*
X13427105Y-13380767D02*
X13417581Y-13371243D01*
X13398533Y-13342671D01*
X13389009Y-13323624D01*
X13379486Y-13295052D01*
X13369962Y-13247433D01*
X13369962Y-13209338D01*
X13379486Y-13161719D01*
X13389009Y-13133148D01*
X13398533Y-13114100D01*
X13417581Y-13085528D01*
X13427105Y-13076005D01*
X13608057Y-13304576D02*
X13493771Y-13304576D01*
X13550914Y-13304576D02*
X13550914Y-13104576D01*
X13531867Y-13133148D01*
X13512819Y-13152195D01*
X13493771Y-13161719D01*
X13846152Y-13304576D02*
X13846152Y-13104576D01*
X13931867Y-13304576D02*
X13931867Y-13199814D01*
X13922343Y-13180767D01*
X13903295Y-13171243D01*
X13874724Y-13171243D01*
X13855676Y-13180767D01*
X13846152Y-13190290D01*
X14055676Y-13304576D02*
X14036628Y-13295052D01*
X14027105Y-13285528D01*
X14017581Y-13266481D01*
X14017581Y-13209338D01*
X14027105Y-13190290D01*
X14036628Y-13180767D01*
X14055676Y-13171243D01*
X14084248Y-13171243D01*
X14103295Y-13180767D01*
X14112819Y-13190290D01*
X14122343Y-13209338D01*
X14122343Y-13266481D01*
X14112819Y-13285528D01*
X14103295Y-13295052D01*
X14084248Y-13304576D01*
X14055676Y-13304576D01*
X14236628Y-13304576D02*
X14217581Y-13295052D01*
X14208057Y-13276005D01*
X14208057Y-13104576D01*
X14389009Y-13295052D02*
X14369962Y-13304576D01*
X14331867Y-13304576D01*
X14312819Y-13295052D01*
X14303295Y-13276005D01*
X14303295Y-13199814D01*
X14312819Y-13180767D01*
X14331867Y-13171243D01*
X14369962Y-13171243D01*
X14389009Y-13180767D01*
X14398533Y-13199814D01*
X14398533Y-13218862D01*
X14303295Y-13237909D01*
X14465200Y-13380767D02*
X14474724Y-13371243D01*
X14493771Y-13342671D01*
X14503295Y-13323624D01*
X14512819Y-13295052D01*
X14522343Y-13247433D01*
X14522343Y-13209338D01*
X14512819Y-13161719D01*
X14503295Y-13133148D01*
X14493771Y-13114100D01*
X14474724Y-13085528D01*
X14465200Y-13076005D01*
D13*
X9855200Y-13478100D02*
G75*
G03*
X9855200Y-13478100I-35000J0D01*
G01*
D11*
X10150914Y-13368576D02*
X10169962Y-13368576D01*
X10189010Y-13378100D01*
X10198533Y-13387624D01*
X10208057Y-13406671D01*
X10217581Y-13444767D01*
X10217581Y-13492386D01*
X10208057Y-13530481D01*
X10198533Y-13549528D01*
X10189010Y-13559052D01*
X10169962Y-13568576D01*
X10150914Y-13568576D01*
X10131867Y-13559052D01*
X10122343Y-13549528D01*
X10112819Y-13530481D01*
X10103295Y-13492386D01*
X10103295Y-13444767D01*
X10112819Y-13406671D01*
X10122343Y-13387624D01*
X10131867Y-13378100D01*
X10150914Y-13368576D01*
X10303295Y-13549528D02*
X10312819Y-13559052D01*
X10303295Y-13568576D01*
X10293771Y-13559052D01*
X10303295Y-13549528D01*
X10303295Y-13568576D01*
X10379486Y-13368576D02*
X10512819Y-13368576D01*
X10427105Y-13568576D01*
X10627105Y-13368576D02*
X10646152Y-13368576D01*
X10665200Y-13378100D01*
X10674724Y-13387624D01*
X10684248Y-13406671D01*
X10693771Y-13444767D01*
X10693771Y-13492386D01*
X10684248Y-13530481D01*
X10674724Y-13549528D01*
X10665200Y-13559052D01*
X10646152Y-13568576D01*
X10627105Y-13568576D01*
X10608057Y-13559052D01*
X10598533Y-13549528D01*
X10589010Y-13530481D01*
X10579486Y-13492386D01*
X10579486Y-13444767D01*
X10589010Y-13406671D01*
X10598533Y-13387624D01*
X10608057Y-13378100D01*
X10627105Y-13368576D01*
X10817581Y-13368576D02*
X10836629Y-13368576D01*
X10855676Y-13378100D01*
X10865200Y-13387624D01*
X10874724Y-13406671D01*
X10884248Y-13444767D01*
X10884248Y-13492386D01*
X10874724Y-13530481D01*
X10865200Y-13549528D01*
X10855676Y-13559052D01*
X10836629Y-13568576D01*
X10817581Y-13568576D01*
X10798533Y-13559052D01*
X10789010Y-13549528D01*
X10779486Y-13530481D01*
X10769962Y-13492386D01*
X10769962Y-13444767D01*
X10779486Y-13406671D01*
X10789010Y-13387624D01*
X10798533Y-13378100D01*
X10817581Y-13368576D01*
X10969962Y-13568576D02*
X10969962Y-13435243D01*
X10969962Y-13454290D02*
X10979486Y-13444767D01*
X10998533Y-13435243D01*
X11027105Y-13435243D01*
X11046152Y-13444767D01*
X11055676Y-13463814D01*
X11055676Y-13568576D01*
X11055676Y-13463814D02*
X11065200Y-13444767D01*
X11084248Y-13435243D01*
X11112819Y-13435243D01*
X11131867Y-13444767D01*
X11141390Y-13463814D01*
X11141390Y-13568576D01*
X11236628Y-13568576D02*
X11236628Y-13435243D01*
X11236628Y-13454290D02*
X11246152Y-13444767D01*
X11265200Y-13435243D01*
X11293771Y-13435243D01*
X11312819Y-13444767D01*
X11322343Y-13463814D01*
X11322343Y-13568576D01*
X11322343Y-13463814D02*
X11331867Y-13444767D01*
X11350914Y-13435243D01*
X11379486Y-13435243D01*
X11398533Y-13444767D01*
X11408057Y-13463814D01*
X11408057Y-13568576D01*
X11798533Y-13359052D02*
X11627105Y-13616195D01*
X12055676Y-13368576D02*
X12074724Y-13368576D01*
X12093771Y-13378100D01*
X12103295Y-13387624D01*
X12112819Y-13406671D01*
X12122343Y-13444767D01*
X12122343Y-13492386D01*
X12112819Y-13530481D01*
X12103295Y-13549528D01*
X12093771Y-13559052D01*
X12074724Y-13568576D01*
X12055676Y-13568576D01*
X12036628Y-13559052D01*
X12027105Y-13549528D01*
X12017581Y-13530481D01*
X12008057Y-13492386D01*
X12008057Y-13444767D01*
X12017581Y-13406671D01*
X12027105Y-13387624D01*
X12036628Y-13378100D01*
X12055676Y-13368576D01*
X12208057Y-13549528D02*
X12217581Y-13559052D01*
X12208057Y-13568576D01*
X12198533Y-13559052D01*
X12208057Y-13549528D01*
X12208057Y-13568576D01*
X12341390Y-13368576D02*
X12360438Y-13368576D01*
X12379486Y-13378100D01*
X12389009Y-13387624D01*
X12398533Y-13406671D01*
X12408057Y-13444767D01*
X12408057Y-13492386D01*
X12398533Y-13530481D01*
X12389009Y-13549528D01*
X12379486Y-13559052D01*
X12360438Y-13568576D01*
X12341390Y-13568576D01*
X12322343Y-13559052D01*
X12312819Y-13549528D01*
X12303295Y-13530481D01*
X12293771Y-13492386D01*
X12293771Y-13444767D01*
X12303295Y-13406671D01*
X12312819Y-13387624D01*
X12322343Y-13378100D01*
X12341390Y-13368576D01*
X12484248Y-13387624D02*
X12493771Y-13378100D01*
X12512819Y-13368576D01*
X12560438Y-13368576D01*
X12579486Y-13378100D01*
X12589009Y-13387624D01*
X12598533Y-13406671D01*
X12598533Y-13425719D01*
X12589009Y-13454290D01*
X12474724Y-13568576D01*
X12598533Y-13568576D01*
X12665200Y-13368576D02*
X12798533Y-13368576D01*
X12712819Y-13568576D01*
X12960438Y-13368576D02*
X12922343Y-13368576D01*
X12903295Y-13378100D01*
X12893771Y-13387624D01*
X12874724Y-13416195D01*
X12865200Y-13454290D01*
X12865200Y-13530481D01*
X12874724Y-13549528D01*
X12884248Y-13559052D01*
X12903295Y-13568576D01*
X12941390Y-13568576D01*
X12960438Y-13559052D01*
X12969962Y-13549528D01*
X12979486Y-13530481D01*
X12979486Y-13482862D01*
X12969962Y-13463814D01*
X12960438Y-13454290D01*
X12941390Y-13444767D01*
X12903295Y-13444767D01*
X12884248Y-13454290D01*
X12874724Y-13463814D01*
X12865200Y-13482862D01*
X13055676Y-13368576D02*
X13055676Y-13406671D01*
X13131867Y-13368576D02*
X13131867Y-13406671D01*
X13427105Y-13644767D02*
X13417581Y-13635243D01*
X13398533Y-13606671D01*
X13389009Y-13587624D01*
X13379486Y-13559052D01*
X13369962Y-13511433D01*
X13369962Y-13473338D01*
X13379486Y-13425719D01*
X13389009Y-13397148D01*
X13398533Y-13378100D01*
X13417581Y-13349528D01*
X13427105Y-13340005D01*
X13484248Y-13368576D02*
X13608057Y-13368576D01*
X13541390Y-13444767D01*
X13569962Y-13444767D01*
X13589009Y-13454290D01*
X13598533Y-13463814D01*
X13608057Y-13482862D01*
X13608057Y-13530481D01*
X13598533Y-13549528D01*
X13589009Y-13559052D01*
X13569962Y-13568576D01*
X13512819Y-13568576D01*
X13493771Y-13559052D01*
X13484248Y-13549528D01*
X13779486Y-13435243D02*
X13779486Y-13568576D01*
X13731867Y-13359052D02*
X13684248Y-13501909D01*
X13808057Y-13501909D01*
X14036628Y-13568576D02*
X14036628Y-13368576D01*
X14122343Y-13568576D02*
X14122343Y-13463814D01*
X14112819Y-13444767D01*
X14093771Y-13435243D01*
X14065200Y-13435243D01*
X14046152Y-13444767D01*
X14036628Y-13454290D01*
X14246152Y-13568576D02*
X14227105Y-13559052D01*
X14217581Y-13549528D01*
X14208057Y-13530481D01*
X14208057Y-13473338D01*
X14217581Y-13454290D01*
X14227105Y-13444767D01*
X14246152Y-13435243D01*
X14274724Y-13435243D01*
X14293771Y-13444767D01*
X14303295Y-13454290D01*
X14312819Y-13473338D01*
X14312819Y-13530481D01*
X14303295Y-13549528D01*
X14293771Y-13559052D01*
X14274724Y-13568576D01*
X14246152Y-13568576D01*
X14427105Y-13568576D02*
X14408057Y-13559052D01*
X14398533Y-13540005D01*
X14398533Y-13368576D01*
X14579486Y-13559052D02*
X14560438Y-13568576D01*
X14522343Y-13568576D01*
X14503295Y-13559052D01*
X14493771Y-13540005D01*
X14493771Y-13463814D01*
X14503295Y-13444767D01*
X14522343Y-13435243D01*
X14560438Y-13435243D01*
X14579486Y-13444767D01*
X14589009Y-13463814D01*
X14589009Y-13482862D01*
X14493771Y-13501909D01*
X14665200Y-13559052D02*
X14684248Y-13568576D01*
X14722343Y-13568576D01*
X14741390Y-13559052D01*
X14750914Y-13540005D01*
X14750914Y-13530481D01*
X14741390Y-13511433D01*
X14722343Y-13501909D01*
X14693771Y-13501909D01*
X14674724Y-13492386D01*
X14665200Y-13473338D01*
X14665200Y-13463814D01*
X14674724Y-13444767D01*
X14693771Y-13435243D01*
X14722343Y-13435243D01*
X14741390Y-13444767D01*
X14817581Y-13644767D02*
X14827105Y-13635243D01*
X14846152Y-13606671D01*
X14855676Y-13587624D01*
X14865200Y-13559052D01*
X14874724Y-13511433D01*
X14874724Y-13473338D01*
X14865200Y-13425719D01*
X14855676Y-13397148D01*
X14846152Y-13378100D01*
X14827105Y-13349528D01*
X14817581Y-13340005D01*
D14*
X9817700Y-13704600D02*
X9817700Y-13779600D01*
X9780200Y-13742100D02*
X9855200Y-13742100D01*
D11*
X10150914Y-13632576D02*
X10169962Y-13632576D01*
X10189010Y-13642100D01*
X10198533Y-13651624D01*
X10208057Y-13670671D01*
X10217581Y-13708767D01*
X10217581Y-13756386D01*
X10208057Y-13794481D01*
X10198533Y-13813528D01*
X10189010Y-13823052D01*
X10169962Y-13832576D01*
X10150914Y-13832576D01*
X10131867Y-13823052D01*
X10122343Y-13813528D01*
X10112819Y-13794481D01*
X10103295Y-13756386D01*
X10103295Y-13708767D01*
X10112819Y-13670671D01*
X10122343Y-13651624D01*
X10131867Y-13642100D01*
X10150914Y-13632576D01*
X10303295Y-13813528D02*
X10312819Y-13823052D01*
X10303295Y-13832576D01*
X10293771Y-13823052D01*
X10303295Y-13813528D01*
X10303295Y-13832576D01*
X10379486Y-13632576D02*
X10512819Y-13632576D01*
X10427105Y-13832576D01*
X10684248Y-13632576D02*
X10589010Y-13632576D01*
X10579486Y-13727814D01*
X10589010Y-13718290D01*
X10608057Y-13708767D01*
X10655676Y-13708767D01*
X10674724Y-13718290D01*
X10684248Y-13727814D01*
X10693771Y-13746862D01*
X10693771Y-13794481D01*
X10684248Y-13813528D01*
X10674724Y-13823052D01*
X10655676Y-13832576D01*
X10608057Y-13832576D01*
X10589010Y-13823052D01*
X10579486Y-13813528D01*
X10817581Y-13632576D02*
X10836629Y-13632576D01*
X10855676Y-13642100D01*
X10865200Y-13651624D01*
X10874724Y-13670671D01*
X10884248Y-13708767D01*
X10884248Y-13756386D01*
X10874724Y-13794481D01*
X10865200Y-13813528D01*
X10855676Y-13823052D01*
X10836629Y-13832576D01*
X10817581Y-13832576D01*
X10798533Y-13823052D01*
X10789010Y-13813528D01*
X10779486Y-13794481D01*
X10769962Y-13756386D01*
X10769962Y-13708767D01*
X10779486Y-13670671D01*
X10789010Y-13651624D01*
X10798533Y-13642100D01*
X10817581Y-13632576D01*
X10969962Y-13832576D02*
X10969962Y-13699243D01*
X10969962Y-13718290D02*
X10979486Y-13708767D01*
X10998533Y-13699243D01*
X11027105Y-13699243D01*
X11046152Y-13708767D01*
X11055676Y-13727814D01*
X11055676Y-13832576D01*
X11055676Y-13727814D02*
X11065200Y-13708767D01*
X11084248Y-13699243D01*
X11112819Y-13699243D01*
X11131867Y-13708767D01*
X11141390Y-13727814D01*
X11141390Y-13832576D01*
X11236628Y-13832576D02*
X11236628Y-13699243D01*
X11236628Y-13718290D02*
X11246152Y-13708767D01*
X11265200Y-13699243D01*
X11293771Y-13699243D01*
X11312819Y-13708767D01*
X11322343Y-13727814D01*
X11322343Y-13832576D01*
X11322343Y-13727814D02*
X11331867Y-13708767D01*
X11350914Y-13699243D01*
X11379486Y-13699243D01*
X11398533Y-13708767D01*
X11408057Y-13727814D01*
X11408057Y-13832576D01*
X11798533Y-13623052D02*
X11627105Y-13880195D01*
X12055676Y-13632576D02*
X12074724Y-13632576D01*
X12093771Y-13642100D01*
X12103295Y-13651624D01*
X12112819Y-13670671D01*
X12122343Y-13708767D01*
X12122343Y-13756386D01*
X12112819Y-13794481D01*
X12103295Y-13813528D01*
X12093771Y-13823052D01*
X12074724Y-13832576D01*
X12055676Y-13832576D01*
X12036628Y-13823052D01*
X12027105Y-13813528D01*
X12017581Y-13794481D01*
X12008057Y-13756386D01*
X12008057Y-13708767D01*
X12017581Y-13670671D01*
X12027105Y-13651624D01*
X12036628Y-13642100D01*
X12055676Y-13632576D01*
X12208057Y-13813528D02*
X12217581Y-13823052D01*
X12208057Y-13832576D01*
X12198533Y-13823052D01*
X12208057Y-13813528D01*
X12208057Y-13832576D01*
X12341390Y-13632576D02*
X12360438Y-13632576D01*
X12379486Y-13642100D01*
X12389009Y-13651624D01*
X12398533Y-13670671D01*
X12408057Y-13708767D01*
X12408057Y-13756386D01*
X12398533Y-13794481D01*
X12389009Y-13813528D01*
X12379486Y-13823052D01*
X12360438Y-13832576D01*
X12341390Y-13832576D01*
X12322343Y-13823052D01*
X12312819Y-13813528D01*
X12303295Y-13794481D01*
X12293771Y-13756386D01*
X12293771Y-13708767D01*
X12303295Y-13670671D01*
X12312819Y-13651624D01*
X12322343Y-13642100D01*
X12341390Y-13632576D01*
X12484248Y-13651624D02*
X12493771Y-13642100D01*
X12512819Y-13632576D01*
X12560438Y-13632576D01*
X12579486Y-13642100D01*
X12589009Y-13651624D01*
X12598533Y-13670671D01*
X12598533Y-13689719D01*
X12589009Y-13718290D01*
X12474724Y-13832576D01*
X12598533Y-13832576D01*
X12693771Y-13832576D02*
X12731867Y-13832576D01*
X12750914Y-13823052D01*
X12760438Y-13813528D01*
X12779486Y-13784957D01*
X12789009Y-13746862D01*
X12789009Y-13670671D01*
X12779486Y-13651624D01*
X12769962Y-13642100D01*
X12750914Y-13632576D01*
X12712819Y-13632576D01*
X12693771Y-13642100D01*
X12684248Y-13651624D01*
X12674724Y-13670671D01*
X12674724Y-13718290D01*
X12684248Y-13737338D01*
X12693771Y-13746862D01*
X12712819Y-13756386D01*
X12750914Y-13756386D01*
X12769962Y-13746862D01*
X12779486Y-13737338D01*
X12789009Y-13718290D01*
X12969962Y-13632576D02*
X12874724Y-13632576D01*
X12865200Y-13727814D01*
X12874724Y-13718290D01*
X12893771Y-13708767D01*
X12941390Y-13708767D01*
X12960438Y-13718290D01*
X12969962Y-13727814D01*
X12979486Y-13746862D01*
X12979486Y-13794481D01*
X12969962Y-13813528D01*
X12960438Y-13823052D01*
X12941390Y-13832576D01*
X12893771Y-13832576D01*
X12874724Y-13823052D01*
X12865200Y-13813528D01*
X13055676Y-13632576D02*
X13055676Y-13670671D01*
X13131867Y-13632576D02*
X13131867Y-13670671D01*
X13427105Y-13908767D02*
X13417581Y-13899243D01*
X13398533Y-13870671D01*
X13389009Y-13851624D01*
X13379486Y-13823052D01*
X13369962Y-13775433D01*
X13369962Y-13737338D01*
X13379486Y-13689719D01*
X13389009Y-13661148D01*
X13398533Y-13642100D01*
X13417581Y-13613528D01*
X13427105Y-13604005D01*
X13589009Y-13632576D02*
X13550914Y-13632576D01*
X13531867Y-13642100D01*
X13522343Y-13651624D01*
X13503295Y-13680195D01*
X13493771Y-13718290D01*
X13493771Y-13794481D01*
X13503295Y-13813528D01*
X13512819Y-13823052D01*
X13531867Y-13832576D01*
X13569962Y-13832576D01*
X13589009Y-13823052D01*
X13598533Y-13813528D01*
X13608057Y-13794481D01*
X13608057Y-13746862D01*
X13598533Y-13727814D01*
X13589009Y-13718290D01*
X13569962Y-13708767D01*
X13531867Y-13708767D01*
X13512819Y-13718290D01*
X13503295Y-13727814D01*
X13493771Y-13746862D01*
X13846152Y-13832576D02*
X13846152Y-13632576D01*
X13931867Y-13832576D02*
X13931867Y-13727814D01*
X13922343Y-13708767D01*
X13903295Y-13699243D01*
X13874724Y-13699243D01*
X13855676Y-13708767D01*
X13846152Y-13718290D01*
X14055676Y-13832576D02*
X14036628Y-13823052D01*
X14027105Y-13813528D01*
X14017581Y-13794481D01*
X14017581Y-13737338D01*
X14027105Y-13718290D01*
X14036628Y-13708767D01*
X14055676Y-13699243D01*
X14084248Y-13699243D01*
X14103295Y-13708767D01*
X14112819Y-13718290D01*
X14122343Y-13737338D01*
X14122343Y-13794481D01*
X14112819Y-13813528D01*
X14103295Y-13823052D01*
X14084248Y-13832576D01*
X14055676Y-13832576D01*
X14236628Y-13832576D02*
X14217581Y-13823052D01*
X14208057Y-13804005D01*
X14208057Y-13632576D01*
X14389009Y-13823052D02*
X14369962Y-13832576D01*
X14331867Y-13832576D01*
X14312819Y-13823052D01*
X14303295Y-13804005D01*
X14303295Y-13727814D01*
X14312819Y-13708767D01*
X14331867Y-13699243D01*
X14369962Y-13699243D01*
X14389009Y-13708767D01*
X14398533Y-13727814D01*
X14398533Y-13746862D01*
X14303295Y-13765909D01*
X14474724Y-13823052D02*
X14493771Y-13832576D01*
X14531867Y-13832576D01*
X14550914Y-13823052D01*
X14560438Y-13804005D01*
X14560438Y-13794481D01*
X14550914Y-13775433D01*
X14531867Y-13765909D01*
X14503295Y-13765909D01*
X14484248Y-13756386D01*
X14474724Y-13737338D01*
X14474724Y-13727814D01*
X14484248Y-13708767D01*
X14503295Y-13699243D01*
X14531867Y-13699243D01*
X14550914Y-13708767D01*
X14627105Y-13908767D02*
X14636628Y-13899243D01*
X14655676Y-13870671D01*
X14665200Y-13851624D01*
X14674724Y-13823052D01*
X14684248Y-13775433D01*
X14684248Y-13737338D01*
X14674724Y-13689719D01*
X14665200Y-13661148D01*
X14655676Y-13642100D01*
X14636628Y-13613528D01*
X14627105Y-13604005D01*
D15*
X9843485Y-14034384D02*
X9843485Y-13977815D01*
X9786916Y-13977815D01*
X9786916Y-14034384D01*
X9843485Y-14034384D01*
D11*
X10150914Y-13896576D02*
X10169962Y-13896576D01*
X10189010Y-13906100D01*
X10198533Y-13915624D01*
X10208057Y-13934671D01*
X10217581Y-13972767D01*
X10217581Y-14020386D01*
X10208057Y-14058481D01*
X10198533Y-14077528D01*
X10189010Y-14087052D01*
X10169962Y-14096576D01*
X10150914Y-14096576D01*
X10131867Y-14087052D01*
X10122343Y-14077528D01*
X10112819Y-14058481D01*
X10103295Y-14020386D01*
X10103295Y-13972767D01*
X10112819Y-13934671D01*
X10122343Y-13915624D01*
X10131867Y-13906100D01*
X10150914Y-13896576D01*
X10303295Y-14077528D02*
X10312819Y-14087052D01*
X10303295Y-14096576D01*
X10293771Y-14087052D01*
X10303295Y-14077528D01*
X10303295Y-14096576D01*
X10427105Y-13982290D02*
X10408057Y-13972767D01*
X10398533Y-13963243D01*
X10389010Y-13944195D01*
X10389010Y-13934671D01*
X10398533Y-13915624D01*
X10408057Y-13906100D01*
X10427105Y-13896576D01*
X10465200Y-13896576D01*
X10484248Y-13906100D01*
X10493771Y-13915624D01*
X10503295Y-13934671D01*
X10503295Y-13944195D01*
X10493771Y-13963243D01*
X10484248Y-13972767D01*
X10465200Y-13982290D01*
X10427105Y-13982290D01*
X10408057Y-13991814D01*
X10398533Y-14001338D01*
X10389010Y-14020386D01*
X10389010Y-14058481D01*
X10398533Y-14077528D01*
X10408057Y-14087052D01*
X10427105Y-14096576D01*
X10465200Y-14096576D01*
X10484248Y-14087052D01*
X10493771Y-14077528D01*
X10503295Y-14058481D01*
X10503295Y-14020386D01*
X10493771Y-14001338D01*
X10484248Y-13991814D01*
X10465200Y-13982290D01*
X10627105Y-13896576D02*
X10646152Y-13896576D01*
X10665200Y-13906100D01*
X10674724Y-13915624D01*
X10684248Y-13934671D01*
X10693771Y-13972767D01*
X10693771Y-14020386D01*
X10684248Y-14058481D01*
X10674724Y-14077528D01*
X10665200Y-14087052D01*
X10646152Y-14096576D01*
X10627105Y-14096576D01*
X10608057Y-14087052D01*
X10598533Y-14077528D01*
X10589010Y-14058481D01*
X10579486Y-14020386D01*
X10579486Y-13972767D01*
X10589010Y-13934671D01*
X10598533Y-13915624D01*
X10608057Y-13906100D01*
X10627105Y-13896576D01*
X10817581Y-13896576D02*
X10836629Y-13896576D01*
X10855676Y-13906100D01*
X10865200Y-13915624D01*
X10874724Y-13934671D01*
X10884248Y-13972767D01*
X10884248Y-14020386D01*
X10874724Y-14058481D01*
X10865200Y-14077528D01*
X10855676Y-14087052D01*
X10836629Y-14096576D01*
X10817581Y-14096576D01*
X10798533Y-14087052D01*
X10789010Y-14077528D01*
X10779486Y-14058481D01*
X10769962Y-14020386D01*
X10769962Y-13972767D01*
X10779486Y-13934671D01*
X10789010Y-13915624D01*
X10798533Y-13906100D01*
X10817581Y-13896576D01*
X10969962Y-14096576D02*
X10969962Y-13963243D01*
X10969962Y-13982290D02*
X10979486Y-13972767D01*
X10998533Y-13963243D01*
X11027105Y-13963243D01*
X11046152Y-13972767D01*
X11055676Y-13991814D01*
X11055676Y-14096576D01*
X11055676Y-13991814D02*
X11065200Y-13972767D01*
X11084248Y-13963243D01*
X11112819Y-13963243D01*
X11131867Y-13972767D01*
X11141390Y-13991814D01*
X11141390Y-14096576D01*
X11236628Y-14096576D02*
X11236628Y-13963243D01*
X11236628Y-13982290D02*
X11246152Y-13972767D01*
X11265200Y-13963243D01*
X11293771Y-13963243D01*
X11312819Y-13972767D01*
X11322343Y-13991814D01*
X11322343Y-14096576D01*
X11322343Y-13991814D02*
X11331867Y-13972767D01*
X11350914Y-13963243D01*
X11379486Y-13963243D01*
X11398533Y-13972767D01*
X11408057Y-13991814D01*
X11408057Y-14096576D01*
X11798533Y-13887052D02*
X11627105Y-14144195D01*
X12055676Y-13896576D02*
X12074724Y-13896576D01*
X12093771Y-13906100D01*
X12103295Y-13915624D01*
X12112819Y-13934671D01*
X12122343Y-13972767D01*
X12122343Y-14020386D01*
X12112819Y-14058481D01*
X12103295Y-14077528D01*
X12093771Y-14087052D01*
X12074724Y-14096576D01*
X12055676Y-14096576D01*
X12036628Y-14087052D01*
X12027105Y-14077528D01*
X12017581Y-14058481D01*
X12008057Y-14020386D01*
X12008057Y-13972767D01*
X12017581Y-13934671D01*
X12027105Y-13915624D01*
X12036628Y-13906100D01*
X12055676Y-13896576D01*
X12208057Y-14077528D02*
X12217581Y-14087052D01*
X12208057Y-14096576D01*
X12198533Y-14087052D01*
X12208057Y-14077528D01*
X12208057Y-14096576D01*
X12341390Y-13896576D02*
X12360438Y-13896576D01*
X12379486Y-13906100D01*
X12389009Y-13915624D01*
X12398533Y-13934671D01*
X12408057Y-13972767D01*
X12408057Y-14020386D01*
X12398533Y-14058481D01*
X12389009Y-14077528D01*
X12379486Y-14087052D01*
X12360438Y-14096576D01*
X12341390Y-14096576D01*
X12322343Y-14087052D01*
X12312819Y-14077528D01*
X12303295Y-14058481D01*
X12293771Y-14020386D01*
X12293771Y-13972767D01*
X12303295Y-13934671D01*
X12312819Y-13915624D01*
X12322343Y-13906100D01*
X12341390Y-13896576D01*
X12474724Y-13896576D02*
X12598533Y-13896576D01*
X12531867Y-13972767D01*
X12560438Y-13972767D01*
X12579486Y-13982290D01*
X12589009Y-13991814D01*
X12598533Y-14010862D01*
X12598533Y-14058481D01*
X12589009Y-14077528D01*
X12579486Y-14087052D01*
X12560438Y-14096576D01*
X12503295Y-14096576D01*
X12484248Y-14087052D01*
X12474724Y-14077528D01*
X12789009Y-14096576D02*
X12674724Y-14096576D01*
X12731867Y-14096576D02*
X12731867Y-13896576D01*
X12712819Y-13925148D01*
X12693771Y-13944195D01*
X12674724Y-13953719D01*
X12969962Y-13896576D02*
X12874724Y-13896576D01*
X12865200Y-13991814D01*
X12874724Y-13982290D01*
X12893771Y-13972767D01*
X12941390Y-13972767D01*
X12960438Y-13982290D01*
X12969962Y-13991814D01*
X12979486Y-14010862D01*
X12979486Y-14058481D01*
X12969962Y-14077528D01*
X12960438Y-14087052D01*
X12941390Y-14096576D01*
X12893771Y-14096576D01*
X12874724Y-14087052D01*
X12865200Y-14077528D01*
X13055676Y-13896576D02*
X13055676Y-13934671D01*
X13131867Y-13896576D02*
X13131867Y-13934671D01*
X13427105Y-14172767D02*
X13417581Y-14163243D01*
X13398533Y-14134671D01*
X13389009Y-14115624D01*
X13379486Y-14087052D01*
X13369962Y-14039433D01*
X13369962Y-14001338D01*
X13379486Y-13953719D01*
X13389009Y-13925148D01*
X13398533Y-13906100D01*
X13417581Y-13877528D01*
X13427105Y-13868005D01*
X13493771Y-13915624D02*
X13503295Y-13906100D01*
X13522343Y-13896576D01*
X13569962Y-13896576D01*
X13589009Y-13906100D01*
X13598533Y-13915624D01*
X13608057Y-13934671D01*
X13608057Y-13953719D01*
X13598533Y-13982290D01*
X13484248Y-14096576D01*
X13608057Y-14096576D01*
X13674724Y-13896576D02*
X13798533Y-13896576D01*
X13731867Y-13972767D01*
X13760438Y-13972767D01*
X13779486Y-13982290D01*
X13789009Y-13991814D01*
X13798533Y-14010862D01*
X13798533Y-14058481D01*
X13789009Y-14077528D01*
X13779486Y-14087052D01*
X13760438Y-14096576D01*
X13703295Y-14096576D01*
X13684248Y-14087052D01*
X13674724Y-14077528D01*
X14036628Y-14096576D02*
X14036628Y-13896576D01*
X14122343Y-14096576D02*
X14122343Y-13991814D01*
X14112819Y-13972767D01*
X14093771Y-13963243D01*
X14065200Y-13963243D01*
X14046152Y-13972767D01*
X14036628Y-13982290D01*
X14246152Y-14096576D02*
X14227105Y-14087052D01*
X14217581Y-14077528D01*
X14208057Y-14058481D01*
X14208057Y-14001338D01*
X14217581Y-13982290D01*
X14227105Y-13972767D01*
X14246152Y-13963243D01*
X14274724Y-13963243D01*
X14293771Y-13972767D01*
X14303295Y-13982290D01*
X14312819Y-14001338D01*
X14312819Y-14058481D01*
X14303295Y-14077528D01*
X14293771Y-14087052D01*
X14274724Y-14096576D01*
X14246152Y-14096576D01*
X14427105Y-14096576D02*
X14408057Y-14087052D01*
X14398533Y-14068005D01*
X14398533Y-13896576D01*
X14579486Y-14087052D02*
X14560438Y-14096576D01*
X14522343Y-14096576D01*
X14503295Y-14087052D01*
X14493771Y-14068005D01*
X14493771Y-13991814D01*
X14503295Y-13972767D01*
X14522343Y-13963243D01*
X14560438Y-13963243D01*
X14579486Y-13972767D01*
X14589009Y-13991814D01*
X14589009Y-14010862D01*
X14493771Y-14029909D01*
X14665200Y-14087052D02*
X14684248Y-14096576D01*
X14722343Y-14096576D01*
X14741390Y-14087052D01*
X14750914Y-14068005D01*
X14750914Y-14058481D01*
X14741390Y-14039433D01*
X14722343Y-14029909D01*
X14693771Y-14029909D01*
X14674724Y-14020386D01*
X14665200Y-14001338D01*
X14665200Y-13991814D01*
X14674724Y-13972767D01*
X14693771Y-13963243D01*
X14722343Y-13963243D01*
X14741390Y-13972767D01*
X14817581Y-14172767D02*
X14827105Y-14163243D01*
X14846152Y-14134671D01*
X14855676Y-14115624D01*
X14865200Y-14087052D01*
X14874724Y-14039433D01*
X14874724Y-14001338D01*
X14865200Y-13953719D01*
X14855676Y-13925148D01*
X14846152Y-13906100D01*
X14827105Y-13877528D01*
X14817581Y-13868005D01*
D16*
X9810200Y-14315100D02*
X9855200Y-14270100D01*
X9810200Y-14225100D01*
X9765200Y-14270100D01*
X9810200Y-14315100D01*
D11*
X10150914Y-14160576D02*
X10169962Y-14160576D01*
X10189010Y-14170100D01*
X10198533Y-14179624D01*
X10208057Y-14198671D01*
X10217581Y-14236767D01*
X10217581Y-14284386D01*
X10208057Y-14322481D01*
X10198533Y-14341528D01*
X10189010Y-14351052D01*
X10169962Y-14360576D01*
X10150914Y-14360576D01*
X10131867Y-14351052D01*
X10122343Y-14341528D01*
X10112819Y-14322481D01*
X10103295Y-14284386D01*
X10103295Y-14236767D01*
X10112819Y-14198671D01*
X10122343Y-14179624D01*
X10131867Y-14170100D01*
X10150914Y-14160576D01*
X10303295Y-14341528D02*
X10312819Y-14351052D01*
X10303295Y-14360576D01*
X10293771Y-14351052D01*
X10303295Y-14341528D01*
X10303295Y-14360576D01*
X10408057Y-14360576D02*
X10446152Y-14360576D01*
X10465200Y-14351052D01*
X10474724Y-14341528D01*
X10493771Y-14312957D01*
X10503295Y-14274862D01*
X10503295Y-14198671D01*
X10493771Y-14179624D01*
X10484248Y-14170100D01*
X10465200Y-14160576D01*
X10427105Y-14160576D01*
X10408057Y-14170100D01*
X10398533Y-14179624D01*
X10389010Y-14198671D01*
X10389010Y-14246290D01*
X10398533Y-14265338D01*
X10408057Y-14274862D01*
X10427105Y-14284386D01*
X10465200Y-14284386D01*
X10484248Y-14274862D01*
X10493771Y-14265338D01*
X10503295Y-14246290D01*
X10627105Y-14160576D02*
X10646152Y-14160576D01*
X10665200Y-14170100D01*
X10674724Y-14179624D01*
X10684248Y-14198671D01*
X10693771Y-14236767D01*
X10693771Y-14284386D01*
X10684248Y-14322481D01*
X10674724Y-14341528D01*
X10665200Y-14351052D01*
X10646152Y-14360576D01*
X10627105Y-14360576D01*
X10608057Y-14351052D01*
X10598533Y-14341528D01*
X10589010Y-14322481D01*
X10579486Y-14284386D01*
X10579486Y-14236767D01*
X10589010Y-14198671D01*
X10598533Y-14179624D01*
X10608057Y-14170100D01*
X10627105Y-14160576D01*
X10817581Y-14160576D02*
X10836629Y-14160576D01*
X10855676Y-14170100D01*
X10865200Y-14179624D01*
X10874724Y-14198671D01*
X10884248Y-14236767D01*
X10884248Y-14284386D01*
X10874724Y-14322481D01*
X10865200Y-14341528D01*
X10855676Y-14351052D01*
X10836629Y-14360576D01*
X10817581Y-14360576D01*
X10798533Y-14351052D01*
X10789010Y-14341528D01*
X10779486Y-14322481D01*
X10769962Y-14284386D01*
X10769962Y-14236767D01*
X10779486Y-14198671D01*
X10789010Y-14179624D01*
X10798533Y-14170100D01*
X10817581Y-14160576D01*
X10969962Y-14360576D02*
X10969962Y-14227243D01*
X10969962Y-14246290D02*
X10979486Y-14236767D01*
X10998533Y-14227243D01*
X11027105Y-14227243D01*
X11046152Y-14236767D01*
X11055676Y-14255814D01*
X11055676Y-14360576D01*
X11055676Y-14255814D02*
X11065200Y-14236767D01*
X11084248Y-14227243D01*
X11112819Y-14227243D01*
X11131867Y-14236767D01*
X11141390Y-14255814D01*
X11141390Y-14360576D01*
X11236628Y-14360576D02*
X11236628Y-14227243D01*
X11236628Y-14246290D02*
X11246152Y-14236767D01*
X11265200Y-14227243D01*
X11293771Y-14227243D01*
X11312819Y-14236767D01*
X11322343Y-14255814D01*
X11322343Y-14360576D01*
X11322343Y-14255814D02*
X11331867Y-14236767D01*
X11350914Y-14227243D01*
X11379486Y-14227243D01*
X11398533Y-14236767D01*
X11408057Y-14255814D01*
X11408057Y-14360576D01*
X11798533Y-14151052D02*
X11627105Y-14408195D01*
X12055676Y-14160576D02*
X12074724Y-14160576D01*
X12093771Y-14170100D01*
X12103295Y-14179624D01*
X12112819Y-14198671D01*
X12122343Y-14236767D01*
X12122343Y-14284386D01*
X12112819Y-14322481D01*
X12103295Y-14341528D01*
X12093771Y-14351052D01*
X12074724Y-14360576D01*
X12055676Y-14360576D01*
X12036628Y-14351052D01*
X12027105Y-14341528D01*
X12017581Y-14322481D01*
X12008057Y-14284386D01*
X12008057Y-14236767D01*
X12017581Y-14198671D01*
X12027105Y-14179624D01*
X12036628Y-14170100D01*
X12055676Y-14160576D01*
X12208057Y-14341528D02*
X12217581Y-14351052D01*
X12208057Y-14360576D01*
X12198533Y-14351052D01*
X12208057Y-14341528D01*
X12208057Y-14360576D01*
X12341390Y-14160576D02*
X12360438Y-14160576D01*
X12379486Y-14170100D01*
X12389009Y-14179624D01*
X12398533Y-14198671D01*
X12408057Y-14236767D01*
X12408057Y-14284386D01*
X12398533Y-14322481D01*
X12389009Y-14341528D01*
X12379486Y-14351052D01*
X12360438Y-14360576D01*
X12341390Y-14360576D01*
X12322343Y-14351052D01*
X12312819Y-14341528D01*
X12303295Y-14322481D01*
X12293771Y-14284386D01*
X12293771Y-14236767D01*
X12303295Y-14198671D01*
X12312819Y-14179624D01*
X12322343Y-14170100D01*
X12341390Y-14160576D01*
X12474724Y-14160576D02*
X12598533Y-14160576D01*
X12531867Y-14236767D01*
X12560438Y-14236767D01*
X12579486Y-14246290D01*
X12589009Y-14255814D01*
X12598533Y-14274862D01*
X12598533Y-14322481D01*
X12589009Y-14341528D01*
X12579486Y-14351052D01*
X12560438Y-14360576D01*
X12503295Y-14360576D01*
X12484248Y-14351052D01*
X12474724Y-14341528D01*
X12779486Y-14160576D02*
X12684248Y-14160576D01*
X12674724Y-14255814D01*
X12684248Y-14246290D01*
X12703295Y-14236767D01*
X12750914Y-14236767D01*
X12769962Y-14246290D01*
X12779486Y-14255814D01*
X12789009Y-14274862D01*
X12789009Y-14322481D01*
X12779486Y-14341528D01*
X12769962Y-14351052D01*
X12750914Y-14360576D01*
X12703295Y-14360576D01*
X12684248Y-14351052D01*
X12674724Y-14341528D01*
X12960438Y-14227243D02*
X12960438Y-14360576D01*
X12912819Y-14151052D02*
X12865200Y-14293909D01*
X12989009Y-14293909D01*
X13055676Y-14160576D02*
X13055676Y-14198671D01*
X13131867Y-14160576D02*
X13131867Y-14198671D01*
X13427105Y-14436767D02*
X13417581Y-14427243D01*
X13398533Y-14398671D01*
X13389009Y-14379624D01*
X13379486Y-14351052D01*
X13369962Y-14303433D01*
X13369962Y-14265338D01*
X13379486Y-14217719D01*
X13389009Y-14189148D01*
X13398533Y-14170100D01*
X13417581Y-14141528D01*
X13427105Y-14132005D01*
X13493771Y-14179624D02*
X13503295Y-14170100D01*
X13522343Y-14160576D01*
X13569962Y-14160576D01*
X13589009Y-14170100D01*
X13598533Y-14179624D01*
X13608057Y-14198671D01*
X13608057Y-14217719D01*
X13598533Y-14246290D01*
X13484248Y-14360576D01*
X13608057Y-14360576D01*
X13779486Y-14160576D02*
X13741390Y-14160576D01*
X13722343Y-14170100D01*
X13712819Y-14179624D01*
X13693771Y-14208195D01*
X13684248Y-14246290D01*
X13684248Y-14322481D01*
X13693771Y-14341528D01*
X13703295Y-14351052D01*
X13722343Y-14360576D01*
X13760438Y-14360576D01*
X13779486Y-14351052D01*
X13789009Y-14341528D01*
X13798533Y-14322481D01*
X13798533Y-14274862D01*
X13789009Y-14255814D01*
X13779486Y-14246290D01*
X13760438Y-14236767D01*
X13722343Y-14236767D01*
X13703295Y-14246290D01*
X13693771Y-14255814D01*
X13684248Y-14274862D01*
X14036628Y-14360576D02*
X14036628Y-14160576D01*
X14122343Y-14360576D02*
X14122343Y-14255814D01*
X14112819Y-14236767D01*
X14093771Y-14227243D01*
X14065200Y-14227243D01*
X14046152Y-14236767D01*
X14036628Y-14246290D01*
X14246152Y-14360576D02*
X14227105Y-14351052D01*
X14217581Y-14341528D01*
X14208057Y-14322481D01*
X14208057Y-14265338D01*
X14217581Y-14246290D01*
X14227105Y-14236767D01*
X14246152Y-14227243D01*
X14274724Y-14227243D01*
X14293771Y-14236767D01*
X14303295Y-14246290D01*
X14312819Y-14265338D01*
X14312819Y-14322481D01*
X14303295Y-14341528D01*
X14293771Y-14351052D01*
X14274724Y-14360576D01*
X14246152Y-14360576D01*
X14427105Y-14360576D02*
X14408057Y-14351052D01*
X14398533Y-14332005D01*
X14398533Y-14160576D01*
X14579486Y-14351052D02*
X14560438Y-14360576D01*
X14522343Y-14360576D01*
X14503295Y-14351052D01*
X14493771Y-14332005D01*
X14493771Y-14255814D01*
X14503295Y-14236767D01*
X14522343Y-14227243D01*
X14560438Y-14227243D01*
X14579486Y-14236767D01*
X14589009Y-14255814D01*
X14589009Y-14274862D01*
X14493771Y-14293909D01*
X14665200Y-14351052D02*
X14684248Y-14360576D01*
X14722343Y-14360576D01*
X14741390Y-14351052D01*
X14750914Y-14332005D01*
X14750914Y-14322481D01*
X14741390Y-14303433D01*
X14722343Y-14293909D01*
X14693771Y-14293909D01*
X14674724Y-14284386D01*
X14665200Y-14265338D01*
X14665200Y-14255814D01*
X14674724Y-14236767D01*
X14693771Y-14227243D01*
X14722343Y-14227243D01*
X14741390Y-14236767D01*
X14817581Y-14436767D02*
X14827105Y-14427243D01*
X14846152Y-14398671D01*
X14855676Y-14379624D01*
X14865200Y-14351052D01*
X14874724Y-14303433D01*
X14874724Y-14265338D01*
X14865200Y-14217719D01*
X14855676Y-14189148D01*
X14846152Y-14170100D01*
X14827105Y-14141528D01*
X14817581Y-14132005D01*
D17*
X9755200Y-14484100D02*
X9855200Y-14584100D01*
X9855200Y-14484100D02*
X9755200Y-14584100D01*
X9855200Y-14534100D02*
G75*
G03*
X9855200Y-14534100I-50000J0D01*
G01*
D11*
X10217581Y-14624576D02*
X10103295Y-14624576D01*
X10160438Y-14624576D02*
X10160438Y-14424576D01*
X10141390Y-14453148D01*
X10122343Y-14472195D01*
X10103295Y-14481719D01*
X10303295Y-14605528D02*
X10312819Y-14615052D01*
X10303295Y-14624576D01*
X10293771Y-14615052D01*
X10303295Y-14605528D01*
X10303295Y-14624576D01*
X10436629Y-14424576D02*
X10455676Y-14424576D01*
X10474724Y-14434100D01*
X10484248Y-14443624D01*
X10493771Y-14462671D01*
X10503295Y-14500767D01*
X10503295Y-14548386D01*
X10493771Y-14586481D01*
X10484248Y-14605528D01*
X10474724Y-14615052D01*
X10455676Y-14624576D01*
X10436629Y-14624576D01*
X10417581Y-14615052D01*
X10408057Y-14605528D01*
X10398533Y-14586481D01*
X10389010Y-14548386D01*
X10389010Y-14500767D01*
X10398533Y-14462671D01*
X10408057Y-14443624D01*
X10417581Y-14434100D01*
X10436629Y-14424576D01*
X10627105Y-14424576D02*
X10646152Y-14424576D01*
X10665200Y-14434100D01*
X10674724Y-14443624D01*
X10684248Y-14462671D01*
X10693771Y-14500767D01*
X10693771Y-14548386D01*
X10684248Y-14586481D01*
X10674724Y-14605528D01*
X10665200Y-14615052D01*
X10646152Y-14624576D01*
X10627105Y-14624576D01*
X10608057Y-14615052D01*
X10598533Y-14605528D01*
X10589010Y-14586481D01*
X10579486Y-14548386D01*
X10579486Y-14500767D01*
X10589010Y-14462671D01*
X10598533Y-14443624D01*
X10608057Y-14434100D01*
X10627105Y-14424576D01*
X10817581Y-14424576D02*
X10836629Y-14424576D01*
X10855676Y-14434100D01*
X10865200Y-14443624D01*
X10874724Y-14462671D01*
X10884248Y-14500767D01*
X10884248Y-14548386D01*
X10874724Y-14586481D01*
X10865200Y-14605528D01*
X10855676Y-14615052D01*
X10836629Y-14624576D01*
X10817581Y-14624576D01*
X10798533Y-14615052D01*
X10789010Y-14605528D01*
X10779486Y-14586481D01*
X10769962Y-14548386D01*
X10769962Y-14500767D01*
X10779486Y-14462671D01*
X10789010Y-14443624D01*
X10798533Y-14434100D01*
X10817581Y-14424576D01*
X10969962Y-14624576D02*
X10969962Y-14491243D01*
X10969962Y-14510290D02*
X10979486Y-14500767D01*
X10998533Y-14491243D01*
X11027105Y-14491243D01*
X11046152Y-14500767D01*
X11055676Y-14519814D01*
X11055676Y-14624576D01*
X11055676Y-14519814D02*
X11065200Y-14500767D01*
X11084248Y-14491243D01*
X11112819Y-14491243D01*
X11131867Y-14500767D01*
X11141390Y-14519814D01*
X11141390Y-14624576D01*
X11236628Y-14624576D02*
X11236628Y-14491243D01*
X11236628Y-14510290D02*
X11246152Y-14500767D01*
X11265200Y-14491243D01*
X11293771Y-14491243D01*
X11312819Y-14500767D01*
X11322343Y-14519814D01*
X11322343Y-14624576D01*
X11322343Y-14519814D02*
X11331867Y-14500767D01*
X11350914Y-14491243D01*
X11379486Y-14491243D01*
X11398533Y-14500767D01*
X11408057Y-14519814D01*
X11408057Y-14624576D01*
X11798533Y-14415052D02*
X11627105Y-14672195D01*
X12055676Y-14424576D02*
X12074724Y-14424576D01*
X12093771Y-14434100D01*
X12103295Y-14443624D01*
X12112819Y-14462671D01*
X12122343Y-14500767D01*
X12122343Y-14548386D01*
X12112819Y-14586481D01*
X12103295Y-14605528D01*
X12093771Y-14615052D01*
X12074724Y-14624576D01*
X12055676Y-14624576D01*
X12036628Y-14615052D01*
X12027105Y-14605528D01*
X12017581Y-14586481D01*
X12008057Y-14548386D01*
X12008057Y-14500767D01*
X12017581Y-14462671D01*
X12027105Y-14443624D01*
X12036628Y-14434100D01*
X12055676Y-14424576D01*
X12208057Y-14605528D02*
X12217581Y-14615052D01*
X12208057Y-14624576D01*
X12198533Y-14615052D01*
X12208057Y-14605528D01*
X12208057Y-14624576D01*
X12341390Y-14424576D02*
X12360438Y-14424576D01*
X12379486Y-14434100D01*
X12389009Y-14443624D01*
X12398533Y-14462671D01*
X12408057Y-14500767D01*
X12408057Y-14548386D01*
X12398533Y-14586481D01*
X12389009Y-14605528D01*
X12379486Y-14615052D01*
X12360438Y-14624576D01*
X12341390Y-14624576D01*
X12322343Y-14615052D01*
X12312819Y-14605528D01*
X12303295Y-14586481D01*
X12293771Y-14548386D01*
X12293771Y-14500767D01*
X12303295Y-14462671D01*
X12312819Y-14443624D01*
X12322343Y-14434100D01*
X12341390Y-14424576D01*
X12474724Y-14424576D02*
X12598533Y-14424576D01*
X12531867Y-14500767D01*
X12560438Y-14500767D01*
X12579486Y-14510290D01*
X12589009Y-14519814D01*
X12598533Y-14538862D01*
X12598533Y-14586481D01*
X12589009Y-14605528D01*
X12579486Y-14615052D01*
X12560438Y-14624576D01*
X12503295Y-14624576D01*
X12484248Y-14615052D01*
X12474724Y-14605528D01*
X12693771Y-14624576D02*
X12731867Y-14624576D01*
X12750914Y-14615052D01*
X12760438Y-14605528D01*
X12779486Y-14576957D01*
X12789009Y-14538862D01*
X12789009Y-14462671D01*
X12779486Y-14443624D01*
X12769962Y-14434100D01*
X12750914Y-14424576D01*
X12712819Y-14424576D01*
X12693771Y-14434100D01*
X12684248Y-14443624D01*
X12674724Y-14462671D01*
X12674724Y-14510290D01*
X12684248Y-14529338D01*
X12693771Y-14538862D01*
X12712819Y-14548386D01*
X12750914Y-14548386D01*
X12769962Y-14538862D01*
X12779486Y-14529338D01*
X12789009Y-14510290D01*
X12960438Y-14491243D02*
X12960438Y-14624576D01*
X12912819Y-14415052D02*
X12865200Y-14557909D01*
X12989009Y-14557909D01*
X13055676Y-14424576D02*
X13055676Y-14462671D01*
X13131867Y-14424576D02*
X13131867Y-14462671D01*
X13427105Y-14700767D02*
X13417581Y-14691243D01*
X13398533Y-14662671D01*
X13389009Y-14643624D01*
X13379486Y-14615052D01*
X13369962Y-14567433D01*
X13369962Y-14529338D01*
X13379486Y-14481719D01*
X13389009Y-14453148D01*
X13398533Y-14434100D01*
X13417581Y-14405528D01*
X13427105Y-14396005D01*
X13608057Y-14624576D02*
X13493771Y-14624576D01*
X13550914Y-14624576D02*
X13550914Y-14424576D01*
X13531867Y-14453148D01*
X13512819Y-14472195D01*
X13493771Y-14481719D01*
X13684248Y-14443624D02*
X13693771Y-14434100D01*
X13712819Y-14424576D01*
X13760438Y-14424576D01*
X13779486Y-14434100D01*
X13789009Y-14443624D01*
X13798533Y-14462671D01*
X13798533Y-14481719D01*
X13789009Y-14510290D01*
X13674724Y-14624576D01*
X13798533Y-14624576D01*
X13979486Y-14424576D02*
X13884248Y-14424576D01*
X13874724Y-14519814D01*
X13884248Y-14510290D01*
X13903295Y-14500767D01*
X13950914Y-14500767D01*
X13969962Y-14510290D01*
X13979486Y-14519814D01*
X13989009Y-14538862D01*
X13989009Y-14586481D01*
X13979486Y-14605528D01*
X13969962Y-14615052D01*
X13950914Y-14624576D01*
X13903295Y-14624576D01*
X13884248Y-14615052D01*
X13874724Y-14605528D01*
X14227105Y-14624576D02*
X14227105Y-14424576D01*
X14312819Y-14624576D02*
X14312819Y-14519814D01*
X14303295Y-14500767D01*
X14284248Y-14491243D01*
X14255676Y-14491243D01*
X14236628Y-14500767D01*
X14227105Y-14510290D01*
X14436628Y-14624576D02*
X14417581Y-14615052D01*
X14408057Y-14605528D01*
X14398533Y-14586481D01*
X14398533Y-14529338D01*
X14408057Y-14510290D01*
X14417581Y-14500767D01*
X14436628Y-14491243D01*
X14465200Y-14491243D01*
X14484248Y-14500767D01*
X14493771Y-14510290D01*
X14503295Y-14529338D01*
X14503295Y-14586481D01*
X14493771Y-14605528D01*
X14484248Y-14615052D01*
X14465200Y-14624576D01*
X14436628Y-14624576D01*
X14617581Y-14624576D02*
X14598533Y-14615052D01*
X14589009Y-14596005D01*
X14589009Y-14424576D01*
X14769962Y-14615052D02*
X14750914Y-14624576D01*
X14712819Y-14624576D01*
X14693771Y-14615052D01*
X14684248Y-14596005D01*
X14684248Y-14519814D01*
X14693771Y-14500767D01*
X14712819Y-14491243D01*
X14750914Y-14491243D01*
X14769962Y-14500767D01*
X14779486Y-14519814D01*
X14779486Y-14538862D01*
X14684248Y-14557909D01*
X14855676Y-14615052D02*
X14874724Y-14624576D01*
X14912819Y-14624576D01*
X14931867Y-14615052D01*
X14941390Y-14596005D01*
X14941390Y-14586481D01*
X14931867Y-14567433D01*
X14912819Y-14557909D01*
X14884248Y-14557909D01*
X14865200Y-14548386D01*
X14855676Y-14529338D01*
X14855676Y-14519814D01*
X14865200Y-14500767D01*
X14884248Y-14491243D01*
X14912819Y-14491243D01*
X14931867Y-14500767D01*
X15179486Y-14548386D02*
X15331867Y-14548386D01*
X15255676Y-14624576D02*
X15255676Y-14472195D01*
X15560438Y-14424576D02*
X15684248Y-14424576D01*
X15617581Y-14500767D01*
X15646152Y-14500767D01*
X15665200Y-14510290D01*
X15674724Y-14519814D01*
X15684248Y-14538862D01*
X15684248Y-14586481D01*
X15674724Y-14605528D01*
X15665200Y-14615052D01*
X15646152Y-14624576D01*
X15589009Y-14624576D01*
X15569962Y-14615052D01*
X15560438Y-14605528D01*
X15912819Y-14615052D02*
X15931867Y-14624576D01*
X15969962Y-14624576D01*
X15989009Y-14615052D01*
X15998533Y-14596005D01*
X15998533Y-14586481D01*
X15989009Y-14567433D01*
X15969962Y-14557909D01*
X15941390Y-14557909D01*
X15922343Y-14548386D01*
X15912819Y-14529338D01*
X15912819Y-14519814D01*
X15922343Y-14500767D01*
X15941390Y-14491243D01*
X15969962Y-14491243D01*
X15989009Y-14500767D01*
X16112819Y-14624576D02*
X16093771Y-14615052D01*
X16084248Y-14596005D01*
X16084248Y-14424576D01*
X16217581Y-14624576D02*
X16198533Y-14615052D01*
X16189009Y-14605528D01*
X16179486Y-14586481D01*
X16179486Y-14529338D01*
X16189009Y-14510290D01*
X16198533Y-14500767D01*
X16217581Y-14491243D01*
X16246152Y-14491243D01*
X16265200Y-14500767D01*
X16274724Y-14510290D01*
X16284248Y-14529338D01*
X16284248Y-14586481D01*
X16274724Y-14605528D01*
X16265200Y-14615052D01*
X16246152Y-14624576D01*
X16217581Y-14624576D01*
X16341390Y-14491243D02*
X16417581Y-14491243D01*
X16369962Y-14424576D02*
X16369962Y-14596005D01*
X16379486Y-14615052D01*
X16398533Y-14624576D01*
X16417581Y-14624576D01*
X16474724Y-14615052D02*
X16493771Y-14624576D01*
X16531867Y-14624576D01*
X16550914Y-14615052D01*
X16560438Y-14596005D01*
X16560438Y-14586481D01*
X16550914Y-14567433D01*
X16531867Y-14557909D01*
X16503295Y-14557909D01*
X16484248Y-14548386D01*
X16474724Y-14529338D01*
X16474724Y-14519814D01*
X16484248Y-14500767D01*
X16503295Y-14491243D01*
X16531867Y-14491243D01*
X16550914Y-14500767D01*
X16627105Y-14700767D02*
X16636628Y-14691243D01*
X16655676Y-14662671D01*
X16665200Y-14643624D01*
X16674724Y-14615052D01*
X16684248Y-14567433D01*
X16684248Y-14529338D01*
X16674724Y-14481719D01*
X16665200Y-14453148D01*
X16655676Y-14434100D01*
X16636628Y-14405528D01*
X16627105Y-14396005D01*
D18*
X9745200Y-14743100D02*
X9855200Y-14853100D01*
X9855200Y-14743100D02*
X9745200Y-14853100D01*
X9800200Y-14743100D02*
X9800200Y-14853100D01*
X9745200Y-14798100D02*
X9855200Y-14798100D01*
D11*
X10217581Y-14888576D02*
X10103295Y-14888576D01*
X10160438Y-14888576D02*
X10160438Y-14688576D01*
X10141390Y-14717148D01*
X10122343Y-14736195D01*
X10103295Y-14745719D01*
X10303295Y-14869528D02*
X10312819Y-14879052D01*
X10303295Y-14888576D01*
X10293771Y-14879052D01*
X10303295Y-14869528D01*
X10303295Y-14888576D01*
X10503295Y-14888576D02*
X10389010Y-14888576D01*
X10446152Y-14888576D02*
X10446152Y-14688576D01*
X10427105Y-14717148D01*
X10408057Y-14736195D01*
X10389010Y-14745719D01*
X10627105Y-14688576D02*
X10646152Y-14688576D01*
X10665200Y-14698100D01*
X10674724Y-14707624D01*
X10684248Y-14726671D01*
X10693771Y-14764767D01*
X10693771Y-14812386D01*
X10684248Y-14850481D01*
X10674724Y-14869528D01*
X10665200Y-14879052D01*
X10646152Y-14888576D01*
X10627105Y-14888576D01*
X10608057Y-14879052D01*
X10598533Y-14869528D01*
X10589010Y-14850481D01*
X10579486Y-14812386D01*
X10579486Y-14764767D01*
X10589010Y-14726671D01*
X10598533Y-14707624D01*
X10608057Y-14698100D01*
X10627105Y-14688576D01*
X10817581Y-14688576D02*
X10836629Y-14688576D01*
X10855676Y-14698100D01*
X10865200Y-14707624D01*
X10874724Y-14726671D01*
X10884248Y-14764767D01*
X10884248Y-14812386D01*
X10874724Y-14850481D01*
X10865200Y-14869528D01*
X10855676Y-14879052D01*
X10836629Y-14888576D01*
X10817581Y-14888576D01*
X10798533Y-14879052D01*
X10789010Y-14869528D01*
X10779486Y-14850481D01*
X10769962Y-14812386D01*
X10769962Y-14764767D01*
X10779486Y-14726671D01*
X10789010Y-14707624D01*
X10798533Y-14698100D01*
X10817581Y-14688576D01*
X10969962Y-14888576D02*
X10969962Y-14755243D01*
X10969962Y-14774290D02*
X10979486Y-14764767D01*
X10998533Y-14755243D01*
X11027105Y-14755243D01*
X11046152Y-14764767D01*
X11055676Y-14783814D01*
X11055676Y-14888576D01*
X11055676Y-14783814D02*
X11065200Y-14764767D01*
X11084248Y-14755243D01*
X11112819Y-14755243D01*
X11131867Y-14764767D01*
X11141390Y-14783814D01*
X11141390Y-14888576D01*
X11236628Y-14888576D02*
X11236628Y-14755243D01*
X11236628Y-14774290D02*
X11246152Y-14764767D01*
X11265200Y-14755243D01*
X11293771Y-14755243D01*
X11312819Y-14764767D01*
X11322343Y-14783814D01*
X11322343Y-14888576D01*
X11322343Y-14783814D02*
X11331867Y-14764767D01*
X11350914Y-14755243D01*
X11379486Y-14755243D01*
X11398533Y-14764767D01*
X11408057Y-14783814D01*
X11408057Y-14888576D01*
X11798533Y-14679052D02*
X11627105Y-14936195D01*
X12055676Y-14688576D02*
X12074724Y-14688576D01*
X12093771Y-14698100D01*
X12103295Y-14707624D01*
X12112819Y-14726671D01*
X12122343Y-14764767D01*
X12122343Y-14812386D01*
X12112819Y-14850481D01*
X12103295Y-14869528D01*
X12093771Y-14879052D01*
X12074724Y-14888576D01*
X12055676Y-14888576D01*
X12036628Y-14879052D01*
X12027105Y-14869528D01*
X12017581Y-14850481D01*
X12008057Y-14812386D01*
X12008057Y-14764767D01*
X12017581Y-14726671D01*
X12027105Y-14707624D01*
X12036628Y-14698100D01*
X12055676Y-14688576D01*
X12208057Y-14869528D02*
X12217581Y-14879052D01*
X12208057Y-14888576D01*
X12198533Y-14879052D01*
X12208057Y-14869528D01*
X12208057Y-14888576D01*
X12341390Y-14688576D02*
X12360438Y-14688576D01*
X12379486Y-14698100D01*
X12389009Y-14707624D01*
X12398533Y-14726671D01*
X12408057Y-14764767D01*
X12408057Y-14812386D01*
X12398533Y-14850481D01*
X12389009Y-14869528D01*
X12379486Y-14879052D01*
X12360438Y-14888576D01*
X12341390Y-14888576D01*
X12322343Y-14879052D01*
X12312819Y-14869528D01*
X12303295Y-14850481D01*
X12293771Y-14812386D01*
X12293771Y-14764767D01*
X12303295Y-14726671D01*
X12312819Y-14707624D01*
X12322343Y-14698100D01*
X12341390Y-14688576D01*
X12579486Y-14755243D02*
X12579486Y-14888576D01*
X12531867Y-14679052D02*
X12484248Y-14821909D01*
X12608057Y-14821909D01*
X12665200Y-14688576D02*
X12789009Y-14688576D01*
X12722343Y-14764767D01*
X12750914Y-14764767D01*
X12769962Y-14774290D01*
X12779486Y-14783814D01*
X12789009Y-14802862D01*
X12789009Y-14850481D01*
X12779486Y-14869528D01*
X12769962Y-14879052D01*
X12750914Y-14888576D01*
X12693771Y-14888576D01*
X12674724Y-14879052D01*
X12665200Y-14869528D01*
X12855676Y-14688576D02*
X12979486Y-14688576D01*
X12912819Y-14764767D01*
X12941390Y-14764767D01*
X12960438Y-14774290D01*
X12969962Y-14783814D01*
X12979486Y-14802862D01*
X12979486Y-14850481D01*
X12969962Y-14869528D01*
X12960438Y-14879052D01*
X12941390Y-14888576D01*
X12884248Y-14888576D01*
X12865200Y-14879052D01*
X12855676Y-14869528D01*
X13055676Y-14688576D02*
X13055676Y-14726671D01*
X13131867Y-14688576D02*
X13131867Y-14726671D01*
X13427105Y-14964767D02*
X13417581Y-14955243D01*
X13398533Y-14926671D01*
X13389009Y-14907624D01*
X13379486Y-14879052D01*
X13369962Y-14831433D01*
X13369962Y-14793338D01*
X13379486Y-14745719D01*
X13389009Y-14717148D01*
X13398533Y-14698100D01*
X13417581Y-14669528D01*
X13427105Y-14660005D01*
X13541390Y-14688576D02*
X13560438Y-14688576D01*
X13579486Y-14698100D01*
X13589009Y-14707624D01*
X13598533Y-14726671D01*
X13608057Y-14764767D01*
X13608057Y-14812386D01*
X13598533Y-14850481D01*
X13589009Y-14869528D01*
X13579486Y-14879052D01*
X13560438Y-14888576D01*
X13541390Y-14888576D01*
X13522343Y-14879052D01*
X13512819Y-14869528D01*
X13503295Y-14850481D01*
X13493771Y-14812386D01*
X13493771Y-14764767D01*
X13503295Y-14726671D01*
X13512819Y-14707624D01*
X13522343Y-14698100D01*
X13541390Y-14688576D01*
X13846152Y-14888576D02*
X13846152Y-14688576D01*
X13931867Y-14888576D02*
X13931867Y-14783814D01*
X13922343Y-14764767D01*
X13903295Y-14755243D01*
X13874724Y-14755243D01*
X13855676Y-14764767D01*
X13846152Y-14774290D01*
X14055676Y-14888576D02*
X14036628Y-14879052D01*
X14027105Y-14869528D01*
X14017581Y-14850481D01*
X14017581Y-14793338D01*
X14027105Y-14774290D01*
X14036628Y-14764767D01*
X14055676Y-14755243D01*
X14084248Y-14755243D01*
X14103295Y-14764767D01*
X14112819Y-14774290D01*
X14122343Y-14793338D01*
X14122343Y-14850481D01*
X14112819Y-14869528D01*
X14103295Y-14879052D01*
X14084248Y-14888576D01*
X14055676Y-14888576D01*
X14236628Y-14888576D02*
X14217581Y-14879052D01*
X14208057Y-14860005D01*
X14208057Y-14688576D01*
X14389009Y-14879052D02*
X14369962Y-14888576D01*
X14331867Y-14888576D01*
X14312819Y-14879052D01*
X14303295Y-14860005D01*
X14303295Y-14783814D01*
X14312819Y-14764767D01*
X14331867Y-14755243D01*
X14369962Y-14755243D01*
X14389009Y-14764767D01*
X14398533Y-14783814D01*
X14398533Y-14802862D01*
X14303295Y-14821909D01*
X14474724Y-14879052D02*
X14493771Y-14888576D01*
X14531867Y-14888576D01*
X14550914Y-14879052D01*
X14560438Y-14860005D01*
X14560438Y-14850481D01*
X14550914Y-14831433D01*
X14531867Y-14821909D01*
X14503295Y-14821909D01*
X14484248Y-14812386D01*
X14474724Y-14793338D01*
X14474724Y-14783814D01*
X14484248Y-14764767D01*
X14503295Y-14755243D01*
X14531867Y-14755243D01*
X14550914Y-14764767D01*
X14798533Y-14812386D02*
X14950914Y-14812386D01*
X14874724Y-14888576D02*
X14874724Y-14736195D01*
X15189009Y-14707624D02*
X15198533Y-14698100D01*
X15217581Y-14688576D01*
X15265200Y-14688576D01*
X15284248Y-14698100D01*
X15293771Y-14707624D01*
X15303295Y-14726671D01*
X15303295Y-14745719D01*
X15293771Y-14774290D01*
X15179486Y-14888576D01*
X15303295Y-14888576D01*
X15531867Y-14879052D02*
X15550914Y-14888576D01*
X15589009Y-14888576D01*
X15608057Y-14879052D01*
X15617581Y-14860005D01*
X15617581Y-14850481D01*
X15608057Y-14831433D01*
X15589009Y-14821909D01*
X15560438Y-14821909D01*
X15541390Y-14812386D01*
X15531867Y-14793338D01*
X15531867Y-14783814D01*
X15541390Y-14764767D01*
X15560438Y-14755243D01*
X15589009Y-14755243D01*
X15608057Y-14764767D01*
X15731867Y-14888576D02*
X15712819Y-14879052D01*
X15703295Y-14860005D01*
X15703295Y-14688576D01*
X15836628Y-14888576D02*
X15817581Y-14879052D01*
X15808057Y-14869528D01*
X15798533Y-14850481D01*
X15798533Y-14793338D01*
X15808057Y-14774290D01*
X15817581Y-14764767D01*
X15836628Y-14755243D01*
X15865200Y-14755243D01*
X15884248Y-14764767D01*
X15893771Y-14774290D01*
X15903295Y-14793338D01*
X15903295Y-14850481D01*
X15893771Y-14869528D01*
X15884248Y-14879052D01*
X15865200Y-14888576D01*
X15836628Y-14888576D01*
X15960438Y-14755243D02*
X16036628Y-14755243D01*
X15989009Y-14688576D02*
X15989009Y-14860005D01*
X15998533Y-14879052D01*
X16017581Y-14888576D01*
X16036628Y-14888576D01*
X16093771Y-14879052D02*
X16112819Y-14888576D01*
X16150914Y-14888576D01*
X16169962Y-14879052D01*
X16179486Y-14860005D01*
X16179486Y-14850481D01*
X16169962Y-14831433D01*
X16150914Y-14821909D01*
X16122343Y-14821909D01*
X16103295Y-14812386D01*
X16093771Y-14793338D01*
X16093771Y-14783814D01*
X16103295Y-14764767D01*
X16122343Y-14755243D01*
X16150914Y-14755243D01*
X16169962Y-14764767D01*
X16246152Y-14964767D02*
X16255676Y-14955243D01*
X16274724Y-14926671D01*
X16284248Y-14907624D01*
X16293771Y-14879052D01*
X16303295Y-14831433D01*
X16303295Y-14793338D01*
X16293771Y-14745719D01*
X16284248Y-14717148D01*
X16274724Y-14698100D01*
X16255676Y-14669528D01*
X16246152Y-14660005D01*
X9655200Y-14962100D02*
X9855200Y-15162100D01*
X9855200Y-14962100D02*
X9655200Y-15162100D01*
X9825911Y-15132811D02*
X9825911Y-14991389D01*
X9684489Y-14991389D01*
X9684489Y-15132811D01*
X9825911Y-15132811D01*
X10093771Y-14952576D02*
X10217581Y-14952576D01*
X10150914Y-15028767D01*
X10179486Y-15028767D01*
X10198533Y-15038290D01*
X10208057Y-15047814D01*
X10217581Y-15066862D01*
X10217581Y-15114481D01*
X10208057Y-15133528D01*
X10198533Y-15143052D01*
X10179486Y-15152576D01*
X10122343Y-15152576D01*
X10103295Y-15143052D01*
X10093771Y-15133528D01*
X10303295Y-15133528D02*
X10312819Y-15143052D01*
X10303295Y-15152576D01*
X10293771Y-15143052D01*
X10303295Y-15133528D01*
X10303295Y-15152576D01*
X10389010Y-14971624D02*
X10398533Y-14962100D01*
X10417581Y-14952576D01*
X10465200Y-14952576D01*
X10484248Y-14962100D01*
X10493771Y-14971624D01*
X10503295Y-14990671D01*
X10503295Y-15009719D01*
X10493771Y-15038290D01*
X10379486Y-15152576D01*
X10503295Y-15152576D01*
X10627105Y-14952576D02*
X10646152Y-14952576D01*
X10665200Y-14962100D01*
X10674724Y-14971624D01*
X10684248Y-14990671D01*
X10693771Y-15028767D01*
X10693771Y-15076386D01*
X10684248Y-15114481D01*
X10674724Y-15133528D01*
X10665200Y-15143052D01*
X10646152Y-15152576D01*
X10627105Y-15152576D01*
X10608057Y-15143052D01*
X10598533Y-15133528D01*
X10589010Y-15114481D01*
X10579486Y-15076386D01*
X10579486Y-15028767D01*
X10589010Y-14990671D01*
X10598533Y-14971624D01*
X10608057Y-14962100D01*
X10627105Y-14952576D01*
X10817581Y-14952576D02*
X10836629Y-14952576D01*
X10855676Y-14962100D01*
X10865200Y-14971624D01*
X10874724Y-14990671D01*
X10884248Y-15028767D01*
X10884248Y-15076386D01*
X10874724Y-15114481D01*
X10865200Y-15133528D01*
X10855676Y-15143052D01*
X10836629Y-15152576D01*
X10817581Y-15152576D01*
X10798533Y-15143052D01*
X10789010Y-15133528D01*
X10779486Y-15114481D01*
X10769962Y-15076386D01*
X10769962Y-15028767D01*
X10779486Y-14990671D01*
X10789010Y-14971624D01*
X10798533Y-14962100D01*
X10817581Y-14952576D01*
X10969962Y-15152576D02*
X10969962Y-15019243D01*
X10969962Y-15038290D02*
X10979486Y-15028767D01*
X10998533Y-15019243D01*
X11027105Y-15019243D01*
X11046152Y-15028767D01*
X11055676Y-15047814D01*
X11055676Y-15152576D01*
X11055676Y-15047814D02*
X11065200Y-15028767D01*
X11084248Y-15019243D01*
X11112819Y-15019243D01*
X11131867Y-15028767D01*
X11141390Y-15047814D01*
X11141390Y-15152576D01*
X11236628Y-15152576D02*
X11236628Y-15019243D01*
X11236628Y-15038290D02*
X11246152Y-15028767D01*
X11265200Y-15019243D01*
X11293771Y-15019243D01*
X11312819Y-15028767D01*
X11322343Y-15047814D01*
X11322343Y-15152576D01*
X11322343Y-15047814D02*
X11331867Y-15028767D01*
X11350914Y-15019243D01*
X11379486Y-15019243D01*
X11398533Y-15028767D01*
X11408057Y-15047814D01*
X11408057Y-15152576D01*
X11798533Y-14943052D02*
X11627105Y-15200195D01*
X12055676Y-14952576D02*
X12074724Y-14952576D01*
X12093771Y-14962100D01*
X12103295Y-14971624D01*
X12112819Y-14990671D01*
X12122343Y-15028767D01*
X12122343Y-15076386D01*
X12112819Y-15114481D01*
X12103295Y-15133528D01*
X12093771Y-15143052D01*
X12074724Y-15152576D01*
X12055676Y-15152576D01*
X12036628Y-15143052D01*
X12027105Y-15133528D01*
X12017581Y-15114481D01*
X12008057Y-15076386D01*
X12008057Y-15028767D01*
X12017581Y-14990671D01*
X12027105Y-14971624D01*
X12036628Y-14962100D01*
X12055676Y-14952576D01*
X12208057Y-15133528D02*
X12217581Y-15143052D01*
X12208057Y-15152576D01*
X12198533Y-15143052D01*
X12208057Y-15133528D01*
X12208057Y-15152576D01*
X12408057Y-15152576D02*
X12293771Y-15152576D01*
X12350914Y-15152576D02*
X12350914Y-14952576D01*
X12331867Y-14981148D01*
X12312819Y-15000195D01*
X12293771Y-15009719D01*
X12484248Y-14971624D02*
X12493771Y-14962100D01*
X12512819Y-14952576D01*
X12560438Y-14952576D01*
X12579486Y-14962100D01*
X12589009Y-14971624D01*
X12598533Y-14990671D01*
X12598533Y-15009719D01*
X12589009Y-15038290D01*
X12474724Y-15152576D01*
X12598533Y-15152576D01*
X12769962Y-14952576D02*
X12731867Y-14952576D01*
X12712819Y-14962100D01*
X12703295Y-14971624D01*
X12684248Y-15000195D01*
X12674724Y-15038290D01*
X12674724Y-15114481D01*
X12684248Y-15133528D01*
X12693771Y-15143052D01*
X12712819Y-15152576D01*
X12750914Y-15152576D01*
X12769962Y-15143052D01*
X12779486Y-15133528D01*
X12789009Y-15114481D01*
X12789009Y-15066862D01*
X12779486Y-15047814D01*
X12769962Y-15038290D01*
X12750914Y-15028767D01*
X12712819Y-15028767D01*
X12693771Y-15038290D01*
X12684248Y-15047814D01*
X12674724Y-15066862D01*
X12912819Y-14952576D02*
X12931867Y-14952576D01*
X12950914Y-14962100D01*
X12960438Y-14971624D01*
X12969962Y-14990671D01*
X12979486Y-15028767D01*
X12979486Y-15076386D01*
X12969962Y-15114481D01*
X12960438Y-15133528D01*
X12950914Y-15143052D01*
X12931867Y-15152576D01*
X12912819Y-15152576D01*
X12893771Y-15143052D01*
X12884248Y-15133528D01*
X12874724Y-15114481D01*
X12865200Y-15076386D01*
X12865200Y-15028767D01*
X12874724Y-14990671D01*
X12884248Y-14971624D01*
X12893771Y-14962100D01*
X12912819Y-14952576D01*
X13055676Y-14952576D02*
X13055676Y-14990671D01*
X13131867Y-14952576D02*
X13131867Y-14990671D01*
X13427105Y-15228767D02*
X13417581Y-15219243D01*
X13398533Y-15190671D01*
X13389009Y-15171624D01*
X13379486Y-15143052D01*
X13369962Y-15095433D01*
X13369962Y-15057338D01*
X13379486Y-15009719D01*
X13389009Y-14981148D01*
X13398533Y-14962100D01*
X13417581Y-14933528D01*
X13427105Y-14924005D01*
X13493771Y-14971624D02*
X13503295Y-14962100D01*
X13522343Y-14952576D01*
X13569962Y-14952576D01*
X13589009Y-14962100D01*
X13598533Y-14971624D01*
X13608057Y-14990671D01*
X13608057Y-15009719D01*
X13598533Y-15038290D01*
X13484248Y-15152576D01*
X13608057Y-15152576D01*
X13846152Y-15152576D02*
X13846152Y-14952576D01*
X13931867Y-15152576D02*
X13931867Y-15047814D01*
X13922343Y-15028767D01*
X13903295Y-15019243D01*
X13874724Y-15019243D01*
X13855676Y-15028767D01*
X13846152Y-15038290D01*
X14055676Y-15152576D02*
X14036628Y-15143052D01*
X14027105Y-15133528D01*
X14017581Y-15114481D01*
X14017581Y-15057338D01*
X14027105Y-15038290D01*
X14036628Y-15028767D01*
X14055676Y-15019243D01*
X14084248Y-15019243D01*
X14103295Y-15028767D01*
X14112819Y-15038290D01*
X14122343Y-15057338D01*
X14122343Y-15114481D01*
X14112819Y-15133528D01*
X14103295Y-15143052D01*
X14084248Y-15152576D01*
X14055676Y-15152576D01*
X14236628Y-15152576D02*
X14217581Y-15143052D01*
X14208057Y-15124005D01*
X14208057Y-14952576D01*
X14389009Y-15143052D02*
X14369962Y-15152576D01*
X14331867Y-15152576D01*
X14312819Y-15143052D01*
X14303295Y-15124005D01*
X14303295Y-15047814D01*
X14312819Y-15028767D01*
X14331867Y-15019243D01*
X14369962Y-15019243D01*
X14389009Y-15028767D01*
X14398533Y-15047814D01*
X14398533Y-15066862D01*
X14303295Y-15085909D01*
X14474724Y-15143052D02*
X14493771Y-15152576D01*
X14531867Y-15152576D01*
X14550914Y-15143052D01*
X14560438Y-15124005D01*
X14560438Y-15114481D01*
X14550914Y-15095433D01*
X14531867Y-15085909D01*
X14503295Y-15085909D01*
X14484248Y-15076386D01*
X14474724Y-15057338D01*
X14474724Y-15047814D01*
X14484248Y-15028767D01*
X14503295Y-15019243D01*
X14531867Y-15019243D01*
X14550914Y-15028767D01*
X14627105Y-15228767D02*
X14636628Y-15219243D01*
X14655676Y-15190671D01*
X14665200Y-15171624D01*
X14674724Y-15143052D01*
X14684248Y-15095433D01*
X14684248Y-15057338D01*
X14674724Y-15009719D01*
X14665200Y-14981148D01*
X14655676Y-14962100D01*
X14636628Y-14933528D01*
X14627105Y-14924005D01*
M02*
