%TF.GenerationSoftware,KiCad,Pcbnew,(6.0.2)*%
%TF.CreationDate,2022-06-27T11:40:54+12:00*%
%TF.ProjectId,ArduinoJimStim,41726475-696e-46f4-9a69-6d5374696d2e,rev?*%
%TF.SameCoordinates,Original*%
%TF.FileFunction,Legend,Top*%
%TF.FilePolarity,Positive*%
%FSLAX46Y46*%
G04 Gerber Fmt 4.6, Leading zero omitted, Abs format (unit mm)*
G04 Created by KiCad (PCBNEW (6.0.2)) date 2022-06-27 11:40:54*
%MOMM*%
%LPD*%
G01*
G04 APERTURE LIST*
%ADD10C,0.150000*%
%ADD11C,0.120000*%
G04 APERTURE END LIST*
D10*
%TO.C,RN1*%
X149405380Y-79330476D02*
X148929190Y-79663809D01*
X149405380Y-79901904D02*
X148405380Y-79901904D01*
X148405380Y-79520952D01*
X148453000Y-79425714D01*
X148500619Y-79378095D01*
X148595857Y-79330476D01*
X148738714Y-79330476D01*
X148833952Y-79378095D01*
X148881571Y-79425714D01*
X148929190Y-79520952D01*
X148929190Y-79901904D01*
X149405380Y-78901904D02*
X148405380Y-78901904D01*
X149405380Y-78330476D01*
X148405380Y-78330476D01*
X149405380Y-77330476D02*
X149405380Y-77901904D01*
X149405380Y-77616190D02*
X148405380Y-77616190D01*
X148548238Y-77711428D01*
X148643476Y-77806666D01*
X148691095Y-77901904D01*
%TO.C,D2*%
X127108380Y-69089595D02*
X126108380Y-69089595D01*
X126108380Y-68851500D01*
X126156000Y-68708642D01*
X126251238Y-68613404D01*
X126346476Y-68565785D01*
X126536952Y-68518166D01*
X126679809Y-68518166D01*
X126870285Y-68565785D01*
X126965523Y-68613404D01*
X127060761Y-68708642D01*
X127108380Y-68851500D01*
X127108380Y-69089595D01*
X126203619Y-68137214D02*
X126156000Y-68089595D01*
X126108380Y-67994357D01*
X126108380Y-67756261D01*
X126156000Y-67661023D01*
X126203619Y-67613404D01*
X126298857Y-67565785D01*
X126394095Y-67565785D01*
X126536952Y-67613404D01*
X127108380Y-68184833D01*
X127108380Y-67565785D01*
%TO.C,D8*%
X182166904Y-93974550D02*
X182166904Y-92974550D01*
X182405000Y-92974550D01*
X182547857Y-93022170D01*
X182643095Y-93117408D01*
X182690714Y-93212646D01*
X182738333Y-93403122D01*
X182738333Y-93545979D01*
X182690714Y-93736455D01*
X182643095Y-93831693D01*
X182547857Y-93926931D01*
X182405000Y-93974550D01*
X182166904Y-93974550D01*
X183309761Y-93403122D02*
X183214523Y-93355503D01*
X183166904Y-93307884D01*
X183119285Y-93212646D01*
X183119285Y-93165027D01*
X183166904Y-93069789D01*
X183214523Y-93022170D01*
X183309761Y-92974550D01*
X183500238Y-92974550D01*
X183595476Y-93022170D01*
X183643095Y-93069789D01*
X183690714Y-93165027D01*
X183690714Y-93212646D01*
X183643095Y-93307884D01*
X183595476Y-93355503D01*
X183500238Y-93403122D01*
X183309761Y-93403122D01*
X183214523Y-93450741D01*
X183166904Y-93498360D01*
X183119285Y-93593598D01*
X183119285Y-93784074D01*
X183166904Y-93879312D01*
X183214523Y-93926931D01*
X183309761Y-93974550D01*
X183500238Y-93974550D01*
X183595476Y-93926931D01*
X183643095Y-93879312D01*
X183690714Y-93784074D01*
X183690714Y-93593598D01*
X183643095Y-93498360D01*
X183595476Y-93450741D01*
X183500238Y-93403122D01*
%TO.C,J10*%
X187229476Y-54276380D02*
X187229476Y-54990666D01*
X187181857Y-55133523D01*
X187086619Y-55228761D01*
X186943761Y-55276380D01*
X186848523Y-55276380D01*
X188229476Y-55276380D02*
X187658047Y-55276380D01*
X187943761Y-55276380D02*
X187943761Y-54276380D01*
X187848523Y-54419238D01*
X187753285Y-54514476D01*
X187658047Y-54562095D01*
X188848523Y-54276380D02*
X188943761Y-54276380D01*
X189039000Y-54324000D01*
X189086619Y-54371619D01*
X189134238Y-54466857D01*
X189181857Y-54657333D01*
X189181857Y-54895428D01*
X189134238Y-55085904D01*
X189086619Y-55181142D01*
X189039000Y-55228761D01*
X188943761Y-55276380D01*
X188848523Y-55276380D01*
X188753285Y-55228761D01*
X188705666Y-55181142D01*
X188658047Y-55085904D01*
X188610428Y-54895428D01*
X188610428Y-54657333D01*
X188658047Y-54466857D01*
X188705666Y-54371619D01*
X188753285Y-54324000D01*
X188848523Y-54276380D01*
%TO.C,R10*%
X173664142Y-103241550D02*
X173330809Y-102765360D01*
X173092714Y-103241550D02*
X173092714Y-102241550D01*
X173473666Y-102241550D01*
X173568904Y-102289170D01*
X173616523Y-102336789D01*
X173664142Y-102432027D01*
X173664142Y-102574884D01*
X173616523Y-102670122D01*
X173568904Y-102717741D01*
X173473666Y-102765360D01*
X173092714Y-102765360D01*
X174616523Y-103241550D02*
X174045095Y-103241550D01*
X174330809Y-103241550D02*
X174330809Y-102241550D01*
X174235571Y-102384408D01*
X174140333Y-102479646D01*
X174045095Y-102527265D01*
X175235571Y-102241550D02*
X175330809Y-102241550D01*
X175426047Y-102289170D01*
X175473666Y-102336789D01*
X175521285Y-102432027D01*
X175568904Y-102622503D01*
X175568904Y-102860598D01*
X175521285Y-103051074D01*
X175473666Y-103146312D01*
X175426047Y-103193931D01*
X175330809Y-103241550D01*
X175235571Y-103241550D01*
X175140333Y-103193931D01*
X175092714Y-103146312D01*
X175045095Y-103051074D01*
X174997476Y-102860598D01*
X174997476Y-102622503D01*
X175045095Y-102432027D01*
X175092714Y-102336789D01*
X175140333Y-102289170D01*
X175235571Y-102241550D01*
%TO.C,J4*%
X132152666Y-104731380D02*
X132152666Y-105445666D01*
X132105047Y-105588523D01*
X132009809Y-105683761D01*
X131866952Y-105731380D01*
X131771714Y-105731380D01*
X133057428Y-105064714D02*
X133057428Y-105731380D01*
X132819333Y-104683761D02*
X132581238Y-105398047D01*
X133200285Y-105398047D01*
%TO.C,C1*%
X121637333Y-70327142D02*
X121589714Y-70374761D01*
X121446857Y-70422380D01*
X121351619Y-70422380D01*
X121208761Y-70374761D01*
X121113523Y-70279523D01*
X121065904Y-70184285D01*
X121018285Y-69993809D01*
X121018285Y-69850952D01*
X121065904Y-69660476D01*
X121113523Y-69565238D01*
X121208761Y-69470000D01*
X121351619Y-69422380D01*
X121446857Y-69422380D01*
X121589714Y-69470000D01*
X121637333Y-69517619D01*
X122589714Y-70422380D02*
X122018285Y-70422380D01*
X122304000Y-70422380D02*
X122304000Y-69422380D01*
X122208761Y-69565238D01*
X122113523Y-69660476D01*
X122018285Y-69708095D01*
%TO.C,J3*%
X159904666Y-111649380D02*
X159904666Y-112363666D01*
X159857047Y-112506523D01*
X159761809Y-112601761D01*
X159618952Y-112649380D01*
X159523714Y-112649380D01*
X160285619Y-111649380D02*
X160904666Y-111649380D01*
X160571333Y-112030333D01*
X160714190Y-112030333D01*
X160809428Y-112077952D01*
X160857047Y-112125571D01*
X160904666Y-112220809D01*
X160904666Y-112458904D01*
X160857047Y-112554142D01*
X160809428Y-112601761D01*
X160714190Y-112649380D01*
X160428476Y-112649380D01*
X160333238Y-112601761D01*
X160285619Y-112554142D01*
%TO.C,J8*%
X116236666Y-83713380D02*
X116236666Y-84427666D01*
X116189047Y-84570523D01*
X116093809Y-84665761D01*
X115950952Y-84713380D01*
X115855714Y-84713380D01*
X116855714Y-84141952D02*
X116760476Y-84094333D01*
X116712857Y-84046714D01*
X116665238Y-83951476D01*
X116665238Y-83903857D01*
X116712857Y-83808619D01*
X116760476Y-83761000D01*
X116855714Y-83713380D01*
X117046190Y-83713380D01*
X117141428Y-83761000D01*
X117189047Y-83808619D01*
X117236666Y-83903857D01*
X117236666Y-83951476D01*
X117189047Y-84046714D01*
X117141428Y-84094333D01*
X117046190Y-84141952D01*
X116855714Y-84141952D01*
X116760476Y-84189571D01*
X116712857Y-84237190D01*
X116665238Y-84332428D01*
X116665238Y-84522904D01*
X116712857Y-84618142D01*
X116760476Y-84665761D01*
X116855714Y-84713380D01*
X117046190Y-84713380D01*
X117141428Y-84665761D01*
X117189047Y-84618142D01*
X117236666Y-84522904D01*
X117236666Y-84332428D01*
X117189047Y-84237190D01*
X117141428Y-84189571D01*
X117046190Y-84141952D01*
%TO.C,R15*%
X173664142Y-80047550D02*
X173330809Y-79571360D01*
X173092714Y-80047550D02*
X173092714Y-79047550D01*
X173473666Y-79047550D01*
X173568904Y-79095170D01*
X173616523Y-79142789D01*
X173664142Y-79238027D01*
X173664142Y-79380884D01*
X173616523Y-79476122D01*
X173568904Y-79523741D01*
X173473666Y-79571360D01*
X173092714Y-79571360D01*
X174616523Y-80047550D02*
X174045095Y-80047550D01*
X174330809Y-80047550D02*
X174330809Y-79047550D01*
X174235571Y-79190408D01*
X174140333Y-79285646D01*
X174045095Y-79333265D01*
X175521285Y-79047550D02*
X175045095Y-79047550D01*
X174997476Y-79523741D01*
X175045095Y-79476122D01*
X175140333Y-79428503D01*
X175378428Y-79428503D01*
X175473666Y-79476122D01*
X175521285Y-79523741D01*
X175568904Y-79618979D01*
X175568904Y-79857074D01*
X175521285Y-79952312D01*
X175473666Y-79999931D01*
X175378428Y-80047550D01*
X175140333Y-80047550D01*
X175045095Y-79999931D01*
X174997476Y-79952312D01*
%TO.C,D13*%
X158596714Y-53415380D02*
X158596714Y-52415380D01*
X158834809Y-52415380D01*
X158977666Y-52463000D01*
X159072904Y-52558238D01*
X159120523Y-52653476D01*
X159168142Y-52843952D01*
X159168142Y-52986809D01*
X159120523Y-53177285D01*
X159072904Y-53272523D01*
X158977666Y-53367761D01*
X158834809Y-53415380D01*
X158596714Y-53415380D01*
X160120523Y-53415380D02*
X159549095Y-53415380D01*
X159834809Y-53415380D02*
X159834809Y-52415380D01*
X159739571Y-52558238D01*
X159644333Y-52653476D01*
X159549095Y-52701095D01*
X160453857Y-52415380D02*
X161072904Y-52415380D01*
X160739571Y-52796333D01*
X160882428Y-52796333D01*
X160977666Y-52843952D01*
X161025285Y-52891571D01*
X161072904Y-52986809D01*
X161072904Y-53224904D01*
X161025285Y-53320142D01*
X160977666Y-53367761D01*
X160882428Y-53415380D01*
X160596714Y-53415380D01*
X160501476Y-53367761D01*
X160453857Y-53320142D01*
X153199095Y-53985380D02*
X153199095Y-52985380D01*
X153770523Y-53985380D02*
X153341952Y-53413952D01*
X153770523Y-52985380D02*
X153199095Y-53556809D01*
%TO.C,J5*%
X107417711Y-86323333D02*
X108131997Y-86323333D01*
X108274854Y-86370952D01*
X108370092Y-86466190D01*
X108417711Y-86609047D01*
X108417711Y-86704285D01*
X107417711Y-85370952D02*
X107417711Y-85847142D01*
X107893902Y-85894761D01*
X107846283Y-85847142D01*
X107798664Y-85751904D01*
X107798664Y-85513809D01*
X107846283Y-85418571D01*
X107893902Y-85370952D01*
X107989140Y-85323333D01*
X108227235Y-85323333D01*
X108322473Y-85370952D01*
X108370092Y-85418571D01*
X108417711Y-85513809D01*
X108417711Y-85751904D01*
X108370092Y-85847142D01*
X108322473Y-85894761D01*
%TO.C,MAT1*%
X122325380Y-122669047D02*
X121325380Y-122669047D01*
X122039666Y-122335714D01*
X121325380Y-122002380D01*
X122325380Y-122002380D01*
X122039666Y-121573809D02*
X122039666Y-121097619D01*
X122325380Y-121669047D02*
X121325380Y-121335714D01*
X122325380Y-121002380D01*
X121325380Y-120811904D02*
X121325380Y-120240476D01*
X122325380Y-120526190D02*
X121325380Y-120526190D01*
X122325380Y-119383333D02*
X122325380Y-119954761D01*
X122325380Y-119669047D02*
X121325380Y-119669047D01*
X121468238Y-119764285D01*
X121563476Y-119859523D01*
X121611095Y-119954761D01*
%TO.C,Q2*%
X133153761Y-105077119D02*
X133058523Y-105029500D01*
X132963285Y-104934261D01*
X132820428Y-104791404D01*
X132725190Y-104743785D01*
X132629952Y-104743785D01*
X132677571Y-104981880D02*
X132582333Y-104934261D01*
X132487095Y-104839023D01*
X132439476Y-104648547D01*
X132439476Y-104315214D01*
X132487095Y-104124738D01*
X132582333Y-104029500D01*
X132677571Y-103981880D01*
X132868047Y-103981880D01*
X132963285Y-104029500D01*
X133058523Y-104124738D01*
X133106142Y-104315214D01*
X133106142Y-104648547D01*
X133058523Y-104839023D01*
X132963285Y-104934261D01*
X132868047Y-104981880D01*
X132677571Y-104981880D01*
X133487095Y-104077119D02*
X133534714Y-104029500D01*
X133629952Y-103981880D01*
X133868047Y-103981880D01*
X133963285Y-104029500D01*
X134010904Y-104077119D01*
X134058523Y-104172357D01*
X134058523Y-104267595D01*
X134010904Y-104410452D01*
X133439476Y-104981880D01*
X134058523Y-104981880D01*
%TO.C,R5*%
X165586380Y-117696666D02*
X165110190Y-118030000D01*
X165586380Y-118268095D02*
X164586380Y-118268095D01*
X164586380Y-117887142D01*
X164634000Y-117791904D01*
X164681619Y-117744285D01*
X164776857Y-117696666D01*
X164919714Y-117696666D01*
X165014952Y-117744285D01*
X165062571Y-117791904D01*
X165110190Y-117887142D01*
X165110190Y-118268095D01*
X164586380Y-116791904D02*
X164586380Y-117268095D01*
X165062571Y-117315714D01*
X165014952Y-117268095D01*
X164967333Y-117172857D01*
X164967333Y-116934761D01*
X165014952Y-116839523D01*
X165062571Y-116791904D01*
X165157809Y-116744285D01*
X165395904Y-116744285D01*
X165491142Y-116791904D01*
X165538761Y-116839523D01*
X165586380Y-116934761D01*
X165586380Y-117172857D01*
X165538761Y-117268095D01*
X165491142Y-117315714D01*
%TO.C,CLT1*%
X139642142Y-121739880D02*
X139689761Y-121787500D01*
X139737380Y-121930357D01*
X139737380Y-122025595D01*
X139689761Y-122168452D01*
X139594523Y-122263690D01*
X139499285Y-122311309D01*
X139308809Y-122358928D01*
X139165952Y-122358928D01*
X138975476Y-122311309D01*
X138880238Y-122263690D01*
X138785000Y-122168452D01*
X138737380Y-122025595D01*
X138737380Y-121930357D01*
X138785000Y-121787500D01*
X138832619Y-121739880D01*
X139737380Y-120835119D02*
X139737380Y-121311309D01*
X138737380Y-121311309D01*
X138737380Y-120644642D02*
X138737380Y-120073214D01*
X139737380Y-120358928D02*
X138737380Y-120358928D01*
X139737380Y-119216071D02*
X139737380Y-119787500D01*
X139737380Y-119501785D02*
X138737380Y-119501785D01*
X138880238Y-119597023D01*
X138975476Y-119692261D01*
X139023095Y-119787500D01*
%TO.C,J1*%
X115870380Y-82407333D02*
X116584666Y-82407333D01*
X116727523Y-82454952D01*
X116822761Y-82550190D01*
X116870380Y-82693047D01*
X116870380Y-82788285D01*
X116870380Y-81407333D02*
X116870380Y-81978761D01*
X116870380Y-81693047D02*
X115870380Y-81693047D01*
X116013238Y-81788285D01*
X116108476Y-81883523D01*
X116156095Y-81978761D01*
%TO.C,RPM1*%
X196320380Y-121531095D02*
X195844190Y-121864428D01*
X196320380Y-122102523D02*
X195320380Y-122102523D01*
X195320380Y-121721571D01*
X195368000Y-121626333D01*
X195415619Y-121578714D01*
X195510857Y-121531095D01*
X195653714Y-121531095D01*
X195748952Y-121578714D01*
X195796571Y-121626333D01*
X195844190Y-121721571D01*
X195844190Y-122102523D01*
X196320380Y-121102523D02*
X195320380Y-121102523D01*
X195320380Y-120721571D01*
X195368000Y-120626333D01*
X195415619Y-120578714D01*
X195510857Y-120531095D01*
X195653714Y-120531095D01*
X195748952Y-120578714D01*
X195796571Y-120626333D01*
X195844190Y-120721571D01*
X195844190Y-121102523D01*
X196320380Y-120102523D02*
X195320380Y-120102523D01*
X196034666Y-119769190D01*
X195320380Y-119435857D01*
X196320380Y-119435857D01*
X196320380Y-118435857D02*
X196320380Y-119007285D01*
X196320380Y-118721571D02*
X195320380Y-118721571D01*
X195463238Y-118816809D01*
X195558476Y-118912047D01*
X195606095Y-119007285D01*
%TO.C,J2*%
X117543666Y-88879880D02*
X117543666Y-89594166D01*
X117496047Y-89737023D01*
X117400809Y-89832261D01*
X117257952Y-89879880D01*
X117162714Y-89879880D01*
X117972238Y-88975119D02*
X118019857Y-88927500D01*
X118115095Y-88879880D01*
X118353190Y-88879880D01*
X118448428Y-88927500D01*
X118496047Y-88975119D01*
X118543666Y-89070357D01*
X118543666Y-89165595D01*
X118496047Y-89308452D01*
X117924619Y-89879880D01*
X118543666Y-89879880D01*
%TO.C,D4*%
X110872380Y-68831595D02*
X109872380Y-68831595D01*
X109872380Y-68593500D01*
X109920000Y-68450642D01*
X110015238Y-68355404D01*
X110110476Y-68307785D01*
X110300952Y-68260166D01*
X110443809Y-68260166D01*
X110634285Y-68307785D01*
X110729523Y-68355404D01*
X110824761Y-68450642D01*
X110872380Y-68593500D01*
X110872380Y-68831595D01*
X110205714Y-67403023D02*
X110872380Y-67403023D01*
X109824761Y-67641119D02*
X110539047Y-67879214D01*
X110539047Y-67260166D01*
%TO.C,J7*%
X149111666Y-51192880D02*
X149111666Y-51907166D01*
X149064047Y-52050023D01*
X148968809Y-52145261D01*
X148825952Y-52192880D01*
X148730714Y-52192880D01*
X149492619Y-51192880D02*
X150159285Y-51192880D01*
X149730714Y-52192880D01*
%TO.C,R17*%
X173664142Y-70921550D02*
X173330809Y-70445360D01*
X173092714Y-70921550D02*
X173092714Y-69921550D01*
X173473666Y-69921550D01*
X173568904Y-69969170D01*
X173616523Y-70016789D01*
X173664142Y-70112027D01*
X173664142Y-70254884D01*
X173616523Y-70350122D01*
X173568904Y-70397741D01*
X173473666Y-70445360D01*
X173092714Y-70445360D01*
X174616523Y-70921550D02*
X174045095Y-70921550D01*
X174330809Y-70921550D02*
X174330809Y-69921550D01*
X174235571Y-70064408D01*
X174140333Y-70159646D01*
X174045095Y-70207265D01*
X174949857Y-69921550D02*
X175616523Y-69921550D01*
X175187952Y-70921550D01*
%TO.C,O2*%
X180968380Y-120776428D02*
X180968380Y-120585952D01*
X181016000Y-120490714D01*
X181111238Y-120395476D01*
X181301714Y-120347857D01*
X181635047Y-120347857D01*
X181825523Y-120395476D01*
X181920761Y-120490714D01*
X181968380Y-120585952D01*
X181968380Y-120776428D01*
X181920761Y-120871666D01*
X181825523Y-120966904D01*
X181635047Y-121014523D01*
X181301714Y-121014523D01*
X181111238Y-120966904D01*
X181016000Y-120871666D01*
X180968380Y-120776428D01*
X181063619Y-119966904D02*
X181016000Y-119919285D01*
X180968380Y-119824047D01*
X180968380Y-119585952D01*
X181016000Y-119490714D01*
X181063619Y-119443095D01*
X181158857Y-119395476D01*
X181254095Y-119395476D01*
X181396952Y-119443095D01*
X181968380Y-120014523D01*
X181968380Y-119395476D01*
%TO.C,R12*%
X173545142Y-93517550D02*
X173211809Y-93041360D01*
X172973714Y-93517550D02*
X172973714Y-92517550D01*
X173354666Y-92517550D01*
X173449904Y-92565170D01*
X173497523Y-92612789D01*
X173545142Y-92708027D01*
X173545142Y-92850884D01*
X173497523Y-92946122D01*
X173449904Y-92993741D01*
X173354666Y-93041360D01*
X172973714Y-93041360D01*
X174497523Y-93517550D02*
X173926095Y-93517550D01*
X174211809Y-93517550D02*
X174211809Y-92517550D01*
X174116571Y-92660408D01*
X174021333Y-92755646D01*
X173926095Y-92803265D01*
X174878476Y-92612789D02*
X174926095Y-92565170D01*
X175021333Y-92517550D01*
X175259428Y-92517550D01*
X175354666Y-92565170D01*
X175402285Y-92612789D01*
X175449904Y-92708027D01*
X175449904Y-92803265D01*
X175402285Y-92946122D01*
X174830857Y-93517550D01*
X175449904Y-93517550D01*
%TO.C,R14*%
X173624142Y-84590550D02*
X173290809Y-84114360D01*
X173052714Y-84590550D02*
X173052714Y-83590550D01*
X173433666Y-83590550D01*
X173528904Y-83638170D01*
X173576523Y-83685789D01*
X173624142Y-83781027D01*
X173624142Y-83923884D01*
X173576523Y-84019122D01*
X173528904Y-84066741D01*
X173433666Y-84114360D01*
X173052714Y-84114360D01*
X174576523Y-84590550D02*
X174005095Y-84590550D01*
X174290809Y-84590550D02*
X174290809Y-83590550D01*
X174195571Y-83733408D01*
X174100333Y-83828646D01*
X174005095Y-83876265D01*
X175433666Y-83923884D02*
X175433666Y-84590550D01*
X175195571Y-83542931D02*
X174957476Y-84257217D01*
X175576523Y-84257217D01*
%TO.C,R13*%
X173545142Y-89173550D02*
X173211809Y-88697360D01*
X172973714Y-89173550D02*
X172973714Y-88173550D01*
X173354666Y-88173550D01*
X173449904Y-88221170D01*
X173497523Y-88268789D01*
X173545142Y-88364027D01*
X173545142Y-88506884D01*
X173497523Y-88602122D01*
X173449904Y-88649741D01*
X173354666Y-88697360D01*
X172973714Y-88697360D01*
X174497523Y-89173550D02*
X173926095Y-89173550D01*
X174211809Y-89173550D02*
X174211809Y-88173550D01*
X174116571Y-88316408D01*
X174021333Y-88411646D01*
X173926095Y-88459265D01*
X174830857Y-88173550D02*
X175449904Y-88173550D01*
X175116571Y-88554503D01*
X175259428Y-88554503D01*
X175354666Y-88602122D01*
X175402285Y-88649741D01*
X175449904Y-88744979D01*
X175449904Y-88983074D01*
X175402285Y-89078312D01*
X175354666Y-89125931D01*
X175259428Y-89173550D01*
X174973714Y-89173550D01*
X174878476Y-89125931D01*
X174830857Y-89078312D01*
%TO.C,R16*%
X173744142Y-75504550D02*
X173410809Y-75028360D01*
X173172714Y-75504550D02*
X173172714Y-74504550D01*
X173553666Y-74504550D01*
X173648904Y-74552170D01*
X173696523Y-74599789D01*
X173744142Y-74695027D01*
X173744142Y-74837884D01*
X173696523Y-74933122D01*
X173648904Y-74980741D01*
X173553666Y-75028360D01*
X173172714Y-75028360D01*
X174696523Y-75504550D02*
X174125095Y-75504550D01*
X174410809Y-75504550D02*
X174410809Y-74504550D01*
X174315571Y-74647408D01*
X174220333Y-74742646D01*
X174125095Y-74790265D01*
X175553666Y-74504550D02*
X175363190Y-74504550D01*
X175267952Y-74552170D01*
X175220333Y-74599789D01*
X175125095Y-74742646D01*
X175077476Y-74933122D01*
X175077476Y-75314074D01*
X175125095Y-75409312D01*
X175172714Y-75456931D01*
X175267952Y-75504550D01*
X175458428Y-75504550D01*
X175553666Y-75456931D01*
X175601285Y-75409312D01*
X175648904Y-75314074D01*
X175648904Y-75075979D01*
X175601285Y-74980741D01*
X175553666Y-74933122D01*
X175458428Y-74885503D01*
X175267952Y-74885503D01*
X175172714Y-74933122D01*
X175125095Y-74980741D01*
X175077476Y-75075979D01*
%TO.C,R4*%
X132017380Y-59971166D02*
X131541190Y-60304500D01*
X132017380Y-60542595D02*
X131017380Y-60542595D01*
X131017380Y-60161642D01*
X131065000Y-60066404D01*
X131112619Y-60018785D01*
X131207857Y-59971166D01*
X131350714Y-59971166D01*
X131445952Y-60018785D01*
X131493571Y-60066404D01*
X131541190Y-60161642D01*
X131541190Y-60542595D01*
X131350714Y-59114023D02*
X132017380Y-59114023D01*
X130969761Y-59352119D02*
X131684047Y-59590214D01*
X131684047Y-58971166D01*
%TO.C,SW1*%
X175073238Y-56862666D02*
X175025619Y-57005523D01*
X175025619Y-57243619D01*
X175073238Y-57338857D01*
X175120857Y-57386476D01*
X175216095Y-57434095D01*
X175311333Y-57434095D01*
X175406571Y-57386476D01*
X175454190Y-57338857D01*
X175501809Y-57243619D01*
X175549428Y-57053142D01*
X175597047Y-56957904D01*
X175644666Y-56910285D01*
X175739904Y-56862666D01*
X175835142Y-56862666D01*
X175930380Y-56910285D01*
X175978000Y-56957904D01*
X176025619Y-57053142D01*
X176025619Y-57291238D01*
X175978000Y-57434095D01*
X176025619Y-57767428D02*
X175025619Y-58005523D01*
X175739904Y-58196000D01*
X175025619Y-58386476D01*
X176025619Y-58624571D01*
X175025619Y-59529333D02*
X175025619Y-58957904D01*
X175025619Y-59243619D02*
X176025619Y-59243619D01*
X175882761Y-59148380D01*
X175787523Y-59053142D01*
X175739904Y-58957904D01*
%TO.C,D5*%
X182166904Y-107803550D02*
X182166904Y-106803550D01*
X182405000Y-106803550D01*
X182547857Y-106851170D01*
X182643095Y-106946408D01*
X182690714Y-107041646D01*
X182738333Y-107232122D01*
X182738333Y-107374979D01*
X182690714Y-107565455D01*
X182643095Y-107660693D01*
X182547857Y-107755931D01*
X182405000Y-107803550D01*
X182166904Y-107803550D01*
X183643095Y-106803550D02*
X183166904Y-106803550D01*
X183119285Y-107279741D01*
X183166904Y-107232122D01*
X183262142Y-107184503D01*
X183500238Y-107184503D01*
X183595476Y-107232122D01*
X183643095Y-107279741D01*
X183690714Y-107374979D01*
X183690714Y-107613074D01*
X183643095Y-107708312D01*
X183595476Y-107755931D01*
X183500238Y-107803550D01*
X183262142Y-107803550D01*
X183166904Y-107755931D01*
X183119285Y-107708312D01*
%TO.C,D1*%
X134818380Y-69144595D02*
X133818380Y-69144595D01*
X133818380Y-68906500D01*
X133866000Y-68763642D01*
X133961238Y-68668404D01*
X134056476Y-68620785D01*
X134246952Y-68573166D01*
X134389809Y-68573166D01*
X134580285Y-68620785D01*
X134675523Y-68668404D01*
X134770761Y-68763642D01*
X134818380Y-68906500D01*
X134818380Y-69144595D01*
X134818380Y-67620785D02*
X134818380Y-68192214D01*
X134818380Y-67906500D02*
X133818380Y-67906500D01*
X133961238Y-68001738D01*
X134056476Y-68096976D01*
X134104095Y-68192214D01*
%TO.C,R1*%
X130991333Y-94427880D02*
X130658000Y-93951690D01*
X130419904Y-94427880D02*
X130419904Y-93427880D01*
X130800857Y-93427880D01*
X130896095Y-93475500D01*
X130943714Y-93523119D01*
X130991333Y-93618357D01*
X130991333Y-93761214D01*
X130943714Y-93856452D01*
X130896095Y-93904071D01*
X130800857Y-93951690D01*
X130419904Y-93951690D01*
X131943714Y-94427880D02*
X131372285Y-94427880D01*
X131658000Y-94427880D02*
X131658000Y-93427880D01*
X131562761Y-93570738D01*
X131467523Y-93665976D01*
X131372285Y-93713595D01*
%TO.C,A1*%
X157617714Y-59749666D02*
X158093904Y-59749666D01*
X157522476Y-60035380D02*
X157855809Y-59035380D01*
X158189142Y-60035380D01*
X159046285Y-60035380D02*
X158474857Y-60035380D01*
X158760571Y-60035380D02*
X158760571Y-59035380D01*
X158665333Y-59178238D01*
X158570095Y-59273476D01*
X158474857Y-59321095D01*
%TO.C,D6*%
X182166904Y-103220550D02*
X182166904Y-102220550D01*
X182405000Y-102220550D01*
X182547857Y-102268170D01*
X182643095Y-102363408D01*
X182690714Y-102458646D01*
X182738333Y-102649122D01*
X182738333Y-102791979D01*
X182690714Y-102982455D01*
X182643095Y-103077693D01*
X182547857Y-103172931D01*
X182405000Y-103220550D01*
X182166904Y-103220550D01*
X183595476Y-102220550D02*
X183405000Y-102220550D01*
X183309761Y-102268170D01*
X183262142Y-102315789D01*
X183166904Y-102458646D01*
X183119285Y-102649122D01*
X183119285Y-103030074D01*
X183166904Y-103125312D01*
X183214523Y-103172931D01*
X183309761Y-103220550D01*
X183500238Y-103220550D01*
X183595476Y-103172931D01*
X183643095Y-103125312D01*
X183690714Y-103030074D01*
X183690714Y-102791979D01*
X183643095Y-102696741D01*
X183595476Y-102649122D01*
X183500238Y-102601503D01*
X183309761Y-102601503D01*
X183214523Y-102649122D01*
X183166904Y-102696741D01*
X183119285Y-102791979D01*
%TO.C,R2*%
X122891380Y-88842166D02*
X122415190Y-89175500D01*
X122891380Y-89413595D02*
X121891380Y-89413595D01*
X121891380Y-89032642D01*
X121939000Y-88937404D01*
X121986619Y-88889785D01*
X122081857Y-88842166D01*
X122224714Y-88842166D01*
X122319952Y-88889785D01*
X122367571Y-88937404D01*
X122415190Y-89032642D01*
X122415190Y-89413595D01*
X121986619Y-88461214D02*
X121939000Y-88413595D01*
X121891380Y-88318357D01*
X121891380Y-88080261D01*
X121939000Y-87985023D01*
X121986619Y-87937404D01*
X122081857Y-87889785D01*
X122177095Y-87889785D01*
X122319952Y-87937404D01*
X122891380Y-88508833D01*
X122891380Y-87889785D01*
%TO.C,TPS1*%
X155248380Y-121947595D02*
X155248380Y-121376166D01*
X156248380Y-121661880D02*
X155248380Y-121661880D01*
X156248380Y-121042833D02*
X155248380Y-121042833D01*
X155248380Y-120661880D01*
X155296000Y-120566642D01*
X155343619Y-120519023D01*
X155438857Y-120471404D01*
X155581714Y-120471404D01*
X155676952Y-120519023D01*
X155724571Y-120566642D01*
X155772190Y-120661880D01*
X155772190Y-121042833D01*
X156200761Y-120090452D02*
X156248380Y-119947595D01*
X156248380Y-119709500D01*
X156200761Y-119614261D01*
X156153142Y-119566642D01*
X156057904Y-119519023D01*
X155962666Y-119519023D01*
X155867428Y-119566642D01*
X155819809Y-119614261D01*
X155772190Y-119709500D01*
X155724571Y-119899976D01*
X155676952Y-119995214D01*
X155629333Y-120042833D01*
X155534095Y-120090452D01*
X155438857Y-120090452D01*
X155343619Y-120042833D01*
X155296000Y-119995214D01*
X155248380Y-119899976D01*
X155248380Y-119661880D01*
X155296000Y-119519023D01*
X156248380Y-118566642D02*
X156248380Y-119138071D01*
X156248380Y-118852357D02*
X155248380Y-118852357D01*
X155391238Y-118947595D01*
X155486476Y-119042833D01*
X155534095Y-119138071D01*
%TO.C,R7*%
X130374333Y-96822880D02*
X130041000Y-96346690D01*
X129802904Y-96822880D02*
X129802904Y-95822880D01*
X130183857Y-95822880D01*
X130279095Y-95870500D01*
X130326714Y-95918119D01*
X130374333Y-96013357D01*
X130374333Y-96156214D01*
X130326714Y-96251452D01*
X130279095Y-96299071D01*
X130183857Y-96346690D01*
X129802904Y-96346690D01*
X130707666Y-95822880D02*
X131374333Y-95822880D01*
X130945761Y-96822880D01*
%TO.C,R11*%
X173704142Y-98459550D02*
X173370809Y-97983360D01*
X173132714Y-98459550D02*
X173132714Y-97459550D01*
X173513666Y-97459550D01*
X173608904Y-97507170D01*
X173656523Y-97554789D01*
X173704142Y-97650027D01*
X173704142Y-97792884D01*
X173656523Y-97888122D01*
X173608904Y-97935741D01*
X173513666Y-97983360D01*
X173132714Y-97983360D01*
X174656523Y-98459550D02*
X174085095Y-98459550D01*
X174370809Y-98459550D02*
X174370809Y-97459550D01*
X174275571Y-97602408D01*
X174180333Y-97697646D01*
X174085095Y-97745265D01*
X175608904Y-98459550D02*
X175037476Y-98459550D01*
X175323190Y-98459550D02*
X175323190Y-97459550D01*
X175227952Y-97602408D01*
X175132714Y-97697646D01*
X175037476Y-97745265D01*
%TO.C,D11*%
X181650714Y-80304550D02*
X181650714Y-79304550D01*
X181888809Y-79304550D01*
X182031666Y-79352170D01*
X182126904Y-79447408D01*
X182174523Y-79542646D01*
X182222142Y-79733122D01*
X182222142Y-79875979D01*
X182174523Y-80066455D01*
X182126904Y-80161693D01*
X182031666Y-80256931D01*
X181888809Y-80304550D01*
X181650714Y-80304550D01*
X183174523Y-80304550D02*
X182603095Y-80304550D01*
X182888809Y-80304550D02*
X182888809Y-79304550D01*
X182793571Y-79447408D01*
X182698333Y-79542646D01*
X182603095Y-79590265D01*
X184126904Y-80304550D02*
X183555476Y-80304550D01*
X183841190Y-80304550D02*
X183841190Y-79304550D01*
X183745952Y-79447408D01*
X183650714Y-79542646D01*
X183555476Y-79590265D01*
%TO.C,J9*%
X190629666Y-73717550D02*
X190629666Y-74431836D01*
X190582047Y-74574693D01*
X190486809Y-74669931D01*
X190343952Y-74717550D01*
X190248714Y-74717550D01*
X191153476Y-74717550D02*
X191343952Y-74717550D01*
X191439190Y-74669931D01*
X191486809Y-74622312D01*
X191582047Y-74479455D01*
X191629666Y-74288979D01*
X191629666Y-73908027D01*
X191582047Y-73812789D01*
X191534428Y-73765170D01*
X191439190Y-73717550D01*
X191248714Y-73717550D01*
X191153476Y-73765170D01*
X191105857Y-73812789D01*
X191058238Y-73908027D01*
X191058238Y-74146122D01*
X191105857Y-74241360D01*
X191153476Y-74288979D01*
X191248714Y-74336598D01*
X191439190Y-74336598D01*
X191534428Y-74288979D01*
X191582047Y-74241360D01*
X191629666Y-74146122D01*
%TO.C,D10*%
X181690714Y-84887550D02*
X181690714Y-83887550D01*
X181928809Y-83887550D01*
X182071666Y-83935170D01*
X182166904Y-84030408D01*
X182214523Y-84125646D01*
X182262142Y-84316122D01*
X182262142Y-84458979D01*
X182214523Y-84649455D01*
X182166904Y-84744693D01*
X182071666Y-84839931D01*
X181928809Y-84887550D01*
X181690714Y-84887550D01*
X183214523Y-84887550D02*
X182643095Y-84887550D01*
X182928809Y-84887550D02*
X182928809Y-83887550D01*
X182833571Y-84030408D01*
X182738333Y-84125646D01*
X182643095Y-84173265D01*
X183833571Y-83887550D02*
X183928809Y-83887550D01*
X184024047Y-83935170D01*
X184071666Y-83982789D01*
X184119285Y-84078027D01*
X184166904Y-84268503D01*
X184166904Y-84506598D01*
X184119285Y-84697074D01*
X184071666Y-84792312D01*
X184024047Y-84839931D01*
X183928809Y-84887550D01*
X183833571Y-84887550D01*
X183738333Y-84839931D01*
X183690714Y-84792312D01*
X183643095Y-84697074D01*
X183595476Y-84506598D01*
X183595476Y-84268503D01*
X183643095Y-84078027D01*
X183690714Y-83982789D01*
X183738333Y-83935170D01*
X183833571Y-83887550D01*
%TO.C,R6*%
X123687380Y-59899166D02*
X123211190Y-60232500D01*
X123687380Y-60470595D02*
X122687380Y-60470595D01*
X122687380Y-60089642D01*
X122735000Y-59994404D01*
X122782619Y-59946785D01*
X122877857Y-59899166D01*
X123020714Y-59899166D01*
X123115952Y-59946785D01*
X123163571Y-59994404D01*
X123211190Y-60089642D01*
X123211190Y-60470595D01*
X122687380Y-59042023D02*
X122687380Y-59232500D01*
X122735000Y-59327738D01*
X122782619Y-59375357D01*
X122925476Y-59470595D01*
X123115952Y-59518214D01*
X123496904Y-59518214D01*
X123592142Y-59470595D01*
X123639761Y-59422976D01*
X123687380Y-59327738D01*
X123687380Y-59137261D01*
X123639761Y-59042023D01*
X123592142Y-58994404D01*
X123496904Y-58946785D01*
X123258809Y-58946785D01*
X123163571Y-58994404D01*
X123115952Y-59042023D01*
X123068333Y-59137261D01*
X123068333Y-59327738D01*
X123115952Y-59422976D01*
X123163571Y-59470595D01*
X123258809Y-59518214D01*
%TO.C,D9*%
X182206904Y-89470550D02*
X182206904Y-88470550D01*
X182445000Y-88470550D01*
X182587857Y-88518170D01*
X182683095Y-88613408D01*
X182730714Y-88708646D01*
X182778333Y-88899122D01*
X182778333Y-89041979D01*
X182730714Y-89232455D01*
X182683095Y-89327693D01*
X182587857Y-89422931D01*
X182445000Y-89470550D01*
X182206904Y-89470550D01*
X183254523Y-89470550D02*
X183445000Y-89470550D01*
X183540238Y-89422931D01*
X183587857Y-89375312D01*
X183683095Y-89232455D01*
X183730714Y-89041979D01*
X183730714Y-88661027D01*
X183683095Y-88565789D01*
X183635476Y-88518170D01*
X183540238Y-88470550D01*
X183349761Y-88470550D01*
X183254523Y-88518170D01*
X183206904Y-88565789D01*
X183159285Y-88661027D01*
X183159285Y-88899122D01*
X183206904Y-88994360D01*
X183254523Y-89041979D01*
X183349761Y-89089598D01*
X183540238Y-89089598D01*
X183635476Y-89041979D01*
X183683095Y-88994360D01*
X183730714Y-88899122D01*
%TO.C,SW2*%
X136906666Y-71773761D02*
X137049523Y-71821380D01*
X137287619Y-71821380D01*
X137382857Y-71773761D01*
X137430476Y-71726142D01*
X137478095Y-71630904D01*
X137478095Y-71535666D01*
X137430476Y-71440428D01*
X137382857Y-71392809D01*
X137287619Y-71345190D01*
X137097142Y-71297571D01*
X137001904Y-71249952D01*
X136954285Y-71202333D01*
X136906666Y-71107095D01*
X136906666Y-71011857D01*
X136954285Y-70916619D01*
X137001904Y-70869000D01*
X137097142Y-70821380D01*
X137335238Y-70821380D01*
X137478095Y-70869000D01*
X137811428Y-70821380D02*
X138049523Y-71821380D01*
X138240000Y-71107095D01*
X138430476Y-71821380D01*
X138668571Y-70821380D01*
X139001904Y-70916619D02*
X139049523Y-70869000D01*
X139144761Y-70821380D01*
X139382857Y-70821380D01*
X139478095Y-70869000D01*
X139525714Y-70916619D01*
X139573333Y-71011857D01*
X139573333Y-71107095D01*
X139525714Y-71249952D01*
X138954285Y-71821380D01*
X139573333Y-71821380D01*
%TO.C,D7*%
X182166904Y-98637550D02*
X182166904Y-97637550D01*
X182405000Y-97637550D01*
X182547857Y-97685170D01*
X182643095Y-97780408D01*
X182690714Y-97875646D01*
X182738333Y-98066122D01*
X182738333Y-98208979D01*
X182690714Y-98399455D01*
X182643095Y-98494693D01*
X182547857Y-98589931D01*
X182405000Y-98637550D01*
X182166904Y-98637550D01*
X183071666Y-97637550D02*
X183738333Y-97637550D01*
X183309761Y-98637550D01*
%TO.C,R9*%
X126641380Y-98788166D02*
X126165190Y-99121500D01*
X126641380Y-99359595D02*
X125641380Y-99359595D01*
X125641380Y-98978642D01*
X125689000Y-98883404D01*
X125736619Y-98835785D01*
X125831857Y-98788166D01*
X125974714Y-98788166D01*
X126069952Y-98835785D01*
X126117571Y-98883404D01*
X126165190Y-98978642D01*
X126165190Y-99359595D01*
X126641380Y-98311976D02*
X126641380Y-98121500D01*
X126593761Y-98026261D01*
X126546142Y-97978642D01*
X126403285Y-97883404D01*
X126212809Y-97835785D01*
X125831857Y-97835785D01*
X125736619Y-97883404D01*
X125689000Y-97931023D01*
X125641380Y-98026261D01*
X125641380Y-98216738D01*
X125689000Y-98311976D01*
X125736619Y-98359595D01*
X125831857Y-98407214D01*
X126069952Y-98407214D01*
X126165190Y-98359595D01*
X126212809Y-98311976D01*
X126260428Y-98216738D01*
X126260428Y-98026261D01*
X126212809Y-97931023D01*
X126165190Y-97883404D01*
X126069952Y-97835785D01*
%TO.C,D12*%
X181639714Y-75761550D02*
X181639714Y-74761550D01*
X181877809Y-74761550D01*
X182020666Y-74809170D01*
X182115904Y-74904408D01*
X182163523Y-74999646D01*
X182211142Y-75190122D01*
X182211142Y-75332979D01*
X182163523Y-75523455D01*
X182115904Y-75618693D01*
X182020666Y-75713931D01*
X181877809Y-75761550D01*
X181639714Y-75761550D01*
X183163523Y-75761550D02*
X182592095Y-75761550D01*
X182877809Y-75761550D02*
X182877809Y-74761550D01*
X182782571Y-74904408D01*
X182687333Y-74999646D01*
X182592095Y-75047265D01*
X183544476Y-74856789D02*
X183592095Y-74809170D01*
X183687333Y-74761550D01*
X183925428Y-74761550D01*
X184020666Y-74809170D01*
X184068285Y-74856789D01*
X184115904Y-74952027D01*
X184115904Y-75047265D01*
X184068285Y-75190122D01*
X183496857Y-75761550D01*
X184115904Y-75761550D01*
%TO.C,D3*%
X118776380Y-68831595D02*
X117776380Y-68831595D01*
X117776380Y-68593500D01*
X117824000Y-68450642D01*
X117919238Y-68355404D01*
X118014476Y-68307785D01*
X118204952Y-68260166D01*
X118347809Y-68260166D01*
X118538285Y-68307785D01*
X118633523Y-68355404D01*
X118728761Y-68450642D01*
X118776380Y-68593500D01*
X118776380Y-68831595D01*
X117776380Y-67926833D02*
X117776380Y-67307785D01*
X118157333Y-67641119D01*
X118157333Y-67498261D01*
X118204952Y-67403023D01*
X118252571Y-67355404D01*
X118347809Y-67307785D01*
X118585904Y-67307785D01*
X118681142Y-67355404D01*
X118728761Y-67403023D01*
X118776380Y-67498261D01*
X118776380Y-67783976D01*
X118728761Y-67879214D01*
X118681142Y-67926833D01*
%TO.C,J6*%
X109361666Y-61290380D02*
X109361666Y-62004666D01*
X109314047Y-62147523D01*
X109218809Y-62242761D01*
X109075952Y-62290380D01*
X108980714Y-62290380D01*
X110266428Y-61290380D02*
X110075952Y-61290380D01*
X109980714Y-61338000D01*
X109933095Y-61385619D01*
X109837857Y-61528476D01*
X109790238Y-61718952D01*
X109790238Y-62099904D01*
X109837857Y-62195142D01*
X109885476Y-62242761D01*
X109980714Y-62290380D01*
X110171190Y-62290380D01*
X110266428Y-62242761D01*
X110314047Y-62195142D01*
X110361666Y-62099904D01*
X110361666Y-61861809D01*
X110314047Y-61766571D01*
X110266428Y-61718952D01*
X110171190Y-61671333D01*
X109980714Y-61671333D01*
X109885476Y-61718952D01*
X109837857Y-61766571D01*
X109790238Y-61861809D01*
%TO.C,R3*%
X139685380Y-59928166D02*
X139209190Y-60261500D01*
X139685380Y-60499595D02*
X138685380Y-60499595D01*
X138685380Y-60118642D01*
X138733000Y-60023404D01*
X138780619Y-59975785D01*
X138875857Y-59928166D01*
X139018714Y-59928166D01*
X139113952Y-59975785D01*
X139161571Y-60023404D01*
X139209190Y-60118642D01*
X139209190Y-60499595D01*
X138685380Y-59594833D02*
X138685380Y-58975785D01*
X139066333Y-59309119D01*
X139066333Y-59166261D01*
X139113952Y-59071023D01*
X139161571Y-59023404D01*
X139256809Y-58975785D01*
X139494904Y-58975785D01*
X139590142Y-59023404D01*
X139637761Y-59071023D01*
X139685380Y-59166261D01*
X139685380Y-59451976D01*
X139637761Y-59547214D01*
X139590142Y-59594833D01*
%TO.C,R8*%
X115820380Y-59988166D02*
X115344190Y-60321500D01*
X115820380Y-60559595D02*
X114820380Y-60559595D01*
X114820380Y-60178642D01*
X114868000Y-60083404D01*
X114915619Y-60035785D01*
X115010857Y-59988166D01*
X115153714Y-59988166D01*
X115248952Y-60035785D01*
X115296571Y-60083404D01*
X115344190Y-60178642D01*
X115344190Y-60559595D01*
X115248952Y-59416738D02*
X115201333Y-59511976D01*
X115153714Y-59559595D01*
X115058476Y-59607214D01*
X115010857Y-59607214D01*
X114915619Y-59559595D01*
X114868000Y-59511976D01*
X114820380Y-59416738D01*
X114820380Y-59226261D01*
X114868000Y-59131023D01*
X114915619Y-59083404D01*
X115010857Y-59035785D01*
X115058476Y-59035785D01*
X115153714Y-59083404D01*
X115201333Y-59131023D01*
X115248952Y-59226261D01*
X115248952Y-59416738D01*
X115296571Y-59511976D01*
X115344190Y-59559595D01*
X115439428Y-59607214D01*
X115629904Y-59607214D01*
X115725142Y-59559595D01*
X115772761Y-59511976D01*
X115820380Y-59416738D01*
X115820380Y-59226261D01*
X115772761Y-59131023D01*
X115725142Y-59083404D01*
X115629904Y-59035785D01*
X115439428Y-59035785D01*
X115344190Y-59083404D01*
X115296571Y-59131023D01*
X115248952Y-59226261D01*
%TO.C,Q1*%
X128801761Y-92366619D02*
X128706523Y-92319000D01*
X128611285Y-92223761D01*
X128468428Y-92080904D01*
X128373190Y-92033285D01*
X128277952Y-92033285D01*
X128325571Y-92271380D02*
X128230333Y-92223761D01*
X128135095Y-92128523D01*
X128087476Y-91938047D01*
X128087476Y-91604714D01*
X128135095Y-91414238D01*
X128230333Y-91319000D01*
X128325571Y-91271380D01*
X128516047Y-91271380D01*
X128611285Y-91319000D01*
X128706523Y-91414238D01*
X128754142Y-91604714D01*
X128754142Y-91938047D01*
X128706523Y-92128523D01*
X128611285Y-92223761D01*
X128516047Y-92271380D01*
X128325571Y-92271380D01*
X129706523Y-92271380D02*
X129135095Y-92271380D01*
X129420809Y-92271380D02*
X129420809Y-91271380D01*
X129325571Y-91414238D01*
X129230333Y-91509476D01*
X129135095Y-91557095D01*
D11*
%TO.C,RN1*%
X145153000Y-88970000D02*
X147953000Y-88970000D01*
X147953000Y-68480000D02*
X145153000Y-68480000D01*
X145153000Y-65770000D02*
X145153000Y-88970000D01*
X147953000Y-88970000D02*
X147953000Y-65770000D01*
X147953000Y-65770000D02*
X145153000Y-65770000D01*
%TO.C,D2*%
X128380000Y-69911500D02*
X128536000Y-69911500D01*
X130696000Y-69911500D02*
X130852000Y-69911500D01*
X130851516Y-69911500D02*
G75*
G03*
X130694608Y-66679165I-1235517J1560000D01*
G01*
X128536163Y-67310370D02*
G75*
G03*
X128536000Y-69392461I1079837J-1041130D01*
G01*
X128537392Y-66679165D02*
G75*
G03*
X128380484Y-69911500I1078609J-1672335D01*
G01*
X130696000Y-69392461D02*
G75*
G03*
X130695837Y-67310370I-1080000J1040961D01*
G01*
%TO.C,D8*%
X184465000Y-89482170D02*
X184465000Y-89326170D01*
X184465000Y-91798170D02*
X184465000Y-91642170D01*
X184465000Y-89326654D02*
G75*
G03*
X181232665Y-89483562I-1560000J-1235517D01*
G01*
X183945961Y-89482170D02*
G75*
G03*
X181863870Y-89482333I-1040961J-1080000D01*
G01*
X181232665Y-91640778D02*
G75*
G03*
X184465000Y-91797686I1672335J1078609D01*
G01*
X181863870Y-91642007D02*
G75*
G03*
X183945961Y-91642170I1041130J1079837D01*
G01*
%TO.C,J10*%
X193389000Y-65174000D02*
X178689000Y-65174000D01*
X178689000Y-55974000D02*
X180589000Y-55974000D01*
X178489000Y-64324000D02*
X178489000Y-65374000D01*
X184589000Y-55974000D02*
X193389000Y-55974000D01*
X193389000Y-55974000D02*
X193389000Y-65174000D01*
X179539000Y-65374000D02*
X178489000Y-65374000D01*
X178689000Y-65174000D02*
X178689000Y-62574000D01*
X178689000Y-58674000D02*
X178689000Y-55974000D01*
%TO.C,R10*%
X176227000Y-103789170D02*
X172387000Y-103789170D01*
X177177000Y-104709170D02*
X176227000Y-104709170D01*
X172387000Y-105629170D02*
X176227000Y-105629170D01*
X171437000Y-104709170D02*
X172387000Y-104709170D01*
X176227000Y-105629170D02*
X176227000Y-103789170D01*
X172387000Y-103789170D02*
X172387000Y-105629170D01*
%TO.C,J4*%
X131156000Y-106279000D02*
X132486000Y-106279000D01*
X131156000Y-108879000D02*
X131156000Y-108939000D01*
X131156000Y-107609000D02*
X131156000Y-106279000D01*
X133816000Y-108879000D02*
X133816000Y-108939000D01*
X131156000Y-108879000D02*
X133816000Y-108879000D01*
X131156000Y-108939000D02*
X133816000Y-108939000D01*
%TO.C,C1*%
X125924000Y-75220000D02*
G75*
G03*
X125924000Y-75220000I-4120000J0D01*
G01*
%TO.C,J3*%
X158908000Y-118397000D02*
X161568000Y-118397000D01*
X158908000Y-114527000D02*
X158908000Y-113197000D01*
X158908000Y-113197000D02*
X160238000Y-113197000D01*
X158908000Y-115797000D02*
X161568000Y-115797000D01*
X158908000Y-115797000D02*
X158908000Y-118397000D01*
X161568000Y-115797000D02*
X161568000Y-118397000D01*
%TO.C,J8*%
X115240000Y-87861000D02*
X115240000Y-87921000D01*
X115240000Y-87921000D02*
X117900000Y-87921000D01*
X115240000Y-87861000D02*
X117900000Y-87861000D01*
X115240000Y-86591000D02*
X115240000Y-85261000D01*
X117900000Y-87861000D02*
X117900000Y-87921000D01*
X115240000Y-85261000D02*
X116570000Y-85261000D01*
%TO.C,R15*%
X176227000Y-82435170D02*
X176227000Y-80595170D01*
X176227000Y-80595170D02*
X172387000Y-80595170D01*
X177177000Y-81515170D02*
X176227000Y-81515170D01*
X171437000Y-81515170D02*
X172387000Y-81515170D01*
X172387000Y-82435170D02*
X176227000Y-82435170D01*
X172387000Y-80595170D02*
X172387000Y-82435170D01*
%TO.C,D13*%
X158111000Y-53963000D02*
X158111000Y-56903000D01*
X157091000Y-53963000D02*
X157091000Y-56903000D01*
X157091000Y-56903000D02*
X162531000Y-56903000D01*
X162531000Y-56903000D02*
X162531000Y-53963000D01*
X157991000Y-53963000D02*
X157991000Y-56903000D01*
X162531000Y-53963000D02*
X157091000Y-53963000D01*
X165021000Y-55433000D02*
X162531000Y-55433000D01*
X154601000Y-55433000D02*
X157091000Y-55433000D01*
X157871000Y-53963000D02*
X157871000Y-56903000D01*
%TO.C,J5*%
X107919669Y-111170000D02*
X107486656Y-110920000D01*
X107486656Y-110920000D02*
X107919669Y-110670000D01*
X107919669Y-110670000D02*
X107919669Y-111170000D01*
X107025331Y-51230000D02*
X107025331Y-120750000D01*
X96545331Y-51230000D02*
X107025331Y-51230000D01*
X107025331Y-120750000D02*
X96545331Y-120750000D01*
%TO.C,MAT1*%
X120743000Y-117180000D02*
X108003000Y-117180000D01*
X116077000Y-132600000D02*
X116077000Y-139050000D01*
X112668000Y-132600000D02*
X112668000Y-139050000D01*
X120743000Y-126250000D02*
X108003000Y-126250000D01*
X117668000Y-132600000D02*
X111078000Y-132600000D01*
X117668000Y-126250000D02*
X117668000Y-132600000D01*
X116077000Y-139050000D02*
X112668000Y-139050000D01*
X111078000Y-126250000D02*
X111078000Y-132600000D01*
X120743000Y-117180000D02*
X120743000Y-126250000D01*
X117668000Y-126250000D02*
X111078000Y-126250000D01*
X108003000Y-117180000D02*
X108003000Y-126250000D01*
X116077000Y-132600000D02*
X112668000Y-132600000D01*
%TO.C,Q2*%
X135049000Y-99119500D02*
X131449000Y-99119500D01*
X131410522Y-99131022D02*
G75*
G03*
X133249000Y-103569500I1838478J-1838478D01*
G01*
X133249000Y-103569501D02*
G75*
G03*
X135087478Y-99131022I0J2600001D01*
G01*
%TO.C,R5*%
X164134000Y-115610000D02*
X162294000Y-115610000D01*
X163214000Y-120400000D02*
X163214000Y-119450000D01*
X164134000Y-119450000D02*
X164134000Y-115610000D01*
X163214000Y-114660000D02*
X163214000Y-115610000D01*
X162294000Y-115610000D02*
X162294000Y-119450000D01*
X162294000Y-119450000D02*
X164134000Y-119450000D01*
%TO.C,CLT1*%
X138155000Y-116917500D02*
X125415000Y-116917500D01*
X125415000Y-116917500D02*
X125415000Y-125987500D01*
X138155000Y-116917500D02*
X138155000Y-125987500D01*
X128490000Y-125987500D02*
X128490000Y-132337500D01*
X133489000Y-132337500D02*
X130080000Y-132337500D01*
X130080000Y-132337500D02*
X130080000Y-138787500D01*
X135080000Y-125987500D02*
X128490000Y-125987500D01*
X138155000Y-125987500D02*
X125415000Y-125987500D01*
X135080000Y-125987500D02*
X135080000Y-132337500D01*
X133489000Y-132337500D02*
X133489000Y-138787500D01*
X135080000Y-132337500D02*
X128490000Y-132337500D01*
X133489000Y-138787500D02*
X130080000Y-138787500D01*
%TO.C,J1*%
X125158000Y-83404000D02*
X125158000Y-80744000D01*
X117418000Y-83404000D02*
X117418000Y-82074000D01*
X120018000Y-83404000D02*
X125158000Y-83404000D01*
X120018000Y-80744000D02*
X125158000Y-80744000D01*
X118748000Y-83404000D02*
X117418000Y-83404000D01*
X120018000Y-83404000D02*
X120018000Y-80744000D01*
%TO.C,RPM1*%
X194738000Y-125493000D02*
X181998000Y-125493000D01*
X191663000Y-125493000D02*
X185073000Y-125493000D01*
X185073000Y-125493000D02*
X185073000Y-131843000D01*
X194738000Y-116423000D02*
X194738000Y-125493000D01*
X181998000Y-116423000D02*
X181998000Y-125493000D01*
X190072000Y-138293000D02*
X186663000Y-138293000D01*
X190072000Y-131843000D02*
X186663000Y-131843000D01*
X191663000Y-131843000D02*
X185073000Y-131843000D01*
X194738000Y-116423000D02*
X181998000Y-116423000D01*
X191663000Y-125493000D02*
X191663000Y-131843000D01*
X190072000Y-131843000D02*
X190072000Y-138293000D01*
X186663000Y-131843000D02*
X186663000Y-138293000D01*
%TO.C,J2*%
X117877000Y-93027500D02*
X117877000Y-90427500D01*
X120477000Y-90427500D02*
X120477000Y-98167500D01*
X115277000Y-90427500D02*
X116607000Y-90427500D01*
X115277000Y-98167500D02*
X120477000Y-98167500D01*
X115277000Y-93027500D02*
X115277000Y-98167500D01*
X115277000Y-93027500D02*
X117877000Y-93027500D01*
X117877000Y-90427500D02*
X120477000Y-90427500D01*
X115277000Y-91757500D02*
X115277000Y-90427500D01*
%TO.C,D4*%
X114460000Y-69653500D02*
X114616000Y-69653500D01*
X112144000Y-69653500D02*
X112300000Y-69653500D01*
X112301392Y-66421165D02*
G75*
G03*
X112144484Y-69653500I1078609J-1672335D01*
G01*
X112300163Y-67052370D02*
G75*
G03*
X112300000Y-69134461I1079837J-1041130D01*
G01*
X114615516Y-69653500D02*
G75*
G03*
X114458608Y-66421165I-1235517J1560000D01*
G01*
X114460000Y-69134461D02*
G75*
G03*
X114459837Y-67052370I-1080000J1040961D01*
G01*
%TO.C,J7*%
X148115000Y-55340500D02*
X150775000Y-55340500D01*
X148115000Y-54070500D02*
X148115000Y-52740500D01*
X148115000Y-52740500D02*
X149445000Y-52740500D01*
X150775000Y-55340500D02*
X150775000Y-55400500D01*
X148115000Y-55340500D02*
X148115000Y-55400500D01*
X148115000Y-55400500D02*
X150775000Y-55400500D01*
%TO.C,R17*%
X176227000Y-73309170D02*
X176227000Y-71469170D01*
X171437000Y-72389170D02*
X172387000Y-72389170D01*
X172387000Y-71469170D02*
X172387000Y-73309170D01*
X176227000Y-71469170D02*
X172387000Y-71469170D01*
X172387000Y-73309170D02*
X176227000Y-73309170D01*
X177177000Y-72389170D02*
X176227000Y-72389170D01*
%TO.C,O2*%
X177311000Y-125405000D02*
X177311000Y-131755000D01*
X175720000Y-131755000D02*
X175720000Y-138205000D01*
X175720000Y-131755000D02*
X172311000Y-131755000D01*
X172311000Y-131755000D02*
X172311000Y-138205000D01*
X167646000Y-116335000D02*
X167646000Y-125405000D01*
X177311000Y-125405000D02*
X170721000Y-125405000D01*
X180386000Y-116335000D02*
X167646000Y-116335000D01*
X170721000Y-125405000D02*
X170721000Y-131755000D01*
X180386000Y-125405000D02*
X167646000Y-125405000D01*
X180386000Y-116335000D02*
X180386000Y-125405000D01*
X177311000Y-131755000D02*
X170721000Y-131755000D01*
X175720000Y-138205000D02*
X172311000Y-138205000D01*
%TO.C,R12*%
X177058000Y-94985170D02*
X176108000Y-94985170D01*
X172268000Y-94065170D02*
X172268000Y-95905170D01*
X176108000Y-94065170D02*
X172268000Y-94065170D01*
X176108000Y-95905170D02*
X176108000Y-94065170D01*
X172268000Y-95905170D02*
X176108000Y-95905170D01*
X171318000Y-94985170D02*
X172268000Y-94985170D01*
%TO.C,R14*%
X172347000Y-85138170D02*
X172347000Y-86978170D01*
X172347000Y-86978170D02*
X176187000Y-86978170D01*
X176187000Y-86978170D02*
X176187000Y-85138170D01*
X176187000Y-85138170D02*
X172347000Y-85138170D01*
X177137000Y-86058170D02*
X176187000Y-86058170D01*
X171397000Y-86058170D02*
X172347000Y-86058170D01*
%TO.C,R13*%
X176108000Y-91561170D02*
X176108000Y-89721170D01*
X171318000Y-90641170D02*
X172268000Y-90641170D01*
X177058000Y-90641170D02*
X176108000Y-90641170D01*
X172268000Y-89721170D02*
X172268000Y-91561170D01*
X176108000Y-89721170D02*
X172268000Y-89721170D01*
X172268000Y-91561170D02*
X176108000Y-91561170D01*
%TO.C,R16*%
X176307000Y-76052170D02*
X172467000Y-76052170D01*
X172467000Y-77892170D02*
X176307000Y-77892170D01*
X176307000Y-77892170D02*
X176307000Y-76052170D01*
X172467000Y-76052170D02*
X172467000Y-77892170D01*
X171517000Y-76972170D02*
X172467000Y-76972170D01*
X177257000Y-76972170D02*
X176307000Y-76972170D01*
%TO.C,R4*%
X130565000Y-61724500D02*
X130565000Y-57884500D01*
X130565000Y-57884500D02*
X128725000Y-57884500D01*
X129645000Y-56934500D02*
X129645000Y-57884500D01*
X128725000Y-61724500D02*
X130565000Y-61724500D01*
X128725000Y-57884500D02*
X128725000Y-61724500D01*
X129645000Y-62674500D02*
X129645000Y-61724500D01*
%TO.C,D5*%
X184465000Y-105627170D02*
X184465000Y-105471170D01*
X184465000Y-103311170D02*
X184465000Y-103155170D01*
X184465000Y-103155654D02*
G75*
G03*
X181232665Y-103312562I-1560000J-1235517D01*
G01*
X181863870Y-105471007D02*
G75*
G03*
X183945961Y-105471170I1041130J1079837D01*
G01*
X181232665Y-105469778D02*
G75*
G03*
X184465000Y-105626686I1672335J1078609D01*
G01*
X183945961Y-103311170D02*
G75*
G03*
X181863870Y-103311333I-1040961J-1080000D01*
G01*
%TO.C,D1*%
X136090000Y-69966500D02*
X136246000Y-69966500D01*
X138406000Y-69966500D02*
X138562000Y-69966500D01*
X136247392Y-66734165D02*
G75*
G03*
X136090484Y-69966500I1078609J-1672335D01*
G01*
X136246163Y-67365370D02*
G75*
G03*
X136246000Y-69447461I1079837J-1041130D01*
G01*
X138406000Y-69447461D02*
G75*
G03*
X138405837Y-67365370I-1080000J1040961D01*
G01*
X138561516Y-69966500D02*
G75*
G03*
X138404608Y-66734165I-1235517J1560000D01*
G01*
%TO.C,R1*%
X134124000Y-93854500D02*
X135074000Y-93854500D01*
X138914000Y-92934500D02*
X135074000Y-92934500D01*
X135074000Y-92934500D02*
X135074000Y-94774500D01*
X135074000Y-94774500D02*
X138914000Y-94774500D01*
X138914000Y-94774500D02*
X138914000Y-92934500D01*
X139864000Y-93854500D02*
X138914000Y-93854500D01*
%TO.C,A1*%
X149312000Y-60723000D02*
X149312000Y-63393000D01*
X167352000Y-60723000D02*
X149312000Y-60723000D01*
X149312000Y-65933000D02*
X149312000Y-104163000D01*
X151982000Y-65933000D02*
X151982000Y-101493000D01*
X164682000Y-101493000D02*
X167352000Y-101493000D01*
X151982000Y-65933000D02*
X151982000Y-63393000D01*
X164682000Y-63393000D02*
X167352000Y-63393000D01*
X167352000Y-104163000D02*
X167352000Y-60723000D01*
X151982000Y-63393000D02*
X149312000Y-63393000D01*
X164682000Y-63393000D02*
X164682000Y-101493000D01*
X151982000Y-65933000D02*
X149312000Y-65933000D01*
X149312000Y-104163000D02*
X167352000Y-104163000D01*
X151982000Y-101493000D02*
X149312000Y-101493000D01*
%TO.C,D6*%
X184465000Y-98728170D02*
X184465000Y-98572170D01*
X184465000Y-101044170D02*
X184465000Y-100888170D01*
X181863870Y-100888007D02*
G75*
G03*
X183945961Y-100888170I1041130J1079837D01*
G01*
X181232665Y-100886778D02*
G75*
G03*
X184465000Y-101043686I1672335J1078609D01*
G01*
X183945961Y-98728170D02*
G75*
G03*
X181863870Y-98728333I-1040961J-1080000D01*
G01*
X184465000Y-98572654D02*
G75*
G03*
X181232665Y-98729562I-1560000J-1235517D01*
G01*
%TO.C,R2*%
X124359000Y-85805500D02*
X124359000Y-86755500D01*
X125279000Y-90595500D02*
X125279000Y-86755500D01*
X124359000Y-91545500D02*
X124359000Y-90595500D01*
X125279000Y-86755500D02*
X123439000Y-86755500D01*
X123439000Y-90595500D02*
X125279000Y-90595500D01*
X123439000Y-86755500D02*
X123439000Y-90595500D01*
%TO.C,TPS1*%
X150000000Y-131759500D02*
X146591000Y-131759500D01*
X150000000Y-138209500D02*
X146591000Y-138209500D01*
X151591000Y-125409500D02*
X151591000Y-131759500D01*
X154666000Y-116339500D02*
X141926000Y-116339500D01*
X154666000Y-125409500D02*
X141926000Y-125409500D01*
X141926000Y-116339500D02*
X141926000Y-125409500D01*
X150000000Y-131759500D02*
X150000000Y-138209500D01*
X154666000Y-116339500D02*
X154666000Y-125409500D01*
X151591000Y-131759500D02*
X145001000Y-131759500D01*
X146591000Y-131759500D02*
X146591000Y-138209500D01*
X151591000Y-125409500D02*
X145001000Y-125409500D01*
X145001000Y-125409500D02*
X145001000Y-131759500D01*
%TO.C,R7*%
X135084000Y-97073500D02*
X138924000Y-97073500D01*
X134134000Y-96153500D02*
X135084000Y-96153500D01*
X139874000Y-96153500D02*
X138924000Y-96153500D01*
X135084000Y-95233500D02*
X135084000Y-97073500D01*
X138924000Y-95233500D02*
X135084000Y-95233500D01*
X138924000Y-97073500D02*
X138924000Y-95233500D01*
%TO.C,R11*%
X172427000Y-99007170D02*
X172427000Y-100847170D01*
X176267000Y-100847170D02*
X176267000Y-99007170D01*
X172427000Y-100847170D02*
X176267000Y-100847170D01*
X176267000Y-99007170D02*
X172427000Y-99007170D01*
X177217000Y-99927170D02*
X176267000Y-99927170D01*
X171477000Y-99927170D02*
X172427000Y-99927170D01*
%TO.C,D11*%
X184425000Y-78128170D02*
X184425000Y-77972170D01*
X184425000Y-75812170D02*
X184425000Y-75656170D01*
X181192665Y-77970778D02*
G75*
G03*
X184425000Y-78127686I1672335J1078609D01*
G01*
X181823870Y-77972007D02*
G75*
G03*
X183905961Y-77972170I1041130J1079837D01*
G01*
X184425000Y-75656654D02*
G75*
G03*
X181192665Y-75813562I-1560000J-1235517D01*
G01*
X183905961Y-75812170D02*
G75*
G03*
X181823870Y-75812333I-1040961J-1080000D01*
G01*
%TO.C,J9*%
X189633000Y-76595170D02*
X189633000Y-75265170D01*
X189633000Y-75265170D02*
X190963000Y-75265170D01*
X189633000Y-100785170D02*
X192293000Y-100785170D01*
X192293000Y-77865170D02*
X192293000Y-100785170D01*
X189633000Y-77865170D02*
X189633000Y-100785170D01*
X189633000Y-77865170D02*
X192293000Y-77865170D01*
%TO.C,D10*%
X184465000Y-80395170D02*
X184465000Y-80239170D01*
X184465000Y-82711170D02*
X184465000Y-82555170D01*
X183945961Y-80395170D02*
G75*
G03*
X181863870Y-80395333I-1040961J-1080000D01*
G01*
X181863870Y-82555007D02*
G75*
G03*
X183945961Y-82555170I1041130J1079837D01*
G01*
X181232665Y-82553778D02*
G75*
G03*
X184465000Y-82710686I1672335J1078609D01*
G01*
X184465000Y-80239654D02*
G75*
G03*
X181232665Y-80396562I-1560000J-1235517D01*
G01*
%TO.C,R6*%
X122235000Y-57812500D02*
X120395000Y-57812500D01*
X121315000Y-56862500D02*
X121315000Y-57812500D01*
X120395000Y-57812500D02*
X120395000Y-61652500D01*
X122235000Y-61652500D02*
X122235000Y-57812500D01*
X120395000Y-61652500D02*
X122235000Y-61652500D01*
X121315000Y-62602500D02*
X121315000Y-61652500D01*
%TO.C,D9*%
X184505000Y-87294170D02*
X184505000Y-87138170D01*
X184505000Y-84978170D02*
X184505000Y-84822170D01*
X183985961Y-84978170D02*
G75*
G03*
X181903870Y-84978333I-1040961J-1080000D01*
G01*
X181903870Y-87138007D02*
G75*
G03*
X183985961Y-87138170I1041130J1079837D01*
G01*
X184505000Y-84822654D02*
G75*
G03*
X181272665Y-84979562I-1560000J-1235517D01*
G01*
X181272665Y-87136778D02*
G75*
G03*
X184505000Y-87293686I1672335J1078609D01*
G01*
%TO.C,SW2*%
X136210000Y-87334000D02*
X137563333Y-87334000D01*
X136210000Y-80194000D02*
X137563333Y-80194000D01*
X140270000Y-85584000D02*
X140270000Y-84314000D01*
X136210000Y-81774000D02*
X136210000Y-83044000D01*
X136210000Y-87694000D02*
X137563333Y-87694000D01*
X136210000Y-87094000D02*
X137563333Y-87094000D01*
X140270000Y-77964000D02*
X140270000Y-76694000D01*
X140270000Y-83044000D02*
X140270000Y-81774000D01*
X137563333Y-81774000D02*
X137563333Y-83044000D01*
X136210000Y-79354000D02*
X137563333Y-79354000D01*
X136210000Y-77414000D02*
X137563333Y-77414000D01*
X136210000Y-77774000D02*
X137563333Y-77774000D01*
X133050000Y-72129000D02*
X133050000Y-73512000D01*
X136210000Y-79474000D02*
X137563333Y-79474000D01*
X133050000Y-72129000D02*
X134434000Y-72129000D01*
X136210000Y-75354000D02*
X137563333Y-75354000D01*
X136210000Y-87454000D02*
X137563333Y-87454000D01*
X133290000Y-89909000D02*
X143190000Y-89909000D01*
X136210000Y-84434000D02*
X137563333Y-84434000D01*
X136210000Y-82614000D02*
X137563333Y-82614000D01*
X136210000Y-82014000D02*
X137563333Y-82014000D01*
X136210000Y-77964000D02*
X140270000Y-77964000D01*
X136210000Y-81894000D02*
X137563333Y-81894000D01*
X136210000Y-74754000D02*
X137563333Y-74754000D01*
X136210000Y-80434000D02*
X137563333Y-80434000D01*
X136210000Y-77534000D02*
X137563333Y-77534000D01*
X136210000Y-76694000D02*
X136210000Y-77964000D01*
X136210000Y-85274000D02*
X137563333Y-85274000D01*
X136210000Y-87574000D02*
X137563333Y-87574000D01*
X136210000Y-79834000D02*
X137563333Y-79834000D01*
X140270000Y-86854000D02*
X136210000Y-86854000D01*
X136210000Y-74514000D02*
X137563333Y-74514000D01*
X136210000Y-84554000D02*
X137563333Y-84554000D01*
X136210000Y-86974000D02*
X137563333Y-86974000D01*
X136210000Y-85514000D02*
X137563333Y-85514000D01*
X136210000Y-88124000D02*
X140270000Y-88124000D01*
X136210000Y-85394000D02*
X137563333Y-85394000D01*
X136210000Y-77174000D02*
X137563333Y-77174000D01*
X140270000Y-80504000D02*
X140270000Y-79234000D01*
X140270000Y-76694000D02*
X136210000Y-76694000D01*
X136210000Y-84674000D02*
X137563333Y-84674000D01*
X136210000Y-82374000D02*
X137563333Y-82374000D01*
X136210000Y-82974000D02*
X137563333Y-82974000D01*
X136210000Y-77054000D02*
X137563333Y-77054000D01*
X140270000Y-75424000D02*
X140270000Y-74154000D01*
X136210000Y-82494000D02*
X137563333Y-82494000D01*
X140270000Y-81774000D02*
X136210000Y-81774000D01*
X136210000Y-84914000D02*
X137563333Y-84914000D01*
X137563333Y-86854000D02*
X137563333Y-88124000D01*
X136210000Y-80314000D02*
X137563333Y-80314000D01*
X136210000Y-80504000D02*
X140270000Y-80504000D01*
X140270000Y-79234000D02*
X136210000Y-79234000D01*
X136210000Y-76934000D02*
X137563333Y-76934000D01*
X136210000Y-82854000D02*
X137563333Y-82854000D01*
X140270000Y-84314000D02*
X136210000Y-84314000D01*
X136210000Y-77294000D02*
X137563333Y-77294000D01*
X143190000Y-72369000D02*
X143190000Y-89909000D01*
X136210000Y-84314000D02*
X136210000Y-85584000D01*
X133290000Y-72369000D02*
X143190000Y-72369000D01*
X136210000Y-74394000D02*
X137563333Y-74394000D01*
X136210000Y-86854000D02*
X136210000Y-88124000D01*
X136210000Y-74874000D02*
X137563333Y-74874000D01*
X136210000Y-79954000D02*
X137563333Y-79954000D01*
X136210000Y-85584000D02*
X140270000Y-85584000D01*
X136210000Y-74994000D02*
X137563333Y-74994000D01*
X137563333Y-79234000D02*
X137563333Y-80504000D01*
X136210000Y-79714000D02*
X137563333Y-79714000D01*
X136210000Y-74154000D02*
X136210000Y-75424000D01*
X136210000Y-77894000D02*
X137563333Y-77894000D01*
X133290000Y-72369000D02*
X133290000Y-89909000D01*
X137563333Y-84314000D02*
X137563333Y-85584000D01*
X136210000Y-85154000D02*
X137563333Y-85154000D01*
X136210000Y-74634000D02*
X137563333Y-74634000D01*
X136210000Y-84794000D02*
X137563333Y-84794000D01*
X136210000Y-88054000D02*
X137563333Y-88054000D01*
X136210000Y-75114000D02*
X137563333Y-75114000D01*
X136210000Y-75234000D02*
X137563333Y-75234000D01*
X136210000Y-82134000D02*
X137563333Y-82134000D01*
X136210000Y-87934000D02*
X137563333Y-87934000D01*
X136210000Y-87214000D02*
X137563333Y-87214000D01*
X140270000Y-88124000D02*
X140270000Y-86854000D01*
X136210000Y-75424000D02*
X140270000Y-75424000D01*
X136210000Y-80074000D02*
X137563333Y-80074000D01*
X140270000Y-74154000D02*
X136210000Y-74154000D01*
X136210000Y-76814000D02*
X137563333Y-76814000D01*
X136210000Y-85034000D02*
X137563333Y-85034000D01*
X137563333Y-74154000D02*
X137563333Y-75424000D01*
X136210000Y-79594000D02*
X137563333Y-79594000D01*
X136210000Y-77654000D02*
X137563333Y-77654000D01*
X136210000Y-83044000D02*
X140270000Y-83044000D01*
X137563333Y-76694000D02*
X137563333Y-77964000D01*
X136210000Y-82734000D02*
X137563333Y-82734000D01*
X136210000Y-74274000D02*
X137563333Y-74274000D01*
X136210000Y-87814000D02*
X137563333Y-87814000D01*
X136210000Y-82254000D02*
X137563333Y-82254000D01*
X136210000Y-79234000D02*
X136210000Y-80504000D01*
%TO.C,D7*%
X184465000Y-96461170D02*
X184465000Y-96305170D01*
X184465000Y-94145170D02*
X184465000Y-93989170D01*
X184465000Y-93989654D02*
G75*
G03*
X181232665Y-94146562I-1560000J-1235517D01*
G01*
X183945961Y-94145170D02*
G75*
G03*
X181863870Y-94145333I-1040961J-1080000D01*
G01*
X181232665Y-96303778D02*
G75*
G03*
X184465000Y-96460686I1672335J1078609D01*
G01*
X181863870Y-96305007D02*
G75*
G03*
X183945961Y-96305170I1041130J1079837D01*
G01*
%TO.C,R9*%
X124269000Y-101491500D02*
X124269000Y-100541500D01*
X123349000Y-96701500D02*
X123349000Y-100541500D01*
X125189000Y-96701500D02*
X123349000Y-96701500D01*
X123349000Y-100541500D02*
X125189000Y-100541500D01*
X124269000Y-95751500D02*
X124269000Y-96701500D01*
X125189000Y-100541500D02*
X125189000Y-96701500D01*
%TO.C,D12*%
X184414000Y-71269170D02*
X184414000Y-71113170D01*
X184414000Y-73585170D02*
X184414000Y-73429170D01*
X181181665Y-73427778D02*
G75*
G03*
X184414000Y-73584686I1672335J1078609D01*
G01*
X184414000Y-71113654D02*
G75*
G03*
X181181665Y-71270562I-1560000J-1235517D01*
G01*
X181812870Y-73429007D02*
G75*
G03*
X183894961Y-73429170I1041130J1079837D01*
G01*
X183894961Y-71269170D02*
G75*
G03*
X181812870Y-71269333I-1040961J-1080000D01*
G01*
%TO.C,D3*%
X120048000Y-69653500D02*
X120204000Y-69653500D01*
X122364000Y-69653500D02*
X122520000Y-69653500D01*
X122519516Y-69653500D02*
G75*
G03*
X122362608Y-66421165I-1235517J1560000D01*
G01*
X122364000Y-69134461D02*
G75*
G03*
X122363837Y-67052370I-1080000J1040961D01*
G01*
X120205392Y-66421165D02*
G75*
G03*
X120048484Y-69653500I1078609J-1672335D01*
G01*
X120204163Y-67052370D02*
G75*
G03*
X120204000Y-69134461I1079837J-1041130D01*
G01*
%TO.C,J6*%
X108365000Y-65438000D02*
X108365000Y-111218000D01*
X108365000Y-111218000D02*
X111025000Y-111218000D01*
X108365000Y-64168000D02*
X108365000Y-62838000D01*
X111025000Y-65438000D02*
X111025000Y-111218000D01*
X108365000Y-65438000D02*
X111025000Y-65438000D01*
X108365000Y-62838000D02*
X109695000Y-62838000D01*
%TO.C,R3*%
X137313000Y-56891500D02*
X137313000Y-57841500D01*
X136393000Y-61681500D02*
X138233000Y-61681500D01*
X136393000Y-57841500D02*
X136393000Y-61681500D01*
X137313000Y-62631500D02*
X137313000Y-61681500D01*
X138233000Y-61681500D02*
X138233000Y-57841500D01*
X138233000Y-57841500D02*
X136393000Y-57841500D01*
%TO.C,R8*%
X114368000Y-57901500D02*
X112528000Y-57901500D01*
X112528000Y-57901500D02*
X112528000Y-61741500D01*
X112528000Y-61741500D02*
X114368000Y-61741500D01*
X113448000Y-62691500D02*
X113448000Y-61741500D01*
X113448000Y-56951500D02*
X113448000Y-57901500D01*
X114368000Y-61741500D02*
X114368000Y-57901500D01*
%TO.C,Q1*%
X130697000Y-86409000D02*
X127097000Y-86409000D01*
X128897000Y-90859001D02*
G75*
G03*
X130735478Y-86420522I0J2600001D01*
G01*
X127058522Y-86420522D02*
G75*
G03*
X128897000Y-90859000I1838478J-1838478D01*
G01*
%TD*%
M02*
