M48
; DRILL file {KiCad (6.0.2)} date Mon Jun 27 11:40:46 2022
; FORMAT={-:-/ absolute / metric / decimal}
; #@! TF.CreationDate,2022-06-27T11:40:46+12:00
; #@! TF.GenerationSoftware,Kicad,Pcbnew,(6.0.2)
; #@! TF.FileFunction,Plated,1,2,PTH
FMAT,2
METRIC
; #@! TA.AperFunction,Plated,PTH,ViaDrill
T1C0.400
; #@! TA.AperFunction,Plated,PTH,ComponentDrill
T2C0.700
; #@! TA.AperFunction,Plated,PTH,ComponentDrill
T3C0.750
; #@! TA.AperFunction,Plated,PTH,ComponentDrill
T4C0.800
; #@! TA.AperFunction,Plated,PTH,ComponentDrill
T5C0.900
; #@! TA.AperFunction,Plated,PTH,ComponentDrill
T6C1.000
; #@! TA.AperFunction,Plated,PTH,ComponentDrill
T7C1.100
; #@! TA.AperFunction,Plated,PTH,ComponentDrill
T8C3.200
%
G90
G05
T1
X152.109Y-115.215
T2
X113.448Y-56.011
X113.448Y-63.631
X121.315Y-55.922
X121.315Y-63.542
X124.269Y-94.811
X124.269Y-102.431
X124.359Y-84.865
X124.359Y-92.486
X129.645Y-55.994
X129.645Y-63.614
X133.184Y-93.855
X133.194Y-96.153
X137.313Y-55.951
X137.313Y-63.572
X140.804Y-93.855
X140.814Y-96.153
X163.214Y-113.72
X163.214Y-121.34
X170.378Y-90.641
X170.378Y-94.985
X170.457Y-86.058
X170.497Y-72.389
X170.497Y-81.515
X170.497Y-104.709
X170.537Y-99.927
X170.577Y-76.972
X177.998Y-90.641
X177.998Y-94.985
X178.077Y-86.058
X178.117Y-72.389
X178.117Y-81.515
X178.117Y-104.709
X178.157Y-99.927
X178.197Y-76.972
T3
X127.627Y-88.259
X128.897Y-88.259
X130.167Y-88.259
X131.979Y-100.969
X133.249Y-100.969
X134.519Y-100.969
T4
X120.054Y-75.22
X123.554Y-75.22
X134.43Y-74.789
X134.43Y-77.329
X134.43Y-79.869
X134.43Y-82.409
X134.43Y-84.949
X134.43Y-87.489
X142.05Y-74.789
X142.05Y-77.329
X142.05Y-79.869
X142.05Y-82.409
X142.05Y-84.949
X142.05Y-87.489
X146.553Y-67.21
X146.553Y-69.75
X146.553Y-72.29
X146.553Y-74.83
X146.553Y-77.37
X146.553Y-79.91
X146.553Y-82.45
X146.553Y-84.99
X146.553Y-87.53
T5
X113.38Y-66.823
X113.38Y-69.364
X121.284Y-66.823
X121.284Y-69.364
X129.616Y-67.081
X129.616Y-69.621
X137.326Y-67.136
X137.326Y-69.676
X153.461Y-55.433
X166.161Y-55.433
X181.584Y-72.349
X181.595Y-76.892
X181.635Y-81.475
X181.635Y-90.562
X181.635Y-95.225
X181.635Y-99.808
X181.635Y-104.391
X181.675Y-86.058
X184.124Y-72.349
X184.135Y-76.892
X184.175Y-81.475
X184.175Y-90.562
X184.175Y-95.225
X184.175Y-99.808
X184.175Y-104.391
X184.215Y-86.058
T6
X101.425Y-62.445
X101.425Y-65.215
X101.425Y-67.985
X101.425Y-70.755
X101.425Y-73.525
X101.425Y-76.295
X101.425Y-79.065
X101.425Y-81.835
X101.425Y-84.605
X101.425Y-87.375
X101.425Y-90.145
X101.425Y-92.915
X101.425Y-95.685
X101.425Y-98.455
X101.425Y-101.225
X101.425Y-103.995
X101.425Y-106.765
X101.425Y-109.535
X104.265Y-61.06
X104.265Y-63.83
X104.265Y-66.6
X104.265Y-69.37
X104.265Y-72.14
X104.265Y-74.91
X104.265Y-77.68
X104.265Y-80.45
X104.265Y-83.22
X104.265Y-85.99
X104.265Y-88.76
X104.265Y-91.53
X104.265Y-94.3
X104.265Y-97.07
X104.265Y-99.84
X104.265Y-102.61
X104.265Y-105.38
X104.265Y-108.15
X104.265Y-110.92
X109.695Y-64.168
X109.695Y-66.708
X109.695Y-69.248
X109.695Y-71.788
X109.695Y-74.328
X109.695Y-76.868
X109.695Y-79.408
X109.695Y-81.948
X109.695Y-84.488
X109.695Y-87.028
X109.695Y-89.568
X109.695Y-92.108
X109.695Y-94.648
X109.695Y-97.188
X109.695Y-99.728
X109.695Y-102.268
X109.695Y-104.808
X109.695Y-107.348
X109.695Y-109.888
X111.833Y-121.05
X114.373Y-121.05
X116.57Y-86.591
X116.607Y-91.757
X116.607Y-94.297
X116.607Y-96.837
X116.913Y-121.05
X118.748Y-82.074
X119.147Y-91.757
X119.147Y-94.297
X119.147Y-96.837
X121.288Y-82.074
X123.828Y-82.074
X129.245Y-120.787
X131.785Y-120.787
X132.486Y-107.609
X134.325Y-120.787
X145.756Y-120.209
X148.296Y-120.209
X149.445Y-54.07
X150.712Y-64.663
X150.712Y-67.203
X150.712Y-69.743
X150.712Y-72.283
X150.712Y-74.823
X150.712Y-77.363
X150.712Y-79.903
X150.712Y-82.443
X150.712Y-84.983
X150.712Y-87.523
X150.712Y-90.063
X150.712Y-92.603
X150.712Y-95.143
X150.712Y-97.683
X150.712Y-100.223
X150.836Y-120.209
X160.238Y-114.527
X160.238Y-117.067
X165.952Y-64.663
X165.952Y-67.203
X165.952Y-69.743
X165.952Y-72.283
X165.952Y-74.823
X165.952Y-77.363
X165.952Y-79.903
X165.952Y-82.443
X165.952Y-84.983
X165.952Y-87.523
X165.952Y-90.063
X165.952Y-92.603
X165.952Y-95.143
X165.952Y-97.683
X165.952Y-100.223
X171.476Y-120.205
X174.016Y-120.205
X176.556Y-120.205
X185.828Y-120.293
X188.368Y-120.293
X190.908Y-120.293
X190.963Y-76.595
X190.963Y-79.135
X190.963Y-81.675
X190.963Y-84.215
X190.963Y-86.755
X190.963Y-89.295
X190.963Y-91.835
X190.963Y-94.375
X190.963Y-96.915
X190.963Y-99.455
T8
X103.965Y-54.24
X103.965Y-117.74
T6
G00X179.589Y-61.574
M15
G01X179.589Y-59.574
M16
G05
G00X183.589Y-55.874
M15
G01X181.589Y-55.874
M16
G05
G00X185.589Y-61.574
M15
G01X185.589Y-59.574
M16
G05
T7
G00X173.288Y-55.536
M15
G01X171.388Y-55.536
M16
G05
G00X173.328Y-60.156
M15
G01X171.428Y-60.156
M16
G05
T0
M30
